<svg xmlns="http://www.w3.org/2000/svg" width="5016" height="5016" viewBox="0 0 5016 5016"><path fill="#ffa519" d="M2228.67 1909.88c18.04-.44 34.66 5.25 49.87 14.62q3.34 2.02 6.77 3.88c3.62 1.98 7.12 4.1 10.61 6.29a565 565 0 0 0 19.17 11.26l9.21 5.24 1.8 1.03a741 741 0 0 1 18.02 10.66q5.77 3.49 11.57 6.95l15.71 9.45c1.33.8 1.33.8 2.7 1.6q2.5 1.53 5.01 3.04 6.8 4.1 13.75 7.9 4.89 2.76 9.7 5.64a2047 2047 0 0 0 15.07 8.83 1738 1738 0 0 1 33.21 19.75q12.5 7.63 25.16 14.98l2.34 1.36a1921 1921 0 0 0 20.58 11.87c5.1 2.88 10.16 5.78 15.08 8.96a467 467 0 0 0 16.75 10.19l2.9 1.7 5.7 3.35 11.1 6.57 3.36 2a100 100 0 0 1 6.6 4.5 60 60 0 0 0 9.56 5.5c3.44 1.7 6.73 3.67 10.03 5.63l2.2 1.29a623 623 0 0 1 17.44 10.77 92 92 0 0 0 8.3 4.78c3.9 1.95 7.55 4.23 11.25 6.53q9.44 5.83 19.06 11.38 10.26 5.89 20.44 11.93 10.04 5.96 20.13 11.83 18.8 10.92 37.41 22.19 3.72 2.25 7.48 4.45c15.63 9.33 26.95 20.6 35.54 36.85l.96 1.75c7.15 14.24 7.36 29.86 7.26 45.4v6.49q.02 8.84-.03 17.69-.03 9.56-.02 19.1 0 17.63-.07 35.26l-.07 32.56v2.19q0 4.4-.02 8.79-.06 41.17-.17 82.34-.1 36.54-.14 73.08-.05 41.1-.14 82.2l-.02 8.77v2.19q-.05 16.27-.06 32.53 0 18.51-.09 37-.03 9.45-.03 18.89 0 8.65-.05 17.29v6.24c.03 15.02-1 29.4-8.3 42.92l-1.05 1.99a100 100 0 0 1-11.2 16.7l-1.7 2.06c-9.54 10.54-23.7 17.28-35.86 24.34q-7.26 4.24-14.45 8.6a3108 3108 0 0 1-35.62 21.03L2643 2881l-2.92 1.7a841 841 0 0 0-28.46 17.24c-15.23 9.73-30.99 18.57-46.68 27.52-20.97 11.94-20.97 11.94-41.5 24.6a512 512 0 0 1-26.46 15.58c-9.16 5.12-18.2 10.45-27.25 15.76l-7.56 4.43a971 971 0 0 0-21.93 13.17 771 771 0 0 1-37.42 21.8 635 635 0 0 0-17.76 10.14l-6.03 3.53-3 1.76-9.2 5.36q-7.67 4.48-15.27 9.1a1087 1087 0 0 1-35.96 20.74c-5.38 2.98-10.67 6.09-15.98 9.2l-3.17 1.84q-7.45 4.34-14.85 8.75c-22.64 13.45-46.53 18.68-72.5 12.49a70 70 0 0 1-15.1-5.71l-3.72-1.82a187 187 0 0 1-12.59-7.05 369 369 0 0 0-14.19-8.13 380 380 0 0 1-14-8 478 478 0 0 0-16.77-9.51 536 536 0 0 1-26.3-15.4c-11.22-6.9-22.68-13.38-34.12-19.9a2078 2078 0 0 1-26.25-15.2l-2.52-1.48a807 807 0 0 1-13.82-8.4 613 613 0 0 0-20.28-11.86c-13.65-7.75-27.28-15.56-40.44-24.12a95 95 0 0 0-10.56-5.88c-7.67-3.73-14.8-8.28-22.04-12.77a1232 1232 0 0 0-40.32-23.7A672 672 0 0 1 1873 2913a1387 1387 0 0 0-38.15-22.37 3364 3364 0 0 1-52.93-30.9l-9.58-5.64q-5.18-3.03-10.34-6.1-1.47-.85-2.96-1.74l-9.92-5.87-3.13-1.85c-15.67-9.35-28.86-19.45-37.99-35.53l-1.62-2.64c-8.43-14.33-8.97-28.01-8.9-44.16l-.02-6.6q-.02-9 0-18.02.01-9.76-.02-19.48-.03-17.97-.02-35.93v-44.39q-.03-31.24 0-62.48v-21.48q.03-37.26-.02-74.51-.05-41.9-.03-83.8v-11.16l-.02-33.16q-.03-18.89 0-37.75.02-9.62 0-19.24-.02-8.82.01-17.64v-6.36c-.14-23.32 5-42.24 20.64-60.2l1.73-2.12c7.48-8.38 17.61-13.41 27.27-18.88l2.84-1.61 11.58-6.53a935 935 0 0 0 26.12-15.37q18.33-11.12 36.86-21.83 20.93-12.1 41.56-24.68l7.42-4.53 5.46-3.33a391 391 0 0 1 18.83-10.86q4.15-2.28 8.14-4.82c6.92-4.31 13.93-8.44 20.95-12.58q8.14-4.8 16.24-9.67 6.63-4 13.37-7.81c13.56-7.68 26.84-15.85 40.15-23.95l1.9-1.16 9.1-5.55a419 419 0 0 1 16.54-9.65c2.8-1.54 5.5-3.2 8.2-4.88q.81-.52 1.67-1.04 3.97-2.47 7.91-4.95a478 478 0 0 1 22.22-12.95c14.57-8.1 28.82-16.68 43-25.45q4.5-2.73 9.06-5.36 5.81-3.36 11.44-7A231 231 0 0 1 2144 1948c8.2-4.36 16.11-9.1 24-14q4.99-3.02 10-6l1.97-1.18 6.72-4.01 2.16-1.3c12.53-7.42 25.36-10.97 39.82-11.63"/><path fill="#313a4a" fill-rule="evenodd" d="m715.12 1745.47 4.37-.03q5.86-.03 11.72-.01l9.85-.01h23.26q11.93.02 23.87-.02 10.3-.04 20.61-.03 6.14 0 12.26-.02 5.78-.02 11.54 0 2.1.03 4.2 0c17.24-.14 32.6 5.6 45.2 17.65 1.67 2.13 3.2 4.2 4.7 6.44q.54.82 1.13 1.66c4.08 6.02 6.64 11.56 7.83 18.74l.4 2.26c1.22 7.83 1.35 15.58 1.3 23.49l.01 4.78q0 6.5-.02 12.99v14.06l-.03 24.3q-.04 17.59-.04 35.16a108452 108452 0 0 1-.12 112.42v20.61q-.06 71.05-.16 142.09c3.67 1.03 3.67 1.03 7.15-.11l2.22-1.76c5.91-4.4 12.1-8.14 18.45-11.84q3.4-2.02 6.8-4.07c52.43-31.26 113.82-46.86 174.38-50.22l5.57-.34a481 481 0 0 1 119.16 7.85A346 346 0 0 1 1247 2125l3.01.7a387 387 0 0 1 49 15.3l2.61.99a388 388 0 0 1 111.38 65l1.86 1.55c5.73 4.75 11.38 9.5 16.56 14.88a86 86 0 0 0 5.2 4.7A198 198 0 0 1 1463 2256l4.06 5.07 1.98 2.48q1.94 2.43 3.92 4.84c8.43 10.34 15.68 21.5 23.04 32.6l1.36 2.02a256 256 0 0 1 10.58 17.18l1.58 2.78A374 374 0 0 1 1521 2345l2.12 4.32.91 1.82c1.14 2.18 2.37 4.3 3.6 6.43 2.1 3.73 3.26 7.28 4.37 11.43q2.29 5.66 5.07 11.08c1.07 2.2 1.66 4.45 2.3 6.8 1.04 3.52 2.35 6.92 3.62 10.35q1.35 3.74 2.57 7.52c.88 2.7 1.84 5.15 3 7.75a55 55 0 0 1 2.97 10.45c.43 2.16.43 2.16 1.47 4.49 1.3 3.32 1.84 6.67 2.5 10.16.47 2.5.47 2.5 1.5 5.28 1.27 3.96 1.83 7.92 2.44 12.03.52 3.17.52 3.17 1.56 6.48a69 69 0 0 1 2 11.43c.5 4.4 1.07 8.66 2 13 1.12 5.43 1.62 10.85 2.06 16.37l.47 5.67.2 2.49q.31 3 .76 6c1.86 13.47 1.75 27.26 1.76 40.84v2.76c.01 15.44-.98 30.49-2.87 45.82-.69 5.88-1.17 11.78-1.65 17.68A66 66 0 0 1 1563 2637c-.55 3.27-1 6.54-1.44 9.82a62 62 0 0 1-2.56 9.18q-.46 2.63-.8 5.25c-1.22 7.59-3.34 14.85-5.47 22.2q-1.16 4.1-2.29 8.17l-1.57 5.63-.73 2.67A65 65 0 0 1 1543 2713a81 81 0 0 0-1.5 4.82 187 187 0 0 1-13.12 33.42 111 111 0 0 0-3.07 6.64c-2.33 5.54-5.19 10.74-8.13 15.97q-1.37 2.52-2.62 5.09c-1.82 3.57-3.89 6.95-5.97 10.37a198 198 0 0 0-4.4 7.94c-5.33 9.86-11.58 19.14-18.25 28.13a327 327 0 0 0-3.76 5.19A350 350 0 0 1 1454 2865l-2.43 2.7c-10.34 11.47-20.98 22.8-33.13 32.37a129 129 0 0 0-6.88 5.93c-5.25 4.7-10.87 8.85-16.56 13l-2.12 1.56c-21.68 15.89-44.55 28.96-68.47 41.2a480 480 0 0 0-5.93 3.12c-6.84 3.59-13.87 6.13-21.16 8.6a266 266 0 0 0-15.66 6.13A171 171 0 0 1 1268 2984l-2.5.74c-10.27 3-20.55 5.87-30.94 8.39q-3.33.81-6.65 1.7c-6.99 1.9-13.86 2.89-21.05 3.65-3.83.44-3.83.44-7.38 1.45-6.5 1.7-13.25 2.34-19.92 3.14l-2.22.26A373 373 0 0 1 1137 3006l-2 .03q-15.96.15-31.92-.01l-5.75-.04c-35.92-.3-73.55-4.94-108.33-13.98l-1.94-.5a839 839 0 0 1-23.58-6.5l-7.15-2.03-3.64-1.03-3.24-.91c-32.79-9.76-64.98-25-94.59-41.96l-3.7-2.11a377 377 0 0 1-62.4-44.42 410 410 0 0 0-5.48-4.7c-11.57-9.81-22.59-20.07-32.02-32.01a220 220 0 0 0-6.55-7.76c-11.45-13.14-21.27-27.06-30.38-41.91a551 551 0 0 0-3.58-5.72c-7.57-12.05-13.93-24.56-19.89-37.46a210 210 0 0 0-3.9-7.98 106 106 0 0 1-5.02-12l-.74-2-1.47-4q-1.1-3.01-2.25-6.02a320 320 0 0 1-4.67-13.6c-.9-2.72-1.82-5.4-2.9-8.06a38 38 0 0 1-1.9-6.75 69 69 0 0 0-2-7.57 89 89 0 0 1-2.5-9.8 80 80 0 0 0-1.5-5.45 117 117 0 0 1-2.5-13.5c-.43-2.7-.93-5.33-1.5-8-1.23-5.91-1.85-11.88-2.5-17.88q-.45-3.95-1-7.9c-3.57-25.18-3.8-50.73-3.77-76.12v-12.25q-.03-10.68-.02-21.35v-31.76q-.03-30-.02-60.01v-63.05l-.02-93.34v-32.06q.01-55.68-.02-111.37-.03-62.64-.02-125.27v-16.67l-.02-49.62v-131.9l-.02-5.76c.07-11.21 2.32-20.48 8.4-29.94l1.2-1.98c12.16-18.26 34.17-24.66 54.92-24.55m396.73 585.45q4.08-.05 8.15.09l3.83.08c28.08.9 56.95 7.43 82.17 19.92l4 1.89c53.01 25.52 93.27 70.8 113.06 125.98 20.41 58.49 17.01 123.7-9.53 179.7-24.86 50.74-69.94 94.78-123.95 113.29q-3.28 1.1-6.58 2.14l-2.13.68c-13.05 4.09-26.36 6.32-39.87 8.32l-3.3.53c-4.09.5-8.07.66-12.19.7l-2.44.03c-26.2.26-50.77-2.01-76.07-9.26l-2.16-.62C1010 2764.35 975.8 2744.83 951 2718v-2l-3-1c-6.48-6.12-11.66-13.88-17-21l-1.85-2.43c-16.18-22.1-26.66-48.28-33.6-74.57q-.7-2.5-1.43-5.01c-6.62-23.7-7.68-50.6-5.12-75l.31-3.02c2.52-22.76 7.44-44.95 16.7-65.97l1.01-2.4A236 236 0 0 1 925 2432l1.64-2.77c4.92-8.18 11.01-15.15 17.36-22.23q.75-.86 1.54-1.73c25.34-28.41 59.67-51.58 96.46-62.27l2.8-.83c22.16-6.45 43.98-10.56 67.05-11.26"/><path fill="#313a4a" d="m3776.44 2132.61 4.54-.02 12.24.01h12.88l21.63.01h24.9q10.73-.02 21.47-.02h12.8l12.02.01h4.38c19.06-.08 35.26 3.42 49.48 17.02 12.5 13.43 17.1 30.34 22.31 47.44 1.61 5.24 3.25 10.4 5.41 15.44 2.44 5.7 4.23 11.57 6 17.5 2.51 8.73 2.51 8.73 6.06 17.06a40 40 0 0 1 2.91 8.8 94 94 0 0 0 5.03 14.64 90 90 0 0 1 2.87 7.56l.8 2.4.83 2.54 1.71 5.15 4.44 13.3 1.68 5.1.8 2.42q.33 1.05.7 2.14c.7 2.11.7 2.11 2.17 4.9 3.85 7.7 5.93 16.4 8.25 24.67A46 46 0 0 0 4030 2353c.78 2.07 1.44 4.17 2.11 6.28q1.61 4.89 3.4 9.72a339 339 0 0 1 6.8 20.56c1.57 5.31 3.53 10.45 5.5 15.62q2.36 6.18 4.41 12.48 1.58 4.69 3.28 9.34 2.11 5.81 4.06 11.7c1.7 5.13 3.57 10.21 5.44 15.3l2 5.5 1 2.75 4 11 2.03 5.53a242 242 0 0 1 5.25 15.87 127 127 0 0 0 5.22 13.8 157 157 0 0 1 5.87 17.3c1.85 6.22 4.25 12.21 6.63 18.25a497 497 0 0 1 13.56 40.31c1.04 3.5 2.24 6.9 3.55 10.3 2.12 5.74 3.97 11.58 5.9 17.4q1.07 3.27 2.18 6.55l1.96 6c3.94 14.78 3.94 14.78 13.85 25.44 5.3.72 10.35.93 15-2 3.01-3.72 4.43-7 5.44-11.67.92-3.87 2.27-7.6 3.55-11.37q1.65-4.9 3.2-9.83c.81-2.13.81-2.13 2.22-4.9a95 95 0 0 0 4.4-11.04l1.57-4.52.8-2.33q2.34-6.7 4.72-13.37c1.5-4.2 2.91-8.4 4.32-12.64a702 702 0 0 1 11.67-32.49 524 524 0 0 0 6.73-18.52c2.9-8.34 5.84-16.63 9.06-24.85 1.7-4.46 3.25-8.97 4.82-13.47a528 528 0 0 1 7.18-19.6q2.47-6.43 4.82-12.9a765 765 0 0 1 6-15.94 635 635 0 0 0 11.81-33.64c1-2.76 2.38-5.3 3.7-7.92a193 193 0 0 0 2.18-6.55c1.48-4.53 3.16-8.98 4.81-13.45l1.63-4.47c2.57-7 5.15-14.02 7.87-20.97 2.46-6.34 4.68-12.76 6.91-19.19a454 454 0 0 1 6.33-17.08 486 486 0 0 0 5.11-14.29c1.15-3.3 2.34-6.54 3.73-9.74a87 87 0 0 0 2.92-7.57l.74-2.28a364 364 0 0 0 3.01-10.25c.75-2.16.75-2.16 2.75-5.16q.78-2.01 1.43-4.06l.78-2.4 2.3-7.6c1.61-5.48 3.38-10.79 6-15.88 1.9-3.9 3.16-7.92 4.5-12.06q.98-2.97 2-5.94 2.24-6.8 4.27-13.7c1.15-3.82 2.42-7.59 3.72-11.36l.9-2.66c5.88-16.82 14.93-31.83 31.35-40.06l2.75-1.28 2.5-1.19c11.2-4.9 22.86-5.1 34.91-5.09h4.53q6.1-.04 12.21-.02h10.23l24.14-.02q12.41.02 24.83-.03l34.14-.03h16.36c10.44-.06 20.51.52 29.52 6.32l2.34 1.46c9.92 6.93 15.73 16.78 18.3 28.6 1.12 12-3.1 22.94-7.7 33.81l-2.2 5.3-2.4 5.78q-4.17 10.01-8.28 20.04l-2 4.92a4161 4161 0 0 0-17.3 42.82 5913 5913 0 0 1-18.63 46.08 4293 4293 0 0 0-15.9 39.25q-5.53 13.8-11.1 27.56l-.99 2.43q-6.45 15.93-13.1 31.78a660 660 0 0 0-7.4 18.6c-4.33 11.24-9.12 22.27-13.89 33.32a1254 1254 0 0 0-18.8 45.9q-3.74 9.6-7.57 19.16l-.78 1.95a685 685 0 0 1-10.34 24.54c-3.45 7.82-6.49 15.81-9.63 23.76a2009 2009 0 0 1-14.28 35.05q-4.62 11.1-9.03 22.28c-1.67 4.2-3.4 8.33-5.32 12.42a180 180 0 0 0-5.72 14.22c-3 8.11-6.32 16.1-9.6 24.1a792 792 0 0 0-7.96 20.11 177 177 0 0 1-4.07 9.52c-1.6 3.6-3.09 7.26-4.58 10.92a302 302 0 0 1-3.78 8.44 335 335 0 0 0-7.85 19.13q-5.4 13.92-11.19 27.68a314 314 0 0 0-8.59 22.32c-1.03 2.81-1.03 2.81-2.48 5.7a101 101 0 0 0-4.43 10.8 208 208 0 0 1-6.92 16.63 152 152 0 0 0-3.52 8.68 484 484 0 0 1-6.75 16.75l-.99 2.36a612 612 0 0 1-5 11.47A179 179 0 0 0 4276 2907a202 202 0 0 1-6.02 14.8q-1.44 3.23-2.73 6.52l-1.05 2.66-1.2 3.02-2.88 7.2-1.55 3.85-3.15 7.9-.78 1.94-1.53 3.81-3.3 8.31-1.07 2.66-.9 2.25a248 248 0 0 1-3.72 8.55 309 309 0 0 0-10.95 27.47 49 49 0 0 1-4.17 8.06q-1.29 3.1-2.44 6.25a253 253 0 0 1-8.19 19.18l-1.8 3.82-.94 1.96c-1.87 4-3.5 8.01-5 12.16-4.12 11.01-10.09 21.32-16.24 31.3a184 184 0 0 0-4.39 7.9 134 134 0 0 1-7.37 11.98 243 243 0 0 0-13.43 22.45c-1.52 2.53-3.34 4.71-5.2 7l-4.69 6.12c-7.9 10.28-16.18 20-25.08 29.42a206 206 0 0 0-7.1 7.96 78 78 0 0 1-8.85 8.53c-2.22 1.91-4.34 3.9-6.46 5.92a137 137 0 0 1-19.07 14.9q-2.8 1.84-5.59 3.72-4.62 3.1-9.27 6.16a216 216 0 0 0-3.99 2.73 113 113 0 0 1-17.22 9.54l-5.56 2.6-2.67 1.24a290 290 0 0 0-9.33 4.66 57 57 0 0 1-12.12 4.5l-3 2q-2.47.77-4.98 1.44a103 103 0 0 0-14.52 5.12 51 51 0 0 1-10.29 2.91c-2.29.5-2.29.5-4.65 1.52a36 36 0 0 1-7.94 2.01 69 69 0 0 0-8.99 2 71 71 0 0 1-11.45 2 123 123 0 0 0-12.85 1.98c-4.95 1-9.8 1.53-14.84 1.87l-2.67.2-5.58.38-8.25.6c-23.87 1.71-47.65.91-71.53-.2q-5.54-.27-11.12-.49l-8.73-.4-6.06-.26c-7.03-.34-13.7-1.03-20.55-2.68l-2.82-.64c-13.62-3.8-24.08-12.25-31.18-24.36-4.75-10.03-4.6-20.03-4.6-30.86l-.06-5.5q-.07-7.24-.08-14.47-.03-7.18-.1-14.37-.11-13.83-.15-27.66a5101 5101 0 0 0-.09-21.18q0-2.93-.03-5.87c-.02-18.23 3-32.89 15.11-47.09a57 57 0 0 1 10-7l1.95-1.2c13.72-7.76 31.04-6.86 46.23-5.3 5.46.51 10.88.7 16.36.74l2.95.02 6.15.03q3.08.02 6.14.06c36.94.54 71-8.89 98.01-35.05 17.9-18 29.02-40.19 36.54-64.17a144 144 0 0 1 5.22-14.69c7-16.64 7.13-32.94.54-49.76q-1.5-3.36-3.09-6.68a294 294 0 0 1-10.66-26.28c-4.4-12.74-9.08-25.36-14.86-37.54-4.94-10.62-9.06-21.62-13.23-32.56-6.79-17.74-13.74-35.43-21.62-52.72-1.94-4.28-3.73-8.6-5.46-12.97q-2.08-5.2-4.24-10.4l-.84-2.03-1.75-4.24q-7-16.93-13.9-33.89l-1.34-3.27-6.37-15.69-3.98-9.85-.82-2q-7.19-17.7-14.59-35.3a1627 1627 0 0 1-12.85-31.54 912 912 0 0 0-8.33-20.2c-3.72-8.82-7.35-17.67-10.98-26.52l-2.1-5.13q-6.67-16.27-13.28-32.57-4.96-12.15-10.04-24.25-5.39-12.96-10.65-25.97-4.6-11.28-9.3-22.52-4.89-11.66-9.57-23.42-4.82-12.11-9.74-24.2l-.87-2.13q-4.77-11.82-9.76-23.56c-3.74-8.78-7.19-17.66-10.66-26.55-3.86-9.87-7.9-19.65-12-29.42a1074 1074 0 0 1-8.2-20.28l-3.64-9.06-2.06-5.15-5.04-12.58q-4.23-10.54-8.43-21.1l-1.73-4.33q-2.7-6.82-5.43-13.64l-1.74-4.38-2.43-6.1-1.4-3.54c-4.27-11.93-3.4-26.69 1.9-38.12a50 50 0 0 1 7-9l1.8-1.9c12.7-12.1 28.77-14.57 45.63-14.49m-880.62.12 4.8-.02 13.02-.01 10.9-.01h25.74l26.46-.03q11.39-.03 22.79-.02l13.57-.01q6.4-.02 12.8 0l4.66-.01c12.86-.06 26.1.72 37.63 7l2 1.06c10.5 5.69 18.86 12.53 25.8 22.32l1.7 2.33c4 5.6 7.75 11.34 11.55 17.07 3.14 4.72 6.4 9.3 9.77 13.87 3.38 4.63 6.6 9.37 9.86 14.09l5.5 7.96q3.7 5.32 7.36 10.67a740 740 0 0 0 14.3 20.3c3 4.15 5.9 8.37 8.8 12.58q3.74 5.4 7.5 10.76l3.3 4.72q5.8 8.27 11.68 16.48 3.69 5.16 7.32 10.36 4.7 6.7 9.58 13.27a52 52 0 0 1 3.24 4.97c1.87 3.1 3.98 6.02 6.12 8.95a458 458 0 0 1 10.68 15.5c6.14 10.23 6.14 10.23 14.75 18.12 2.88.48 2.88.48 5.94.38l3.09.02c4.87-.65 7.2-2.52 10.4-6.18l2.45-3.28 1.32-1.76q4.6-6.18 8.96-12.51a649 649 0 0 1 16.36-22.7c3.22-4.27 6.34-8.63 9.48-12.97a1104 1104 0 0 0 6-8.25l30-41.25 2.02-2.77 3.8-5.23q4.6-6.3 9.16-12.63 8.82-12.3 17.92-24.38 4.87-6.47 9.47-13.13c3.79-5.45 7.75-10.78 11.67-16.14q4.8-6.53 9.4-13.22l3.56-5 1.95-2.71c12.19-16.01 30.48-24.9 50.05-28.3 5.24-.4 10.44-.4 15.68-.37l4.59-.02h47.08q12.54.04 25.08 0h51.04c13.55-.05 25.29 1.42 36.53 9.4l3.25 2.25a40.7 40.7 0 0 1 12.13 28.19c-.43 14.74-7.8 24.7-17 35.7-6.33 7.62-12.2 15.62-18.13 23.55a1716 1716 0 0 1-26.18 33.88l-1.38 1.74-5.53 7.03c-3.58 4.54-7 9.18-10.41 13.85a626 626 0 0 1-21.8 27.98 244 244 0 0 0-13.22 17.36c-3.3 4.73-6.9 9.25-10.44 13.8l-3.73 4.87a787 787 0 0 1-15.45 19.6 144 144 0 0 0-8.11 11.2q-2.7 3.75-5.5 7.44l-1.58 2.1a503 503 0 0 1-11.1 14.15 248 248 0 0 0-12.6 17.12c-4.41 6.35-9.23 12.4-14.02 18.48a565 565 0 0 0-11.8 15.72 1684 1684 0 0 1-23.15 30.8A634 634 0 0 0 3402 2508l-1.64 2.25c-5.57 7.9-10.12 16.93-10.36 26.75l-.11 3.18c-.44 22.02 8.08 35.97 21.1 52.82l2.45 3.17 3.58 4.64a733 733 0 0 1 24.92 34.24q3.1 4.41 6.38 8.7c5.76 7.6 11.2 15.44 16.68 23.25l6.38 9.07 1.44 2.05q4.31 6.12 8.83 12.08c3.18 4.22 6.25 8.52 9.35 12.8l1.52 2.1c11.13 15.36 11.13 15.36 15.05 21.03q3.58 5.13 7.38 10.09a697 697 0 0 1 18.04 25.13 1434 1434 0 0 0 21.17 29.6c7.08 9.7 13.98 19.53 20.86 29.36 4.87 6.96 9.8 13.85 14.92 20.63a949 949 0 0 1 27.25 38.02q5.4 7.94 10.94 15.79l1.48 2.1a385 385 0 0 0 7.38 10.13c9.75 12.93 16.6 24.27 15 41.02-2.81 11.43-8.67 20.43-18.5 26.94-12.63 7.39-24.76 7.22-39.12 7.2l-4.67.02h-12.62l-7.91.02h-27.62q-12.83 0-25.67.04h-22.11q-6.6 0-13.17.03h-16.92c-22.63.09-41.56-4.85-58.3-20.8A71 71 0 0 1 3397 2951l-2.26-3.37q-2.6-3.87-5.16-7.76a558 558 0 0 0-7.08-10.37 1063 1063 0 0 1-13.32-19.72l-7.24-10.87-3.96-5.96a878 878 0 0 0-15.73-22.82 841 841 0 0 1-15.67-22.74 770 770 0 0 0-10.3-15.07c-2.5-3.61-4.91-7.27-7.34-10.94a384 384 0 0 0-11.08-15.85 653 653 0 0 1-17.64-25.7l-5.34-8.01-9.6-14.38a751 751 0 0 1-5.31-8.1l-1.61-2.44-3.14-4.84q-.74-1.1-1.48-2.25l-1.31-2c-3.77-4.77-7.4-5.54-13.18-6.31-4.55.13-6.9 1.88-10.11 4.99-4.62 5.43-8.35 11.49-12.14 17.5l-3.43 5.45-1.67 2.64c-3.7 5.7-7.6 11.25-11.45 16.83l-7.07 10.28q-5.09 7.39-10.2 14.75a747 747 0 0 0-8.72 12.89c-2.75 4.1-5.61 8.13-8.46 12.17l-5.25 7.5q-1.72 2.49-3.46 4.93a592 592 0 0 0-9.04 13.2 945 945 0 0 1-9.43 13.94l-1.4 2q-1.43 2.1-2.9 4.2l-8.2 11.98-1.7 2.46q-4.38 6.43-8.68 12.92c-3.18 4.8-6.48 9.5-9.81 14.19a629 629 0 0 0-11.25 16.3l-1.23 1.85a626 626 0 0 0-6.1 9.38c-10.81 16.83-23.55 30.45-43.55 36.15-9.74 2.03-19.38 2.29-29.3 2.25h-4.77l-12.86-.01-13.52-.01-22.67-.02-26.17-.02-27.95-.02h-8.02l-12.61-.02h-4.62c-16.97 0-30.46-1.51-43.2-13.77-7.1-7.67-9.63-16.65-9.46-26.95.89-14.37 8.94-24.21 17.15-35.43l3.82-5.25 1.94-2.66a2212 2212 0 0 0 21.24-29.6 1318 1318 0 0 1 26.56-36.52c3.56-4.73 6.99-9.55 10.38-14.4 4.6-6.6 9.42-13.02 14.34-19.4q5.76-7.49 11.2-15.22 3.85-5.44 7.9-10.76c3.63-4.8 7.1-9.7 10.56-14.62a445 445 0 0 1 13.37-18.06 933 933 0 0 0 23.08-31.45q5.1-7.13 10.3-14.17 5.42-7.39 10.75-14.82 6.9-9.6 14.04-19.02 5.69-7.58 11.2-15.3a948 948 0 0 1 12.89-17.5c3.78-5.02 7.48-10.11 11.2-15.18q5.14-6.99 10.48-13.82a272 272 0 0 0 13.66-19.55l2.95-4.52c7.75-12.2 9.72-26.07 6.86-40.25-5.22-21.3-19.18-38.24-32.42-55.24a936 936 0 0 1-19.61-26.44 1246 1246 0 0 0-30.76-40.87 389 389 0 0 1-11.38-15.4 353 353 0 0 0-9.74-13.03 452 452 0 0 1-8.93-11.95c-5.14-7.06-10.44-14-15.75-20.94q-6.82-8.92-13.44-18-6.61-9.06-13.57-17.85a888 888 0 0 1-10.68-13.77l-1.66-2.18-3.25-4.25q-3.35-4.39-6.71-8.76l-2.43-3.16-4.77-6.14a612 612 0 0 1-13.87-18.63 702 702 0 0 0-19.16-25.3q-5.84-7.47-11.6-15.02l-1.46-1.93c-6.22-8.13-12.28-16.25-17.53-25.07l-1.87-2.93c-3.91-10.64-2.11-21.17 2.5-31.2 6.34-11.84 16.03-17.77 28.6-21.94 6.73-1.61 13.72-1.21 20.59-1.2"/><path fill="#fff" d="M2233.34 2032.54q5.2 2.85 10.29 5.9l4.6 2.74a664 664 0 0 0 11.32 6.59c8.83 5.06 17.53 10.3 26.2 15.6a863 863 0 0 0 29.1 17.03 715 715 0 0 1 20.54 12.02q9.6 5.79 19.3 11.4 14.04 8.17 27.95 16.57 12.3 7.38 24.69 14.55 9.41 5.48 18.74 11.13c6.9 4.17 13.89 8.18 20.93 12.12a818 818 0 0 1 27.72 16.34 1437 1437 0 0 0 28.24 16.79q9.04 5.24 17.9 10.76a455 455 0 0 0 25.39 14.74c8.2 4.4 16 9.48 23.9 14.4l8.67 5.38 2.85 1.76 5.4 3.33c3.48 2.15 6.94 4.3 10.32 6.58a73 73 0 0 0 8.6 4.73c1 1 1 1 1.08 3.57l-.07 2.43-2.74 1.33c-6.31 3.07-12.35 6.19-18.12 10.2a125 125 0 0 1-7.01 4.4q-5.06 3-10 6.2c-14.4 9.19-29.2 17.69-44.04 26.09a581 581 0 0 0-20.38 12.1q-3.06 1.91-6.21 3.68c-3.4 1.9-6.7 3.96-10 6a340 340 0 0 1-13.5 8q-7.63 4.35-15.18 8.82a2180 2180 0 0 1-14.75 8.62c-7.43 4.33-14.74 8.85-22.07 13.34a356 356 0 0 1-17.43 10.16 162 162 0 0 0-11.07 6.56 181 181 0 0 1-13.48 7.84c-4.2 2.3-8.28 4.79-12.38 7.26a944 944 0 0 1-15.05 8.9l-5.23 3.09a199 199 0 0 1-5.48 3.16 182 182 0 0 0-9.13 5.63c-3.6 2.3-7.22 4.48-11 6.5a277 277 0 0 0-12.43 7.12c-17.94 10.85-36.15 21.23-54.35 31.6l-3.17 1.82-4.95 2.8a236 236 0 0 0-10.78 6.53l-2.91 1.86-2.16 1.39a363 363 0 0 1-18.5-10.5 415 415 0 0 0-18.5-10.5c-20.08-10.78-20.08-10.78-27.81-16.46-3.18-2.23-6.57-4-10-5.8a347 347 0 0 1-11.7-6.74 354 354 0 0 0-14.05-8c-5.34-2.86-10.42-6.1-15.53-9.32a211 211 0 0 0-14-8.05c-3.71-2.07-7.26-4.35-10.84-6.63a167 167 0 0 0-17.4-9.64 80 80 0 0 1-9.4-5.86 95 95 0 0 0-7.77-4.5 101 101 0 0 1-10-6 135 135 0 0 0-12.74-7.5q-3.93-2.15-7.76-4.5a241 241 0 0 0-10.5-6q-6.66-3.61-13.11-7.57a192 192 0 0 0-6.7-3.8c-4.83-2.66-9.5-5.56-14.18-8.46-14.36-8.9-28.87-17.66-43.74-25.66a476 476 0 0 1-28.1-16.53q-11.68-7.46-23.65-14.45a752 752 0 0 1-25.33-15.52 79 79 0 0 0-5.7-3.01c.54-4.54.54-4.54 2.59-6.51l2.1-1.3 2.49-1.53q6.45-3.77 12.96-7.45a929 929 0 0 0 30.36-18.04 1238 1238 0 0 1 37.5-22.17 1453 1453 0 0 0 39.4-23.28 2081 2081 0 0 1 57.77-34.21c8.97-5.11 17.8-10.45 26.65-15.78a3295 3295 0 0 1 42.86-25.27 3762 3762 0 0 0 44.15-26.14c25.92-15.58 25.92-15.58 38-22.2 10.72-5.86 21.15-12.22 31.6-18.56l2.58-1.56 2.69-1.73c2.3-1.27 2.3-1.27 4.65-.73M1811 2369c3.72.55 6.06 1.48 9.09 3.69 5.23 3.62 10.74 6.45 16.41 9.31 6.45 3.25 12.61 6.6 18.56 10.69 3.15 2.12 6.5 3.8 9.87 5.52a93 93 0 0 1 7.54 4.98c6.25 4.42 12.86 8.13 19.53 11.87l7.25 4.1 3.48 1.97A520 520 0 0 1 1916 2429a418 418 0 0 0 18.02 10.38 549 549 0 0 1 26.34 15.37A673 673 0 0 0 1995 2475a620 620 0 0 1 28.25 16.33q7.95 4.82 15.94 9.61l3.15 1.9a468 468 0 0 0 15.66 9.06c3.51 1.93 6.99 3.94 10.47 5.93q4.6 2.65 9.23 5.25a228 228 0 0 1 17.23 10.56c2.81 1.85 5.74 3.42 8.69 5.02 2.66 1.5 5.2 3.12 7.76 4.78 4.45 2.87 8.99 5.46 13.67 7.96a528 528 0 0 1 22.14 12.72q5.08 3.07 10.31 5.88l5.5 3 2.81 1.54 2.69 1.52 2.41 1.35c2.72 2.07 3.66 3.43 5.09 6.59.44 3.63.4 7.25.37 10.91l.01 3.37-.02 11.24v8.06q.01 9.84-.02 19.69l-.02 23.16q0 20.82-.04 41.64-.03 19.9-.04 39.83v12.2c-.02 65.97-.11 131.94-1.24 197.9-3.1.99-3.71 1.13-6.82-.3l-3.3-2.01a473 473 0 0 0-5.81-3.47 292 292 0 0 0-8.47-4.75 639 639 0 0 1-23.38-13.52q-11.07-6.68-22.22-13.2l-1.86-1.09a2819 2819 0 0 0-30.61-17.64 2863 2863 0 0 1-34.32-19.96q-7.37-4.33-14.76-8.62a2089 2089 0 0 1-27.36-16.18q-10.97-6.59-22.02-13.05l-6.24-3.67q-10.91-6.44-21.89-12.79c-32.75-18.94-32.75-18.94-44-25.93a946 946 0 0 0-31.63-18.63c-14.48-8.24-28.87-16.61-42.85-25.67-3.58-2.21-7.3-4.15-11.05-6.06-3.75-2.27-6.01-4.27-7.41-8.46q-.13-3.03-.13-6.06l-.01-3.87.01-4.27-.01-4.52-.01-12.44-.01-13.41-.01-26.29v-21.35l-.02-60.5v-6.6q.01-26.49-.02-52.98l-.02-54.35-.01-30.54-.01-25.99v-25.41l-.01-4.4.01-5.96v-3.35c.25-2.71.25-2.71 2.25-5.71m838-1c2.62.38 2.62.38 5 1q.14 70.57.2 141.15l.02 16.66v3.35l.09 53.72q.06 27.55.07 55.11 0 17.01.05 34.02.03 11.65.02 23.31l.03 13.46q.03 6.15 0 12.31l.02 4.46q.02 3.03-.01 6.06l.01 3.4c-.71 4.23-2.8 6.74-6.23 9.25l-1.75.92-2.05 1.1-2.22 1.16-4.89 2.64-2.64 1.43c-4.77 2.62-9.46 5.37-14.16 8.11l-3.04 1.78a7641 7641 0 0 0-39.68 23.48l-8.84 5.24-2.58 1.54a471 471 0 0 1-15.94 9c-17.98 9.75-35.54 20.34-53.04 30.9-9 5.44-18.1 10.67-27.27 15.81a533 533 0 0 0-19.27 11.4c-9.16 5.65-18.48 11.02-27.79 16.42l-9.24 5.39a2014 2014 0 0 1-25.85 14.95 1181 1181 0 0 0-33.23 19.76 2255 2255 0 0 1-37.57 22.41l-4.72 2.77-7.75 4.53-2.42 1.42c-3.7 2.15-7.28 4.15-11.33 5.58-2.39-1.81-2.96-2.71-3.38-5.73l-.01-3.39-.03-3.9.02-4.32-.02-4.56-.02-12.57q0-6.78-.03-13.55l-.03-26.55-.02-21.58q-.04-30.56-.04-61.12v-6.67q.01-26.76-.07-53.52-.06-27.46-.06-54.92.01-15.42-.04-30.85-.04-13.12-.01-26.26.02-6.7-.02-13.4-.03-6.14.01-12.27.01-2.22-.02-4.44c-.11-11.06-.11-11.06 2.05-14.35 1.58-1.36 1.58-1.36 4.72-3.05l3.05-1.67 3.26-1.52c7.87-3.77 15.31-8.2 22.79-12.68q3.43-2.03 6.91-3.99 6.79-3.91 13.55-7.89 10.03-5.88 20.13-11.63 6.2-3.52 12.25-7.31c7.07-4.4 14.34-8.44 21.6-12.52a380 380 0 0 0 18.35-10.91c2.74-1.66 5.5-3.2 8.32-4.72 5.48-2.97 10.87-6.1 16.23-9.28l2.86-1.7q10.76-6.4 21.48-12.85 9.29-5.59 18.67-11.03c2.84-1.67 5.62-3.35 8.34-5.21 3.63-2.37 7.38-4.39 11.2-6.45 5.17-2.82 10.24-5.79 15.32-8.76l3.17-1.84c6.06-3.52 6.06-3.52 11.95-7.31 2.41-1.62 4.82-3 7.38-4.35 7.1-3.83 14.02-7.95 20.96-12.06q5.45-3.23 10.92-6.44l2.13-1.26q6.75-3.97 13.56-7.81 7.47-4.26 14.7-8.94a653 653 0 0 1 32.52-19.32l5.54-3.14 3.27-1.84c2.64-1.46 2.64-1.46 4.59-3.57"/><path fill="#ffdead" d="M1811 2369c3.72.55 6.06 1.48 9.09 3.69 5.23 3.62 10.74 6.45 16.41 9.31 6.45 3.25 12.61 6.6 18.56 10.69 3.15 2.12 6.5 3.8 9.87 5.52a93 93 0 0 1 7.54 4.98c6.25 4.42 12.86 8.13 19.53 11.87l7.25 4.1 3.48 1.97A520 520 0 0 1 1916 2429a418 418 0 0 0 18.02 10.38 549 549 0 0 1 26.34 15.37A673 673 0 0 0 1995 2475a620 620 0 0 1 28.25 16.33q7.95 4.82 15.94 9.61l3.15 1.9a468 468 0 0 0 15.66 9.06c3.51 1.93 6.99 3.94 10.47 5.93q4.6 2.65 9.23 5.25a228 228 0 0 1 17.23 10.56c2.81 1.85 5.74 3.42 8.69 5.02 2.66 1.5 5.2 3.12 7.76 4.78 4.45 2.87 8.99 5.46 13.67 7.96a528 528 0 0 1 22.14 12.72q5.08 3.07 10.31 5.88l5.5 3 2.81 1.54 2.69 1.52 2.41 1.35c2.72 2.07 3.66 3.43 5.09 6.59.44 3.63.4 7.25.37 10.91l.01 3.37-.02 11.24v8.06q.01 9.84-.02 19.69l-.02 23.16q0 20.82-.04 41.64-.03 19.9-.04 39.83v12.2c-.02 65.97-.11 131.94-1.24 197.9-3.1.99-3.71 1.13-6.82-.3l-3.3-2.01a473 473 0 0 0-5.81-3.47 292 292 0 0 0-8.47-4.75 639 639 0 0 1-23.38-13.52q-11.07-6.68-22.22-13.2l-1.86-1.09a2819 2819 0 0 0-30.61-17.64 2863 2863 0 0 1-34.32-19.96q-7.37-4.33-14.76-8.62a2089 2089 0 0 1-27.36-16.18q-10.97-6.59-22.02-13.05l-6.24-3.67q-10.91-6.44-21.89-12.79c-32.75-18.94-32.75-18.94-44-25.93a946 946 0 0 0-31.63-18.63c-14.48-8.24-28.87-16.61-42.85-25.67-3.58-2.21-7.3-4.15-11.05-6.06-3.75-2.27-6.01-4.27-7.41-8.46q-.13-3.03-.13-6.06l-.01-3.87.01-4.27-.01-4.52-.01-12.44-.01-13.41-.01-26.29v-21.35l-.02-60.5v-6.6q.01-26.49-.02-52.98l-.02-54.35-.01-30.54-.01-25.99v-25.41l-.01-4.4.01-5.96v-3.35c.25-2.71.25-2.71 2.25-5.71m2 3c-1.04 3.42-1.13 6.56-1.14 10.13l-.01 3.84v4.22l-.02 4.48-.02 12.33-.03 13.28-.05 32.09-.01 9.06q-.05 28.12-.06 56.24l-.01 13.02v3.27q-.03 26.24-.09 52.48-.07 26.94-.07 53.86 0 15.13-.05 30.25-.04 12.88-.03 25.75.02 6.58-.02 13.15-.03 6.02 0 12.02l-.02 4.36q-.02 2.95.01 5.91v3.32c.97 4.59 3.97 6.8 7.71 9.39l2.06 1.16 2.33 1.33 2.46 1.37 2.54 1.45 7.52 4.24c7.08 3.99 14.09 7.98 20.81 12.58 3.29 2.13 6.73 3.95 10.18 5.8a495 495 0 0 1 26.71 15.61c3.52 2.14 7.08 4.18 10.68 6.2a104 104 0 0 1 10.62 6.62 57 57 0 0 0 9 5.19q3.36 1.89 6.69 3.81 6.38 3.7 12.87 7.19c6.31 3.41 12.35 7.22 18.44 11a616 616 0 0 0 16.81 9.88 374 374 0 0 1 13.07 7.74c14.25 8.85 28.88 17.09 43.4 25.49q7.41 4.28 14.78 8.64a3125 3125 0 0 0 42.38 24.49l1.87 1.07 8.91 5.06c6.7 3.81 13.28 7.75 19.83 11.81q5.6 3.44 11.26 6.76l2.14 1.25q8.45 4.94 17 9.67 6.91 3.86 13.53 8.24c2.49 1.11 3.48.65 6.02-.1q.27-69.6.41-139.19l.03-16.43.01-3.3q.05-26.49.17-52.98.11-27.16.13-54.34.02-16.77.11-33.54.07-11.5.05-22.99-.02-6.64.04-13.27.06-6.07.02-12.15-.02-2.2.03-4.4c.37-7.78.37-7.78-2.75-14.57a38 38 0 0 0-6.25-3.84l-2.75-2a104 104 0 0 0-9.06-4.88 98 98 0 0 1-12.92-7.62c-3.38-2.23-6.94-4.09-10.51-6a179 179 0 0 1-7.82-4.56 111 111 0 0 0-9.94-5.38c-4.49-2.19-8.39-4.88-12.43-7.8-3.49-2.39-7.17-4.31-10.9-6.28-3.37-1.87-6.51-4.01-9.7-6.18a66 66 0 0 0-7.97-4.3c-12.84-6.73-25.29-14.24-37.58-21.92-4.03-2.48-8.13-4.84-12.22-7.22l-9.16-5.36a729 729 0 0 0-28.17-15.93c-4.33-2.37-8.5-4.99-12.69-7.61a498 498 0 0 0-12.01-7.11 599 599 0 0 1-8.79-5.24 407 407 0 0 0-18.02-10.34 357 357 0 0 1-9.36-5.27l-3.12-1.75c-3.44-1.95-6.78-4.04-10.13-6.13a203 203 0 0 0-11.94-6.93c-10.74-5.76-21.04-12.36-31.25-19a192 192 0 0 0-14.45-8.53c-4.86-2.59-9.66-5.29-14.47-7.97q-6.44-3.6-12.95-7.07a56 56 0 0 1-9.69-6.62zm836-4c2.62.38 2.62.38 5 1q.14 70.57.2 141.15l.02 16.66v3.35l.09 53.72q.06 27.55.07 55.11 0 17.01.05 34.02.03 11.65.02 23.31l.03 13.46q.03 6.15 0 12.31l.02 4.46q.02 3.03-.01 6.06l.01 3.4c-.71 4.23-2.8 6.74-6.23 9.25l-1.75.92-2.05 1.1-2.22 1.16-4.89 2.64-2.64 1.43c-4.77 2.62-9.46 5.37-14.16 8.11l-3.04 1.78a7641 7641 0 0 0-39.68 23.48l-8.84 5.24-2.58 1.54a471 471 0 0 1-15.94 9c-17.98 9.75-35.54 20.34-53.04 30.9-9 5.44-18.1 10.67-27.27 15.81a533 533 0 0 0-19.27 11.4c-9.16 5.65-18.48 11.02-27.79 16.42l-9.24 5.39a2014 2014 0 0 1-25.85 14.95 1181 1181 0 0 0-33.23 19.76 2255 2255 0 0 1-37.57 22.41l-4.72 2.77-7.75 4.53-2.42 1.42c-3.7 2.15-7.28 4.15-11.33 5.58-2.39-1.81-2.96-2.71-3.38-5.73l-.01-3.39-.03-3.9.02-4.32-.02-4.56-.02-12.57q0-6.78-.03-13.55l-.03-26.55-.02-21.58q-.04-30.56-.04-61.12v-6.67q.01-26.76-.07-53.52-.06-27.46-.06-54.92.01-15.42-.04-30.85-.04-13.12-.01-26.26.02-6.7-.02-13.4-.03-6.14.01-12.27.01-2.22-.02-4.44c-.11-11.06-.11-11.06 2.05-14.35 1.58-1.36 1.58-1.36 4.72-3.05l3.05-1.67 3.26-1.52c7.87-3.77 15.31-8.2 22.79-12.68q3.43-2.03 6.91-3.99 6.79-3.91 13.55-7.89 10.03-5.88 20.13-11.63 6.2-3.52 12.25-7.31c7.07-4.4 14.34-8.44 21.6-12.52a380 380 0 0 0 18.35-10.91c2.74-1.66 5.5-3.2 8.32-4.72 5.48-2.97 10.87-6.1 16.23-9.28l2.86-1.7q10.76-6.4 21.48-12.85 9.29-5.59 18.67-11.03c2.84-1.67 5.62-3.35 8.34-5.21 3.63-2.37 7.38-4.39 11.2-6.45 5.17-2.82 10.24-5.79 15.32-8.76l3.17-1.84c6.06-3.52 6.06-3.52 11.95-7.31 2.41-1.62 4.82-3 7.38-4.35 7.1-3.83 14.02-7.95 20.96-12.06q5.45-3.23 10.92-6.44l2.13-1.26q6.75-3.97 13.56-7.81 7.47-4.26 14.7-8.94a653 653 0 0 1 32.52-19.32l5.54-3.14 3.27-1.84c2.64-1.46 2.64-1.46 4.59-3.57m0 3-2.81 2.12c-3.94 2.82-8.1 5.07-12.37 7.34a196 196 0 0 0-7.82 4.54 219 219 0 0 1-10.44 5.94 209 209 0 0 0-14.08 8.47c-2.49 1.6-5.03 3.06-7.62 4.5-3.28 1.92-6.45 4.03-9.63 6.11-3.67 2.25-7.44 4.28-11.23 6.33a605 605 0 0 0-15.06 8.65l-3.07 1.79q-8.22 4.81-16.39 9.72a1706 1706 0 0 1-35.05 20.53 600 600 0 0 0-29.13 17.49 307 307 0 0 1-14.11 8.35 260 260 0 0 0-11.38 6.74 177 177 0 0 1-12.2 6.95 206 206 0 0 0-7.61 4.43l-3.12 1.75a182 182 0 0 0-9.13 5.63 198 198 0 0 1-13.6 7.89c-4.69 2.58-9.27 5.32-13.87 8.05a336 336 0 0 1-12.28 6.93 124 124 0 0 0-11.57 7.17 99 99 0 0 1-7.47 4.33 597 597 0 0 0-17.9 10.19l-6.02 3.52-9.28 5.44-3.17 1.86-2.86 1.67q-4.05 2.32-8.17 4.51c-10.39 5.2-10.39 5.2-19.56 12.06q-.14 2.91-.13 5.82v38.55l-.01 26.31.01 21.38v3.07l-.01 6.17.01 57.91v116.65l-.01 21.36.01 26.02v39.17c-.05 2.58-.05 2.58 1.13 4.59 4.35-.93 7.79-3.09 11.56-5.38l4.63-2.76 2.42-1.44q5.66-3.34 11.39-6.61a1378 1378 0 0 0 41.44-24.81 835 835 0 0 1 37.22-21.58c4.9-2.7 9.68-5.59 14.46-8.48q8.38-5.08 16.88-9.94l7.88-4.62 2.2-1.3 6.92-4.08 9.12-5.38 2.08-1.22a773 773 0 0 1 16.05-9.21c3.07-1.75 6.03-3.65 9-5.57 4.6-2.95 9.3-5.57 14.11-8.14 3.3-1.85 6.39-3.92 9.47-6.09 2.63-1.69 5.37-3.01 8.17-4.39q3.45-1.91 6.88-3.88l1.87-1.07q4.78-2.73 9.44-5.67c2.85-1.82 5.77-3.46 8.75-5.07a402 402 0 0 0 14.56-8.31c4.67-2.77 9.34-5.5 14.12-8.06 4.97-2.67 9.79-5.55 14.61-8.47q6.58-3.97 13.27-7.72c3.62-2.05 7.14-4.1 10.5-6.56a58 58 0 0 1 9-5.19c8.1-4.5 16.08-9.2 24-14l2.59-1.36c2.88-1.96 3.88-3.52 5.41-6.64.44-3.01.44-3.01.35-6.3l.01-3.87-.04-4.25v-4.52q-.01-6.21-.06-12.41l-.04-13.39q-.03-11.6-.09-23.2l-.13-33.54q-.08-27.21-.2-54.41l-.21-52.87-.01-3.29-.06-16.34q-.23-67.8-.52-135.61zm-415.66-338.46q5.2 2.85 10.29 5.9l4.6 2.74a664 664 0 0 0 11.32 6.59c8.83 5.06 17.53 10.3 26.2 15.6a863 863 0 0 0 29.1 17.03 715 715 0 0 1 20.54 12.02q9.6 5.79 19.3 11.4 14.04 8.17 27.95 16.57 12.3 7.38 24.69 14.55 9.41 5.48 18.74 11.13c6.9 4.17 13.89 8.18 20.93 12.12a818 818 0 0 1 27.72 16.34 1437 1437 0 0 0 28.24 16.79q9.04 5.24 17.9 10.76a455 455 0 0 0 25.39 14.74c8.2 4.4 16 9.48 23.9 14.4l8.67 5.38 2.85 1.76 5.4 3.33c3.48 2.15 6.94 4.3 10.32 6.58a73 73 0 0 0 8.6 4.73c1 1 1 1 1.08 3.57l-.07 2.43-2.74 1.33c-6.31 3.07-12.35 6.19-18.12 10.2a125 125 0 0 1-7.01 4.4q-5.06 3-10 6.2c-14.4 9.19-29.2 17.69-44.04 26.09a581 581 0 0 0-20.38 12.1q-3.06 1.91-6.21 3.68c-3.4 1.9-6.7 3.96-10 6a340 340 0 0 1-13.5 8q-7.63 4.35-15.18 8.82a2180 2180 0 0 1-14.75 8.62c-7.43 4.33-14.74 8.85-22.07 13.34a356 356 0 0 1-17.43 10.16 162 162 0 0 0-11.07 6.56 181 181 0 0 1-13.48 7.84c-4.2 2.3-8.28 4.79-12.38 7.26a944 944 0 0 1-15.05 8.9l-5.23 3.09a199 199 0 0 1-5.48 3.16 182 182 0 0 0-9.13 5.63c-3.6 2.3-7.22 4.48-11 6.5a277 277 0 0 0-12.43 7.12c-17.94 10.85-36.15 21.23-54.35 31.6l-3.17 1.82-4.95 2.8a236 236 0 0 0-10.78 6.53l-2.91 1.86-2.16 1.39a363 363 0 0 1-18.5-10.5 415 415 0 0 0-18.5-10.5c-20.08-10.78-20.08-10.78-27.81-16.46-3.18-2.23-6.57-4-10-5.8a347 347 0 0 1-11.7-6.74 354 354 0 0 0-14.05-8c-5.34-2.86-10.42-6.1-15.53-9.32a211 211 0 0 0-14-8.05c-3.71-2.07-7.26-4.35-10.84-6.63a167 167 0 0 0-17.4-9.64 80 80 0 0 1-9.4-5.86 95 95 0 0 0-7.77-4.5 101 101 0 0 1-10-6 135 135 0 0 0-12.74-7.5q-3.93-2.15-7.76-4.5a241 241 0 0 0-10.5-6q-6.66-3.61-13.11-7.57a192 192 0 0 0-6.7-3.8c-4.83-2.66-9.5-5.56-14.18-8.46-14.36-8.9-28.87-17.66-43.74-25.66a476 476 0 0 1-28.1-16.53q-11.68-7.46-23.65-14.45a752 752 0 0 1-25.33-15.52 79 79 0 0 0-5.7-3.01c.54-4.54.54-4.54 2.59-6.51l2.1-1.3 2.49-1.53q6.45-3.77 12.96-7.45a929 929 0 0 0 30.36-18.04 1238 1238 0 0 1 37.5-22.17 1453 1453 0 0 0 39.4-23.28 2081 2081 0 0 1 57.77-34.21c8.97-5.11 17.8-10.45 26.65-15.78a3295 3295 0 0 1 42.86-25.27 3762 3762 0 0 0 44.15-26.14c25.92-15.58 25.92-15.58 38-22.2 10.72-5.86 21.15-12.22 31.6-18.56l2.58-1.56 2.69-1.73c2.3-1.27 2.3-1.27 4.65-.73m-7.26 5.32-3.07 1.87-3.32 2.02-6.85 4.15-1.75 1.05a696 696 0 0 1-16.27 9.49l-2.63 1.5-7.2 4.06a2112 2112 0 0 0-54.32 32.03c-9.3 5.62-18.7 11.04-28.12 16.46q-10.44 6-20.75 12.23c-13.64 8.24-27.42 16.25-41.18 24.26q-9.57 5.58-19.1 11.19-6.2 3.66-12.44 7.28A1174 1174 0 0 0 1978 2184a1181 1181 0 0 1-40.3 23.87q-10.58 6.01-21.01 12.26l-2.5 1.49q-7.21 4.35-14.2 9.08a87 87 0 0 1-7.17 4.18c-9.21 4.93-18.37 9.94-26.97 15.88-1.85 1.24-1.85 1.24-4.91 2.93q-.95.66-1.94 1.3v3a12 12 0 0 0 3.34 2.36l2.2 1.32 2.4 1.4 2.47 1.47q3.8 2.25 7.59 4.46l6.39 3.74 4.13 2.4c7.19 4.23 14.22 8.7 21.25 13.19q7.05 4.46 14.23 8.67l3.57 2.13q12.29 7.27 24.75 14.25a1081 1081 0 0 1 36.54 21.6c7 4.32 14 8.58 21.27 12.45 5.97 3.27 11.8 6.8 17.67 10.27l6.37 3.75q14.1 8.26 28.08 16.7l2.37 1.42 4.82 2.92a364 364 0 0 0 15.73 8.96c4.95 2.72 9.83 5.57 14.7 8.43l3.2 1.87a799 799 0 0 1 19 11.47c4.99 3.04 10.07 5.9 15.15 8.78q2.7 1.53 5.39 3.08a626 626 0 0 0 16.2 9.05c4.16 2.25 8.06 4.7 11.95 7.37 3.17 2.12 6.44 4.06 9.72 6q2.48 1.48 4.96 3a154 154 0 0 0 13.63 7.5 97 97 0 0 1 12.64 7.49c3.45 2.28 7.07 4.19 10.72 6.12a29 29 0 0 1 4.96 3.13c3.65 1.77 5.73 1.26 9.6.26 3.25-1.6 3.25-1.6 6.33-3.68l3.43-2.2 3.25-2.12a552 552 0 0 1 30.82-17.62c4.5-2.41 8.74-5.01 12.94-7.91 3.4-2.22 6.98-4.06 10.56-5.97a84 84 0 0 0 7.12-4.5c4.38-3 8.99-5.31 13.77-7.6a98 98 0 0 0 7.79-4.4q5.14-2.94 10.3-5.85a221 221 0 0 0 12.42-7.71q6.16-3.98 12.22-8.15c2.6-1.62 5.32-2.92 8.06-4.3 12.28-6.8 24.38-13.96 36.38-21.24a208 208 0 0 1 10-5.62A129 129 0 0 0 2433 2359a150 150 0 0 1 14.19-8.45c2.99-1.64 5.86-3.42 8.75-5.23a343 343 0 0 1 19.82-11.28 164 164 0 0 0 14.24-8.7c2.46-1.64 4.99-3.13 7.57-4.6 4.9-2.81 9.7-5.77 14.5-8.8a259 259 0 0 1 16.43-9.58c3.4-1.84 6.7-3.86 10-5.88q3.67-2.14 7.44-4.1c10.56-5.7 20.56-12.45 30.62-18.97a580 580 0 0 1 16.57-10.34l1.9-1.15a110 110 0 0 1 8.97-4.92c-.51-1.96-.51-1.96-2-4q-2.36-1.03-4.77-1.97c-2.81-1.3-5.23-2.96-7.8-4.71a175 175 0 0 0-13.61-8.44c-4.7-2.63-9.23-5.41-13.68-8.45-3.13-2.1-6.36-4-9.6-5.93q-3.77-2.23-7.47-4.5a247 247 0 0 0-10.38-5.87 290 290 0 0 1-15.3-9.05q-5.15-3.13-10.4-6.08a471 471 0 0 1-16.31-9.73 1040 1040 0 0 0-34.64-20.53q-4.15-2.38-8.22-4.86a209 209 0 0 0-9.87-5.61 446 446 0 0 1-17.95-10.45q-11.48-6.96-23.12-13.7a1349 1349 0 0 1-25.64-15.18c-8.5-5.16-17.1-10.15-25.75-15.06-8.32-4.74-16.52-9.66-24.7-14.62a396 396 0 0 0-17.33-9.92 219 219 0 0 1-9.27-5.4q-9.55-5.76-19.2-11.44-10.4-6.14-20.76-12.38a643 643 0 0 0-16.3-9.4c-2.93-1.72-2.93-1.72-5.2-3.44-3.4-2.51-5.4-.41-8.65 1.58m-1114.23 293.05q4.07-.05 8.15.1 1.88.02 3.83.07c28.08.91 56.95 7.43 82.17 19.92l4 1.9c53.01 25.51 93.27 70.8 113.06 125.97 20.41 58.5 17.01 123.71-9.53 179.7-24.86 50.74-69.94 94.78-123.95 113.3q-3.28 1.08-6.58 2.13l-2.13.68c-13.05 4.1-26.36 6.32-39.87 8.32l-3.3.53c-4.09.51-8.07.66-12.19.7l-2.44.03c-26.2.26-50.77-2-76.07-9.26l-2.16-.62C1010 2764.34 975.8 2744.82 951 2718v-2l-3-1c-6.48-6.12-11.66-13.88-17-21l-1.85-2.43c-16.18-22.1-26.66-48.28-33.6-74.57q-.7-2.5-1.43-5c-6.62-23.7-7.68-50.6-5.12-75l.31-3.03c2.52-22.76 7.44-44.95 16.7-65.97l1.01-2.4A236 236 0 0 1 925 2432l1.64-2.77c4.92-8.18 11.01-15.15 17.36-22.23q.75-.86 1.54-1.73c25.34-28.4 59.67-51.58 96.46-62.27l2.8-.83c22.16-6.45 43.98-10.56 67.05-11.26m-31.85 5.1-5.69 1q-2.66.48-5.3 1-1.86.32-3.77.67l-3.99.75-3.67.7c-3.82.93-7 2.27-10.58 3.87q-4 1.05-8 2c-8.63 2.1-16.16 5.93-24 10l-6 2.93c-9.07 4.55-18.15 9.3-26.1 15.62-2.95 2.25-6.09 4.18-9.2 6.15l-1.7 1.3v2l-1.67.7c-2.96 1.65-5.16 3.73-7.64 6.05-3.04 2.82-6.08 5.6-9.32 8.18-3.92 3.32-6.99 7.33-10.18 11.34a138 138 0 0 1-5.82 6.73c-17.42 19.84-32.22 49.73-37.77 75.52-.6 2.48-.6 2.48-1.55 4.77-4.52 11.68-5.49 25.17-6.8 37.52l-.39 3.57c-1.37 13.8-.94 27.37.26 41.15q.29 3.45.55 6.88c.57 7 1.31 13.61 3.6 20.28a53 53 0 0 1 1.68 7.68c1.04 6.1 2.87 11.8 4.86 17.63l1 3.03a186 186 0 0 0 8.2 19.97l1.95 4.33A179 179 0 0 0 927 2685l1.3 1.96a194 194 0 0 0 23.2 28.42 94 94 0 0 1 4.11 4.78c3.9 4.62 8.63 8.14 13.4 11.84l1.78 1.4c15.81 12.26 31.85 22.56 50.21 30.6l2.96 1.3c5.53 2.31 11.22 4.05 16.96 5.76q3.76 1.15 7.45 2.5c6.37 2.15 13.03 3.2 19.63 4.44l2.78.56q4.1.8 8.22 1.44l3.45.56c32.31 4.71 69.86 3.08 100.55-8.56l3.77-1.38 4.23-1.56 1.98-.73a187 187 0 0 0 24.96-11.65l2.66-1.47a154 154 0 0 0 17.4-11.2l4.94-3.39c27.6-19.52 47.87-45.22 64.06-74.62l1.2-2.19c28.37-52.19 32.95-116.56 16.27-173.1-4.62-15.07-10.26-29.7-17.47-43.7q-.45-.92-.94-1.84c-14.36-27.57-37.99-53.1-63.27-70.9q-2.54-1.8-5.03-3.68A83 83 0 0 0 1224 2362l-4.03-2.16-2.15-1.16-4.37-2.37a103 103 0 0 0-14.45-6.3l-5.13-2.08A155 155 0 0 0 1183 2344l-1.8-.65c-13.66-4.8-27.53-7.2-41.85-9.03q-2.6-.36-5.19-.85c-6.25-.94-12.6-.72-18.9-.72H1113c-11.28 0-21.98.77-33 3.25"/></svg>