<svg xmlns="http://www.w3.org/2000/svg" width="5016" height="3252" viewBox="0 0 5016 3252"><path fill="#ffa519" d="M1848.16 848.92q4.91-.05 9.84.08l2.66.05c6.87.38 12.32 2.72 18.34 5.95l2.2 1.14c9.7 5.69 16.96 15.44 24.25 23.83 3.63 4.16 7.42 8.16 11.23 12.16a416 416 0 0 1 16.15 17.97c3.87 4.59 7.88 9.03 11.94 13.46q2.88 3.15 5.66 6.38a455 455 0 0 0 9.07 10.06q5.44 5.9 10.7 11.95 3.35 3.78 6.8 7.49c2.92 3.2 5.71 6.4 8.31 9.87 4.15 5.49 8.92 10.4 13.62 15.42q5.15 5.53 10.07 11.27l6.37 7.38 1.72 1.98A935 935 0 0 0 2031 1021l4.5 5 2.22 2.47 7.21 8.03 2.22 2.47a113 113 0 0 0 3.85 4.03c4.88-.3 9.11-1.6 13.7-3.28 4.66-1.45 9.27-1.84 14.14-1.85l3.5-.02h3.8l4.06-.01 11.16-.01 12.03-.02 29.07-.04 13.7-.02 45.58-.04h14.79q23.77-.02 47.55-.07 24.44-.05 48.87-.05l27.42-.04q11.7-.03 23.36-.02l11.91-.02c30.3-.14 30.3-.14 43.36 4.49l2.35.72c19.17 6.26 30.63 22.56 41.65 38.28l3.16 4.48q2.99 4.2 5.95 8.44c12.55 20.53 12.55 20.53 31.8 32.63 5.21.7 10.45.58 15.7.57h3.54l9.68-.02h10.46l18.15-.02 26.46-.03 43.2-.03h2.61l23.46-.02 15.42-.02h2.56l42.84-.03 23.93-.02q29.45-.05 58.91.06l6.63.03q13.29.06 26.58.19l8.24.07q5.67.03 11.34.1 1.64.03 3.32.02c8.33.15 15.53 1.88 22.71 6.2 2.67 1.6 4.48 1.9 7.56 2.13l3.05.25 3.24.2 3.34.24q5.07.3 10.16.58l3.1.2c11.97 1.23 11.97 1.23 22.65-3.01 1.72-1.96 1.72-1.96 3.25-4.2l3.81-4.74 2.23-2.81c4.61-5.55 9.9-10.5 15.04-15.54 4.26-4.18 8.33-8.42 12.22-12.94 3.56-4.11 7.35-8.01 11.1-11.96q5.6-5.95 10.95-12.12 3.58-4.05 7.27-8l1.53-1.65 8.26-8.9a559 559 0 0 0 14.65-16.14c3.32-3.75 6.75-7.38 10.16-11.04a314 314 0 0 0 8.65-9.6c2.66-3.07 5.5-5.93 8.4-8.8 2.31-2.34 4.43-4.82 6.58-7.31a428 428 0 0 1 8.65-9.44c3.97-4.26 7.9-8.55 11.71-12.96 4.17-4.76 8.5-9.4 12.8-14.04l1.46-1.6 7.5-8.12 5.92-6.43q9.32-10.1 18.74-20.1 5.16-5.5 10.18-11.12c3.8-4.25 7.8-8.25 11.83-12.25 3.83-3.87 7.38-7.97 10.84-12.18 3.78-4.57 7.96-8.4 12.52-12.2l2.43-2.12c3.65-2.67 7.56-4.78 11.57-6.88l2.8-1.54a45 45 0 0 1 10.95-3.21q1.05-.18 2.14-.4a42 42 0 0 1 16.11.15l3 .47c18.04 3.32 30.8 14.75 41.25 29.27 5.78 9.1 7.18 20.05 8.32 30.54.44 3.83 1.12 7.53 1.93 11.3.57 2.8 1.04 5.6 1.5 8.42q1.1 6.74 2.5 13.44.81 4.3 1.5 8.62a184 184 0 0 0 2.5 12.59c.6 2.8 1.04 5.6 1.5 8.4a99 99 0 0 0 2 9.95c1.13 4.28 1.8 8.62 2.5 12.99.58 3.54 1.28 7.04 2 10.55q.74 3.7 1.37 7.4c1.36 7.54 3 15.02 4.58 22.5a1060 1060 0 0 1 2.16 10.28l1 4.79q1.1 5.34 2.44 10.64c.84 3.44 1.46 6.79 1.95 10.29.54 3.73 1.13 7.4 2 11.06.86 3.67 1.45 7.34 2 11.06.62 4.2 1.4 8.26 2.5 12.36.88 3.67 1.4 7.4 2 11.14.55 3.25 1.25 6.45 2 9.66.57 2.6 1.03 5.22 1.5 7.84.56 3.17 1.17 6.27 2 9.38 1.13 4.32 1.8 8.7 2.5 13.12.55 3.25 1.25 6.44 2 9.66.57 2.62 1.03 5.26 1.5 7.9a81 81 0 0 0 2 8.82c1.18 4.2 1.81 8.4 2.5 12.73.46 2.95.46 2.95 1.5 6.2 1.3 4.7 1.84 9.4 2.43 14.23.47 3.37.47 3.37 1.57 6.34 1.18 3.62 1.61 7.18 2 10.94.7 6.25.7 6.25 2.06 12.37 1.08 4.33 1.36 8.48 1.6 12.92.35 2.94 1.2 5.1 2.34 7.83.5 2.56.87 5.12 1.24 7.7 1.48 4.5 5.96 6.03 9.94 8.1 11.28 6.12 21.21 12.67 25.82 25.2.55 3.6.53 7.13.5 10.76l.02 3.23q.01 5.36-.02 10.73l.02 7.76v16.89l.01 25.1q.03 21.13.01 42.25l.01 41.83v2.63l.02 13.2q.04 46.79.05 93.57v25.52l.02 65.36v2.83l.04 63.92v2.7l.02 24.15a121083 121083 0 0 1 .03 102.24v24.97l.01 18.6v7.55l.01 10.2-.02 3.03.02 2.73v2.36c.08 2.13.08 2.13 2.25 3.89 9.64.17 19.48-1.62 29-3q21.97-3.16 44-6l3.08-.41q3.86-.5 7.73-.96l2.16-.3c6.55-.74 12.34.43 18.28 3.17 4.8 4.37 6.95 9.87 8.81 16a24 24 0 0 1-5.8 15.59c-8.94 8.46-20.78 8.86-32.45 10.29q-2.52.3-5.02.63-5.23.68-10.48 1.32-11.65 1.48-23.32 3.04l-9.35 1.23-4.35.58q-5.3.7-10.6 1.3l-2.1.25-5.64.62c-3.19.7-4 1.13-5.95 3.65-.45 2-.45 2-.38 4.26l-.02 2.63.02 2.88v3.03q-.02 4.98.01 9.96v6.9l.03 14.46.02 18.58.01 14.25v6.86l.03 9.56v2.88l.02 2.62v2.29c.1 2.09.1 2.09 2.26 3.84 1.82.5 1.82.5 3.94.75q1.22.15 2.47.34l2.71.35 2.85.39q11.5 1.53 23.01 2.9c11.02 1.37 22.03 2.92 33.03 4.47l4.4.62 2.15.3q5.46.76 10.92 1.42l2.2.25q3 .36 5.97.68c6.87 1.09 11.92 4.1 16.35 9.53 2.68 4.9 4.05 9.46 3 15-2.88 8.03-6.57 12.7-14.15 16.64-4.27 1.77-8.06 1.6-12.6 1.24l-2.53-.17a198 198 0 0 1-18.67-2.41c-9.4-1.6-18.86-2.7-28.32-3.85q-11.73-1.43-23.44-3.01c-6.62-1.07-6.62-1.07-13.29-1.44-2.47 2.46-2.24 3.83-2.27 7.19l.02 2.2v2.34l.01 7.79v17.61q0 9.52-.03 19.05-.05 27.1-.04 54.2.02 14.96-.04 29.9a3969 3969 0 0 0 .01 18.9 1555 1555 0 0 1-.03 11.84l.01 5.44c.14 20.94-6.37 37.8-20.64 53.54a76 76 0 0 1-17 13l-1.89 1.05c-15.62 8.22-32.04 10.42-49.45 10.3h-4.74q-6.44.02-12.88-.01-6.97-.02-13.96-.02l-24.16-.03q-17.55-.04-35.1-.05-28.58-.01-57.17-.07l-55.14-.08h-3.42l-37.1-.04-3.33-.01-13.16-.01-35.06-.04c-52.94-.16-52.94-.16-105.88.39l-3 .04q-4 .07-8 .17l-2.29.03c-4.09 0-4.09 0-7.27 2.38.38 5.44 1.92 10.44 3.5 15.63 4.8 16.29 8.63 32.84 12.5 49.37l.76 3.26c7.21 31.43 12.2 63.76 16.24 95.74l.5 3.93a1076 1076 0 0 1 5.55 57.28l.17 2.4.31 4.43c.23 3.24.53 6.43 1 9.65.76 5.79.53 11.62.46 17.46l-.05 7.67-.12 12.04-.08 11.66-.06 3.66v3.38l-.04 2.97c.42 2.92 1.03 3.73 3.36 5.47a71 71 0 0 0 11.81 4.44c37.38 11.02 64.05 40.34 82.2 73.56 4.2 8.07 7.67 16.18 10 25l1.17 4.02c7.47 25.53 9.18 50.7 9.07 77.23v3.9c-.06 18.69-.3 37.26-2.25 55.85l-.34 3.3c-1.1 10.36-2.29 20.64-4.92 30.73a198 198 0 0 0-2.19 10.23c-1.15 5.7-2.44 11.4-3.7 17.09A470 470 0 0 0 3005 3035c18.33.6 36.67-3.84 53.93-9.7.98-.31.98-.31 1.97-.65 10.17-3.43 19.8-7.3 29.1-12.65l2.71-1.51c50.68-29.22 80.62-77.5 95.91-132.74 10.97-40.95 7.14-89.72.05-131.24-3.99-23.47 1.5-44.6 14.33-64.51a66 66 0 0 1 7-8l1.82-1.8c5.24-4.82 11.04-8.6 17.18-12.2l2.32-1.37c16.35-8.9 36.88-12.12 55.11-7.72 19.2 5.87 34.71 15.4 47.57 31.09l2.03 2.4c5.02 6.63 8.35 14.73 10.97 22.6l.77 2.04c2.27 6.53 2.91 13.08 3.5 19.92a78 78 0 0 0 1.76 11.6 51 51 0 0 1 1.33 10.55c.22 7.29.78 14.45 1.74 21.68 1.8 13.7 2.3 27.18 2.18 40.99q-.04 5.17-.05 10.33c-.05 15.14-.57 29.98-2.7 44.98a340 340 0 0 0-1.29 10.62l-.46 4.3a83 83 0 0 1-2.3 12.1 81 81 0 0 0-1.48 8.02 71 71 0 0 1-3 11.87q-.79 4.15-1.44 8.32a44 44 0 0 1-2.56 7.68 77 77 0 0 0-.75 4.25c-1.36 7.2-4.06 13.99-6.57 20.86a233 233 0 0 0-2.37 6.89l-.68 2.05q-.66 2-1.27 4.03c-1.95 6.23-4.62 12.04-7.42 17.93q-1.58 3.36-3.12 6.73c-6.9 14.94-6.9 14.94-11.57 21.45a38 38 0 0 0-3.13 5.56c-12.23 25.48-31.52 49.02-51.12 69.25l-2.45 2.53c-10.6 10.9-21.18 21.54-33.55 30.47l-4.19 3.19-3.8 2.8-2.4 1.8c-19.19 14.14-39.54 28.04-61.6 37.2l-2.56 1.1c-13.32 5.64-26.87 10.45-40.58 15.04l-3.79 1.27c-11.07 3.68-22.12 7.27-33.65 9.17-2.67.44-2.67.44-6.18 1.43-5.04 1.32-10.19 1.85-15.35 2.5-3.52.45-7.02 1-10.53 1.56-5.59.8-11.14 1.22-16.78 1.48l-2.76.13c-11.24.48-22.48.56-33.73.65l-7.1.06q-7.43.08-14.86.12l-18.57.16q-46.78.43-93.57.34c1.3-3.3 2.71-6.42 4.37-9.56 10-19.9 11.44-42.78 4.83-64-3.69-10.7-8.17-20.51-15.2-29.44l-2.02-2.6c-12.96-15.52-33.08-26.3-52.98-29.1q-1.3-.17-2.64-.38l-6.36-.92c.97-8.84 2.2-17.48 4.16-26.17a497 497 0 0 0 3.14-15.8l1.7-9.03 1.12-5.96 2-10.66.4-2.07a2537 2537 0 0 0 3.57-19.37q1.03-5.68 2.34-11.31a216 216 0 0 0 2.94-17.32 546 546 0 0 1 4.78-28.4 624 624 0 0 0 3.9-22.74q.9-6.02 2.13-11.98c1.35-7.4 2.9-15.96-1.3-22.5-3.23-1.9-5.14-2.7-8.88-2.7-4.2 1.6-7.22 3.49-10 7a70 70 0 0 0-1.5 8.57l-.73 5.43-.37 2.94a993 993 0 0 1-2.34 16.38l-.52 3.5a1116 1116 0 0 1-8.54 48.69 1218 1218 0 0 0-9.9 58.14 739 739 0 0 1-5.1 31.36l-1.3 6.96-2.3 12.19c-7.26 38.14-7.26 38.14-13.34 76.48-3.69 24.3-10.2 47.1-26.06 66.37q-1.05 1.3-2.16 2.62c-8.48 9.85-18.09 17.76-29.84 23.38l-2.3 1.1c-4.94 2.29-10 4.16-15.13 5.97a89 89 0 0 0-4.99 1.98c-18.48 6.82-45.95 4.67-63.58-3.05l-1.92-.8A104 104 0 0 1 2569 3220l-2.75-2.32c-12.19-10.63-21.14-22.68-27.25-37.68l-1.32-3.14c-2.44-6.08-4.3-11.82-5.23-18.32-.37-2.58-.37-2.58-1.46-5-1.39-4.96-1.33-9.71-1.37-14.84l-.05-3.44-.09-7.4-.16-11.82-.3-23.16q-.2-16.53-.43-33.05l-.06-4.08c-.23-16.67-.64-33.31-1.58-49.96-.94-16.7-1.14-33.37-1.19-50.1l-.02-3.82q-.06-17.63-.05-35.24.02-9.76-.05-19.54l.01-7.36q.02-5.1-.03-10.18l.04-3.03c-.06-4.7-.1-6.8-3.08-10.6-5.55-4.12-9.74-4.6-16.58-3.92a20 20 0 0 0-11 7c-.6 2.38-.6 2.38-.5 5l-.03 3.12.02 3.43-.02 3.69q-.03 4.06-.03 8.14-.02 10.39-.14 20.78l-.05 5.13a2349 2349 0 0 1-.94 45.98l-.1 3.46-.6 21.24c-.86 29.27-1.68 58.52-1.89 87.8 0 1.59 0 1.59-.03 3.22q-.11 15-.14 30.03c-.04 50.37-.04 50.37-10.55 71.98l-1.66 3.63c-11.97 25.65-33.87 42.94-59.53 53.7-16.2 5.86-34.06 5.69-51 3.86l-2.07-.21c-4.77-.6-8.42-2.01-12.74-3.98l-3.69-.81c-5.87-1.37-11.02-4.38-16.3-7.2q-1.14-.54-2.29-1.11c-22.73-11.6-39.32-33.74-48-57.36q-1.49-4.73-2.72-9.52l-.84-2.87c-1.83-6.65-2.74-13.23-3.47-20.06a91 91 0 0 0-2.19-12.63c-.98-4.74-1.4-9.57-1.94-14.38-.46-3.66-1.23-7.2-2.06-10.8a162 162 0 0 1-1.94-11.13l-.38-2.47q-.8-5.07-1.56-10.16l-.76-4.93-.69-4.55c-.7-4.55-1.6-9.03-2.59-13.53a472 472 0 0 1-4.46-24.5l-.78-4.72-1.18-7.22q-1.28-7.76-2.59-15.5a632 632 0 0 1-5.05-33.54c-.66-5.38-1.6-10.73-2.52-16.07q-.26-1.46-.5-2.96l-.5-2.83-.44-2.5c-.55-2.76-.55-2.76-1.53-5.86a114 114 0 0 1-2.62-13.54l-.43-2.84-1.36-8.97q-1.77-11.73-3.62-23.44l-.49-3.1a949 949 0 0 0-1.49-9.05l-.43-2.78c-.88-5.03-1.8-8.37-5.59-12.07-3.2-1.6-6.53-1.5-10-1-3.52 2.14-5.67 4.1-7 8-.03 2.97.32 5.87.68 8.8l.3 2.57c.76 6.36 1.86 12.59 3.23 18.85 1.1 5.23 1.93 10.5 2.8 15.78l.92 5.62.46 2.8a1921 1921 0 0 0 12.11 66.99c2 9.89 3.78 19.8 5.5 29.75q1.5 8.83 3.12 17.65l.48 2.66q1.4 7.66 3.01 15.3c.54 3.13.52 6.06.4 9.23a56 56 0 0 1-11.2 3.38 83 83 0 0 0-16.8 5.62l-3.25 1.46c-23.07 10.93-39.25 27.52-48.5 51.46-6.1 17.5-6.5 41.96.74 59.08 1.43 2.96 2.93 5.8 4.63 8.63 1.38 2.4 2.4 4.79 3.37 7.37l-8.75-1.37-2.5-.4q-1.2-.17-2.43-.38l-2.22-.35a25 25 0 0 1-6.1-2.5 69 69 0 0 0-4-.81c-11.08-2.36-21.22-8.16-31.23-13.3q-2.4-1.2-4.83-2.34a79 79 0 0 1-9.63-6.17l-1.84-1.33c-7.8-5.7-15.43-11.37-21.6-18.84a144 144 0 0 0-5.77-6.33c-33.58-35.58-47.72-85.74-59.17-132.11q-.85-3.44-1.75-6.85c-3.04-11.62-4.9-23.51-6.66-35.38q-.57-3.8-1.2-7.6c-9.59-59-11.75-129.12 17.68-182.94l1.41-2.85c15.74-31.16 45.71-56.86 78.6-68.15q5.07-1.54 10.2-2.97c2.84-1.05 3.93-1.71 5.8-4.03.2-3 .24-5.8.14-8.8l-.09-5.68-.07-3.08a756 756 0 0 1 1.63-62.81l.13-2.01c2.72-41.53 7.31-83.1 15.84-123.86l2.6-12.58a884 884 0 0 1 15.65-63.73l.85-3.06 1.58-5.57c1.23-4.37 2.13-8.23 1.73-12.82-4-4-15.69-2.11-21.12-2.12q-3.64 0-7.27.02h-5.3l-14.52.03-15.68.02q-13.58 0-27.16.04l-42.95.05h-18.42l-41.8.05h-3.86l-61.9.09-63.6.06q-19.6 0-39.2.06-13.45.03-26.88.02-7.75 0-15.5.03h-14.2l-5.12.02c-24.7.14-46.47-5.84-64.66-23.4-6.57-6.62-12.34-14.3-15.86-22.97l-1.09-2.65c-3.15-8.13-4.08-15.66-4-24.35v-2.32l.02-7.61.01-5.5.04-11.77q.04-9.3.05-18.62.04-26.46.14-52.92.05-14.64.07-29.26.01-9.26.06-18.52l.04-16.84a587 587 0 0 0 .01-7.27l.03-2.15c-.02-2.85-.1-4.78-1.7-7.2-3-1.83-6.37-.61-9.68-.02q-3.01.45-6.04.87l-3.4.49a767 767 0 0 1-39.42 4.56c-8.72.8-17.38 1.83-26.02 3.26-6.63 1.02-13.44 1.43-19.7-1.31-5.6-4.47-8.75-8.56-9.87-15.73-.39-6.64.66-11.01 4.73-16.3 5.88-6.3 12.73-8.05 21-9.02l2.43-.3 5.13-.63 13.37-1.66 2.63-.33a888 888 0 0 0 20.53-2.8q7.65-1.12 15.34-2.1l4.11-.53q4.04-.53 8.05-1.02l3.72-.48 3.3-.42c5.48-.83 5.48-.83 10.11-3.55q.14-2.02.13-4.05l.01-2.65v-2.93l.01-3.06.01-10.1.01-6.96.01-14.65.03-18.81q.02-7.2.01-14.41l.02-6.94v-9.68l.02-2.92-.02-2.66v-2.31c-.08-2.11-.08-2.11-2.24-3.87-2.9-.54-5.76-.95-8.69-1.31l-2.84-.37L1620 1992l-17.14-2.17-7.44-.94a716 716 0 0 1-26.89-3.86q-6.59-1.08-13.25-1.81c-15.33-1.7-15.33-1.7-20.66-7.72-4.13-5.26-6.04-9.76-5.45-16.52 1.3-6.63 5.05-11.93 10.45-15.92 9.03-4.03 19.6-1.98 29.06-.68l6.36.83 3.1.4q5.67.75 11.36 1.45a953 953 0 0 0 11.54 1.44q9.49 1.15 18.96 2.5l3.4.49q2.85.4 5.73.83 3.3.48 6.62.93 1.04.14 2.1.32c1.7.23 3.42.34 5.15.43 2.15-1.75 2.15-1.75 2.24-3.86v-2.31l.02-2.67-.02-2.95.01-3.14q0-5.27-.02-10.52v-24.11q-.03-12.29-.03-24.58a56994 56994 0 0 0-.05-82.34V1780l-.06-91.72v-8.33l-.02-13.91v-2.78l-.04-64v-2.76l-.03-62.56v-26.33l-.05-59.02-.03-41.16-.02-24.44v-18.26l-.02-7.38c-.06-36.24-.06-36.24 7.12-44.36l1.56-1.85c11.2-12.22 28.93-19.02 44.13-24.82 6.14-2.4 6.14-2.4 11.31-6.33.61-2.52.61-2.52 1-5.37.78-5.22.78-5.22 2-7.55 1.4-2.92 1.61-5.74 2-8.95.56-4.66 1.5-8.7 3-13.13q.56-3.24 1-6.5a49 49 0 0 1 2-9.5c1.41-4.25 1.85-8.54 2.43-12.97.52-2.81 1.31-4.52 2.57-7.03q.59-3.17 1-6.37a64 64 0 0 1 3-12.63q.55-2.95 1-5.94c.7-4.5 1.75-8.7 3-13.06q.52-3.03 1-6.06a72 72 0 0 1 3-11.94q.79-4.53 1.43-9.1c.57-2.9.57-2.9 1.57-5.37 1.18-3 1.58-5.78 2-8.97a64 64 0 0 1 3-12.56c.56-3.02 1-6.05 1.43-9.1.57-2.9.57-2.9 1.57-5.4 1.13-2.84 1.56-5.47 2-8.5.43-3.01.85-5.64 2-8.46 1.58-4.03 1.88-8.21 2.43-12.48.52-2.83 1.3-4.53 2.57-7.06q.59-3.2 1-6.44c.41-3.21.78-6.03 2-9.03 1.25-3.16 1.6-6.15 2-9.53a43 43 0 0 1 3-12q.57-3 1-6c.57-4 1.5-7.27 3-11q.57-3 1-6c.57-4 1.5-7.27 3-11q.57-2.96 1-5.94c.45-3.15.98-6 2-9.03 1.4-4.23 1.85-8.5 2.43-12.91.57-3.12.57-3.12 1.57-5.61 1.6-4.01 1.88-8.2 2.43-12.45.57-3.06.57-3.06 1.57-5.03 1.43-2.91 1.61-5.75 2-8.97a44 44 0 0 1 3-12.06q.57-3.45 1-6.94c.43-3.52.88-6.71 2.01-10.08 1.08-3.27 1.45-6.3 1.8-9.73 1.96-14.64 11.55-27 22.67-36.34 10.13-7.37 19.28-10.67 31.68-11"/><path fill="#313a4a" d="m2165.6 2400.63 3.49-.02 3.83.02 4.06-.01h46.82l27.48.02q24.5 0 49 .03 23.79.03 47.58.02h79.2q11.67 0 23.34.03h11.92l10.9.02 5.83-.01 3.47.02h3c2.48.25 2.48.25 5.48 2.25.4 2.04.4 2.04.44 4.57l.06 2.88a326 326 0 0 0 .04 6.3l.02 6.69q.01 5.13.12 10.25 0 3.25.02 6.49l.06 3.1c-.03 2.7-.1 5.1-.76 7.72-3.54 3.23-6.73 4.46-11.37 5.38-31.52 7.35-59.18 28.39-76.24 55.73-6.61 11.05-10.9 22.53-14.4 34.89l-1.08 3.75c-7.32 29.8-.1 60.87 14.09 87.25l1.43 2.74c14.6 26.33 40.59 43.16 68.57 52.26l2.46 1.03c18.86 7.23 47.36 6.6 66.54.97l2.28-.66c16.24-4.9 32.99-11.87 45.72-23.34l2.8-2.38c7.82-6.74 14.18-14.26 20.2-22.62l2.03-2.8c4.93-7.27 7.93-15.03 10.97-23.2l.9-2.17c1.84-4.46 3.03-9.1 4.23-13.76l.52-2c7.44-30.02 1.27-63.95-14.53-90.3A134 134 0 0 0 2605 2497l-1.3-1.55c-17.53-20.81-42.5-35.21-69.17-40.54-3.1-1.11-3.83-2.14-5.53-4.91-.38-2.2-.38-2.2-.4-4.62l-.04-2.76v-2.96l-.01-3.06v-6.4q.02-4.87-.04-9.78v-6.2l-.04-2.96.03-2.76v-2.42c.5-2.08.5-2.08 2.19-3.68 2.85-1.72 4.59-1.77 7.9-1.77l3.47-.02 3.82.02 4.05-.01h46.68l27.39.02q24.43 0 48.85.03 23.71.03 47.44.02h78.96q11.63 0 23.27.03h11.88l10.86.02 5.82-.01 3.46.02h3c2.46.25 2.46.25 5.46 2.25.88 2.07.88 2.07 1.58 4.65l.82 2.94.85 3.23.92 3.37c3.22 12 6.13 24.08 8.97 36.18q1.23 5.15 2.54 10.28c8.54 34.16 13.95 69.44 18.32 104.35l.5 3.9a1080 1080 0 0 1 5.55 57.3l.18 2.42.3 4.43c.23 3.24.54 6.42 1 9.64.76 5.8.54 11.62.47 17.46l-.05 7.67q-.05 6.03-.12 12.04l-.08 11.66-.06 3.66-.01 3.38-.03 2.97c.42 2.92 1.03 3.73 3.35 5.47a71 71 0 0 0 11.82 4.44c37.38 11.02 64.05 40.35 82.18 73.56 4.22 8.08 7.69 16.18 10 25l1.18 4.02c7.48 25.53 9.18 50.72 9.07 77.23v3.9c-.05 18.69-.3 37.26-2.25 55.85l-.34 3.32c-1.1 10.34-2.28 20.63-4.91 30.7-.85 3.4-1.52 6.8-2.2 10.24-1.14 5.72-2.43 11.4-3.7 17.09A470 470 0 0 0 3005 3035c18.34.6 36.68-3.84 53.94-9.68l1.97-.66c10.17-3.43 19.79-7.31 29.09-12.66l2.72-1.51c50.68-29.22 80.62-77.5 95.9-132.73 10.97-40.95 7.15-89.73.06-131.25-4-23.47 1.49-44.6 14.32-64.51a67 67 0 0 1 7-8l1.83-1.78c5.24-4.84 11.04-8.61 17.17-12.22l2.33-1.37c16.34-8.9 36.87-12.11 55.1-7.72 19.2 5.87 34.7 15.4 47.57 31.09l2.03 2.4c5.03 6.64 8.36 14.74 10.97 22.6l.78 2.05c2.26 6.52 2.9 13.07 3.49 19.9.35 3.97.84 7.75 1.76 11.62a51 51 0 0 1 1.34 10.54c.22 7.29.78 14.45 1.74 21.68 1.79 13.7 2.3 27.19 2.17 41q-.04 5.16-.04 10.33c-.05 15.13-.57 29.97-2.7 44.97q-.57 4.17-1.04 8.36l-.25 2.27-.46 4.3a83 83 0 0 1-2.31 12.1c-.67 2.65-1.07 5.3-1.48 8a69 69 0 0 1-3 11.88q-.78 4.15-1.43 8.32a44 44 0 0 1-2.57 7.68q-.42 2.11-.75 4.25c-1.35 7.2-4.05 13.99-6.56 20.86q-1.24 3.44-2.37 6.89l-.68 2.05a208 208 0 0 0-1.27 4.03c-1.95 6.24-4.62 12.04-7.43 17.93q-1.57 3.36-3.12 6.74c-6.9 14.94-6.9 14.94-11.56 21.44a39 39 0 0 0-3.13 5.56c-12.24 25.49-31.52 49.02-51.13 69.25l-2.44 2.53c-10.61 10.9-21.18 21.55-33.56 30.47l-4.18 3.19q-1.9 1.41-3.82 2.8l-2.4 1.8c-19.18 14.15-39.53 28.04-61.6 37.2l-2.54 1.1c-13.32 5.64-26.87 10.45-40.58 15.04l-3.8 1.27c-11.06 3.68-22.11 7.27-33.65 9.18-2.67.43-2.67.43-6.18 1.42-5.03 1.32-10.18 1.86-15.34 2.5q-5.28.7-10.53 1.57a175 175 0 0 1-16.78 1.47l-2.76.13c-11.24.48-22.48.57-33.73.65l-7.11.06-14.85.13-18.57.16q-46.79.42-93.58.33c1.3-3.3 2.7-6.42 4.38-9.56 9.99-19.9 11.44-42.78 4.83-64-3.7-10.7-8.18-20.51-15.21-29.44l-2.01-2.6c-12.96-15.52-33.08-26.3-53-29.08l-2.62-.4-6.37-.92c.98-8.84 2.2-17.48 4.16-26.17.97-4.4 1.82-8.8 2.66-13.2l.49-2.6 1.69-9.03 1.13-5.96 2-10.66.39-2.07c1.2-6.45 2.42-12.9 3.57-19.37q1.04-5.69 2.35-11.31a220 220 0 0 0 2.94-17.31 547 547 0 0 1 4.78-28.41 624 624 0 0 0 3.88-22.74q.9-6.02 2.15-11.98c1.34-7.4 2.88-15.96-1.31-22.5-3.22-1.9-5.14-2.7-8.88-2.7-4.2 1.6-7.21 3.49-10 7a74 74 0 0 0-1.5 8.58l-.72 5.42-.37 2.94c-.72 5.47-1.53 10.93-2.34 16.39l-.52 3.49a1099 1099 0 0 1-8.55 48.69 1231 1231 0 0 0-9.9 58.14 718 718 0 0 1-5.1 31.36l-1.3 6.97-2.3 12.19c-7.26 38.13-7.26 38.13-13.33 76.47-3.7 24.3-10.21 47.1-26.07 66.37l-2.15 2.62c-8.48 9.85-18.1 17.76-29.85 23.38q-1.13.56-2.3 1.1a177 177 0 0 1-15.12 5.98q-2.52.9-5 1.97c-18.47 6.82-45.94 4.67-63.58-3.05l-1.91-.8c-10.56-4.47-19.38-9.74-28.1-17.2l-2.73-2.32c-12.2-10.63-21.14-22.68-27.26-37.68l-1.31-3.14c-2.44-6.08-4.32-11.82-5.23-18.32-.37-2.57-.37-2.57-1.46-5-1.4-4.95-1.33-9.71-1.38-14.84l-.05-3.43-.1-7.4q-.05-5.9-.14-11.83l-.3-23.16-.43-33.04-.06-4.1c-.24-16.66-.64-33.3-1.58-49.95-.94-16.7-1.15-33.36-1.2-50.1l-.01-3.82q-.06-17.63-.05-35.23 0-9.78-.05-19.54v-7.37q.02-5.09-.02-10.18l.04-3.03c-.07-4.7-.11-6.8-3.08-10.6-5.56-4.12-9.74-4.6-16.6-3.92a20 20 0 0 0-11 7c-.58 2.39-.58 2.39-.48 5.02l-.04 3.1.03 3.43-.03 3.69-.02 8.14q-.03 10.4-.14 20.78l-.05 5.14c-.15 15.33-.5 30.65-.94 45.97l-.1 3.46-.61 21.24c-.85 29.27-1.67 58.53-1.88 87.8l-.03 3.22q-.13 15-.14 30.03c-.04 50.37-.04 50.37-10.56 71.98l-1.66 3.63c-11.96 25.65-33.87 42.95-59.52 53.7-16.21 5.86-34.06 5.69-51 3.86l-2.07-.21c-4.77-.6-8.43-2.01-12.75-3.98l-3.68-.81c-5.87-1.36-11.03-4.38-16.32-7.2l-2.27-1.1c-22.74-11.6-39.32-33.75-48.01-57.37-1-3.15-1.88-6.32-2.72-9.52l-.83-2.87c-1.83-6.64-2.74-13.22-3.47-20.06a91 91 0 0 0-2.2-12.63c-.97-4.74-1.4-9.57-1.93-14.37-.46-3.66-1.24-7.2-2.07-10.8-.81-3.68-1.37-7.41-1.93-11.14l-.4-2.46-1.55-10.16-.75-4.93-.7-4.55c-.7-4.56-1.6-9.04-2.58-13.54a460 460 0 0 1-4.46-24.5l-.78-4.72-1.2-7.22q-1.25-7.75-2.58-15.5a643 643 0 0 1-5.04-33.54c-.67-5.38-1.61-10.72-2.53-16.07l-.5-2.96-.5-2.82-.43-2.5c-.55-2.77-.55-2.77-1.53-5.87a113 113 0 0 1-2.62-13.54q-.23-1.4-.44-2.84l-1.35-8.97q-1.76-11.73-3.63-23.44l-.48-3.1a949 949 0 0 0-1.5-9.05l-.43-2.78c-.87-5.03-1.8-8.37-5.6-12.07-3.2-1.6-6.51-1.48-10-1-3.5 2.15-5.65 4.1-7 8-.01 2.97.34 5.87.7 8.82l.29 2.56c.77 6.35 1.87 12.58 3.24 18.84 1.08 5.24 1.92 10.5 2.78 15.78l.93 5.62.47 2.8c3.72 22.4 7.59 44.75 12.1 67 2 9.88 3.79 19.8 5.5 29.74a1714 1714 0 0 0 3.6 20.3q1.4 7.7 3.02 15.3c.54 3.14.52 6.08.38 9.24a55 55 0 0 1-11.18 3.38A84 84 0 0 0 2214 3076l-3.23 1.47c-23.07 10.93-39.25 27.5-48.51 51.45-6.1 17.5-6.5 41.97.74 59.08 1.44 2.97 2.94 5.82 4.64 8.64a47 47 0 0 1 3.36 7.36l-8.75-1.37c-1.23-.2-1.23-.2-2.5-.38l-2.42-.4-2.22-.34a25 25 0 0 1-6.11-2.51 67 67 0 0 0-4-.81c-11.07-2.36-21.22-8.16-31.22-13.3q-2.4-1.2-4.83-2.34a78 78 0 0 1-9.63-6.17l-1.84-1.33c-7.8-5.68-15.44-11.37-21.61-18.84a150 150 0 0 0-5.76-6.33c-33.58-35.57-47.72-85.74-59.17-132.11q-.85-3.43-1.75-6.84c-3.05-11.62-4.91-23.51-6.66-35.4q-.57-3.8-1.21-7.6c-9.58-59-11.74-129.11 17.68-182.93l1.42-2.85c15.74-31.16 45.7-56.86 78.58-68.15q5.1-1.54 10.22-2.97c2.83-1.04 3.93-1.71 5.78-4.03.22-3 .25-5.8.16-8.8l-.1-5.68-.06-3.08c-.4-21 .27-41.87 1.63-62.81l.13-2.01c2.72-41.53 7.3-83.08 15.84-123.85l2.58-12.6a742 742 0 0 1 11.84-49.86 565 565 0 0 0 4.84-18.85q.87-3.55 1.7-7.12l.8-3.2.67-2.8c2.06-4.97 5.53-5.71 10.58-5.71"/><path fill="#ffdead" d="m2078.85 1037.87 3.49-.01h3.8l4.07-.01 11.15-.02 12.04-.02 29.07-.04 13.7-.02 45.58-.04h14.79q23.78-.02 47.55-.07 24.43-.05 48.87-.05a8354 8354 0 0 0 27.42-.04q11.68-.03 23.36-.02l11.9-.02c30.29-.14 30.29-.14 43.36 4.49l2.36.72c19.16 6.26 30.63 22.56 41.64 38.28l3.17 4.48 5.95 8.44c12.55 20.53 12.55 20.53 31.79 32.63 5.22.7 10.46.59 15.7.57h3.54l9.68-.01 10.46-.01 18.16-.02 26.46-.02 43.2-.04h2.6l23.47-.02 15.42-.02h2.55l66.77-.05a10515 10515 0 0 1 65.55.09q13.28.05 26.57.2l8.25.06q5.66.03 11.33.12h3.33c8.33.16 15.53 1.89 22.73 6.2 2.5 1.52 4.03 1.84 6.93 2.02l2.67.18 2.84.15 2.93.19q4.64.3 9.27.55l6.29.39q7.7.48 15.39.92l-2.35 1.85a61 61 0 0 0-7.4 7.34l-2.36 2.67q-.92 1.06-1.9 2.14l-1 1c-.34 4.5.34 7.33 2.39 11.32 4.2 8.24 4.94 16.18 4.8 25.3l-.01 2.9c-.27 22.59-.27 22.59-3.17 25.48-2.57.32-2.57.32-5.86.4l-3.73.13-4.06.09-4.22.1a1587 1587 0 0 1-42.53.44l-11.18.02-19.24.02a15454 15454 0 0 0-40.93.08h-2.64l-29.56.06h-2.72l-43.85.07-45.2.08q-13.9.04-27.8.04-9.5 0-19 .04-5.48.02-10.95 0-5.94 0-11.88.04l-3.47-.01c-11.8.09-22.1 3.17-31.08 11.08-8.08 8.56-13.07 20.14-18.2 30.59-2.1 4.18-4.4 8.23-6.71 12.3a326 326 0 0 0-11.56 22.85c-8.82 18.78-8.82 18.78-12.63 22.58q-3.99.15-7.98.13h-2.57l-8.66-.01h-41.94l-32.11-.01-33.68-.01h-12.74l-75.3-.02-73.17-.02h-2.27l-22.64-.01h-48.26L2003 1319c-1.5-4.3-2.22-7.61-2.12-12.17q.01-1.89.05-3.84l.04-2.1c.26-16.27-.2-32.51-.77-48.8a3818 3818 0 0 1-1.91-86.93l-.3-24.4-.07-5.53c-.42-28.37 3.62-53.43 23.08-75.23a87 87 0 0 1 9-8l2.54-1.96c4.7-3.48 8.69-5.91 14.46-7.04v-2l1.57 1.07c5.38 2.07 10.97-.45 16.12-2.35 4.68-1.45 9.28-1.84 14.16-1.85"/><path fill="#ffa519" d="m3215 864 3 .46c18.04 3.33 30.81 14.76 41.25 29.28 5.78 9.1 7.19 20.04 8.32 30.54.44 3.83 1.12 7.53 1.93 11.3.58 2.8 1.04 5.6 1.5 8.42q1.11 6.75 2.5 13.43c.56 2.87 1.03 5.75 1.5 8.63q1.04 6.34 2.5 12.59c.59 2.79 1.05 5.59 1.5 8.41a99 99 0 0 0 2 9.94c1.14 4.28 1.8 8.62 2.5 12.99.59 3.53 1.29 7.04 2.01 10.55q.72 3.7 1.37 7.4c1.35 7.54 2.98 15.02 4.58 22.51l1.62 7.72.53 2.55.99 4.79q1.1 5.34 2.45 10.64c.85 3.44 1.46 6.79 1.95 10.29.55 3.72 1.14 7.39 2 11.06s1.45 7.34 2 11.06a106 106 0 0 0 2.5 12.35c.88 3.68 1.4 7.42 2 11.14a159 159 0 0 0 2 9.67 190 190 0 0 1 1.5 7.84c.56 3.17 1.18 6.27 2 9.38 1.13 4.32 1.79 8.7 2.5 13.11.55 3.26 1.25 6.45 2 9.66.57 2.63 1.04 5.27 1.5 7.91a83 83 0 0 0 2 8.82c1.18 4.21 1.82 8.41 2.5 12.72.47 2.96.47 2.96 1.5 6.22 1.29 4.69 1.84 9.39 2.44 14.22.46 3.37.46 3.37 1.56 6.34 1.18 3.61 1.61 7.17 2 10.94.69 6.24.69 6.24 2.06 12.37 1.08 4.33 1.36 8.48 1.6 12.92.35 2.93 1.21 5.11 2.34 7.83.49 2.56.87 5.12 1.24 7.7 1.33 4.04 4.96 5.51 8.51 7.49l3.25 1.81c-3 1-3 1-5.45.04l-2.67-1.42-2.7-1.39C3337 1295 3337 1295 3336 1294l-1 2 1.94.88c2.06 1.12 2.06 1.12 3.06 3.12l3 1c3 1 3 1 4 3q2.46 1.08 5 2v4c-12.2 2.92-22.02 4.66-34 0l-1-2 6-2c-.45-4.48-.45-4.48-3-8v-4l6-3a24 24 0 0 0-8.72-6.37l-2.79-1.23-2.99-1.28-3.1-1.33a184 184 0 0 0-22.25-7.67 141 141 0 0 1-17.83-6.51 111 111 0 0 0-13.71-4.94q-2.35-.72-4.72-1.37l-2.16-.65-1.89-.53c-4.05-2.47-5.62-6.29-6.78-10.73q-.33-2-.62-4l-.36-2.18-.72-4.59q-.93-5.98-1.93-11.96l-.38-2.34a299 299 0 0 0-4.44-21.77q-1.15-4.86-2.27-9.73c-3.6-15.63-3.6-15.63-7.46-31.2a527 527 0 0 1-8.72-42.2c-1.17-6.83-2.73-13.56-4.25-20.32a314 314 0 0 1-4.39-25.5c-1.89-13.02-7.09-26.12-17.52-34.6-11.17-8.16-22.21-8.97-35.56-7.25-15.35 2.61-25.62 14.09-36.19 24.81l-2.71 2.71a258 258 0 0 0-12.84 13.82c-3.7 4.17-7.76 8.01-11.74 11.91a207 207 0 0 0-11.26 12.04 341 341 0 0 1-8.51 9.34l-1.84 1.96c-4.3 4.59-8.71 9.05-13.19 13.47a157 157 0 0 0-7.32 8.13c-2.19 2.45-4.5 4.75-6.84 7.06-3.5 3.47-6.82 7-10.02 10.74-2.6 2.97-5.29 5.86-7.98 8.76-3.83 4.13-7.6 8.28-11.29 12.54q-3.14 3.56-6.33 7.08a217 217 0 0 0-7.32 8.44C2993 1186 2993 1186 2991 1187a33 33 0 0 1-13.15-1.79l-3.51-1.16-3.72-1.24A288 288 0 0 0 2930 1173l.19 3.81c.02 3.91.02 3.91-1.69 6.19l-1.5 1-1-4.75-.56-2.67c-.44-2.58-.44-2.58-.44-6.58l-2.38-.94C2920 1168 2920 1168 2918 1167l-1 4c-4.43-4-6.35-9.36-7.75-15.06 1.07-4.19 3.61-6.18 6.74-9.06 2.14-1.88 2.14-1.88 3.95-4.57 2.08-2.34 3.43-3.08 6.18-4.43 6.3-3.28 10.35-8.54 14.88-13.88a273 273 0 0 1 17.04-18c3.91-3.87 7.62-7.83 11.21-12 3.59-4.11 7.39-8.04 11.14-12q5.61-5.95 10.97-12.12 3.57-4.05 7.26-8l1.53-1.65 8.27-8.9a574 574 0 0 0 14.64-16.14c3.32-3.75 6.75-7.38 10.17-11.04q4.42-4.7 8.65-9.59c2.66-3.09 5.49-5.95 8.39-8.81 2.31-2.34 4.43-4.82 6.58-7.32 2.83-3.2 5.74-6.31 8.65-9.43 3.98-4.26 7.9-8.55 11.71-12.96 4.18-4.76 8.5-9.39 12.79-14.04l1.47-1.6 7.51-8.13 5.92-6.42q9.31-10.1 18.73-20.11 5.16-5.48 10.18-11.12c3.79-4.25 7.79-8.24 11.84-12.24 3.83-3.88 7.38-7.97 10.83-12.18 3.79-4.57 7.97-8.4 12.52-12.2l2.44-2.12c3.65-2.68 7.56-4.78 11.56-6.88l2.8-1.54a44 44 0 0 1 10.95-3.21l2.15-.39a42 42 0 0 1 16.1.14m135 436 2 1Zm2 1 3 1h-3zm3 2 4 1-2 1z"/><path fill="#de7b19" d="M1917.95 1024.5a26 26 0 0 1 6.05 6.5q3.65 3.7 7.4 7.32c4.83 4.73 9.19 9.56 13.34 14.9 3.85 4.72 8.07 9.1 12.24 13.54a220 220 0 0 1 6.46 7.18 401 401 0 0 0 10.56 11.62l1.76 1.9c4 4.27 8.09 8.42 12.24 12.54l1.57 1.63c1.42 1.5 1.42 1.5 3.56 2.43 1.87.94 1.87.94 2.87 2.94q.18 4.21.19 8.43l.03 2.65.06 8.8.06 6.18.13 16.48a5778 5778 0 0 0 1.06 81.75c.17 8.41.39 16.74 1.26 25.11.43 5.37.33 10.76.3 16.14v3.8l-.02 9.84-.02 10.1-.05 19.72h-4l-2-20-4 9c-4.2 1.94-4.2 1.94-8 3l-1 2 10 1 1 4c-13.63 3.83-29.54 2.15-43.55 2.14l-10.4.01-20.32.01-16.54.01-47.05.01h-5.11l-41 .03-42.22.02-23.65.01H1721l-10.25.01c-16.03.03-31.82-.52-47.76-2.25 9-6 9-6 13-6v-3c-5.58.2-5.58.2-10 3l-1.94.41c-2.64.75-3.37 1.86-5 4.03-2.41 3-4.24 4.55-8.06 5.56l-1-2c12.7-16.2 33-23.3 51.69-30.49l2.38-.92 2.09-.79c2.1-.86 2.1-.86 4.84-2.8l3.63-.38a24 24 0 0 0 8.44-2.38c14.77-6.78 29.98-12.44 45.8-16.15A96 96 0 0 0 1781 1259c4.1-1.62 7.99-3.03 12.3-3.88 3.76-.78 3.76-.78 5.64-3.39a34 34 0 0 0 2.06-8.48 62 62 0 0 1 3.22-12.86c1.3-4.02 2.22-8.14 3.16-12.27a381 381 0 0 1 4.4-17.55c3.24-11.6 5.42-23.4 7.63-35.24 2.23-11.86 4.48-23.8 8.09-35.33 3.09-9.96 5.18-20.2 7.16-30.44a742 742 0 0 1 6.83-31.65l1-4.26c4.05-17.28 8.77-33.06 24.45-42.96 15.66-9.55 36.39-5.48 51 3.8"/><path fill="#ffa519" d="m2529 2450 2.15 1.92c3.04 2.22 4.81 2.73 8.47 3.33 12.92 2.69 25.4 8.51 36.38 15.75l2.33 1.34c26.36 16.37 45.44 43.68 52.55 73.72 4.02 17.42 5.17 36.4 1.12 53.94l-.49 2.17c-2.44 10.6-5.54 20.12-10.51 29.83l-1.14 2.56c-12.51 27.52-39.43 46.92-66.86 57.44-14.34 5.22-27.9 7.38-43.19 7.31l-2.07-.01c-32.75-.18-64.55-12.45-87.82-35.96A128 128 0 0 1 2390 2613l-1.03-2.89c-6.58-21.15-6.28-45.99.03-67.11l.7-2.34c5.89-19 15.73-35.21 29.3-49.66l1.97-2.21c16.46-17.7 40.07-30.14 63.55-35.18 2.62-.64 5-1.56 7.48-2.61l1 2 1.8-.02c11.45-.08 22.79-.07 34.2 1.02z"/><path fill="#de7b19" d="M3159.28 1028.88c12.98-.4 22.34 4.04 31.97 12.68 10.38 11.19 12.5 24.93 14.75 39.44l1.44 8.94.35 2.18c1.16 7 2.76 13.89 4.38 20.79a302 302 0 0 1 3.6 18.12c1.24 7.25 2.7 14.45 4.17 21.66l.73 3.63c1.22 5.94 2.6 11.76 4.3 17.57a293 293 0 0 1 5.53 23.17l.92 4.38a865 865 0 0 1 7.38 38.44l.4 2.36.68 4.35c.67 4.1 1.35 7.27 4.12 10.4 2.92 1.49 5.95 2.43 9.07 3.39l5.48 1.8 2.78.9c3.9 1.34 7.72 2.88 11.55 4.42a256 256 0 0 0 20.12 6.94 199 199 0 0 1 23.28 8.63A29 29 0 0 1 3327 1291c-4.75 3-4.75 3-7 3a50 50 0 0 0 3.19 7.06c.8 1.94.8 1.94.75 4.07-1.34 2.68-3.2 2.88-5.94 3.87 9.68 3.04 17.14 3.9 26.98 1.45a24 24 0 0 1 7.02-.45v-4l-6-2v-2l-3.25-.75c-3.74-1.25-5.27-2.27-7.75-5.25l1-3q1 .61 2 1.25a175 175 0 0 0 10.94 5.75l4.15 2.06 2 1q2.58 1.26 5.17 2.44a22 22 0 0 1 6.68 5.44q.89 1 1.84 2.03c1.22 2.03 1.22 2.03.8 4.16l-.58 1.87-2.31-.27c-16.01-1.88-31.52-3.6-47.63-2.23a266 266 0 0 1-19.76.69l-3.62.03-11.71.05-4.06.02-16.88.05q-12.04.03-24.08.1-8.5.07-17.01.07-5.06 0-10.13.05-5.64.04-11.27.02l-3.38.05c-7.51-.06-7.51-.06-10.78-2.95-1.64-3.18-3.1-6.36-4.44-9.68a79 79 0 0 0-5.94-12q-2.35-4.35-4.62-8.75c-3.81-7.28-3.81-7.28-7.68-14.54a420 420 0 0 1-13.07-26.4c-3.55-7.7-7.5-14.58-14.88-19.12l-2.58-1.65c-8.2-4-15.83-4.97-24.88-4.86h-3.41q-5.56.01-11.11.06l-7.8.02-18.44.08q-17.41.1-34.82.14-5.67 0-11.33.06a637 637 0 0 1-37.84-.81c-5.97-.32-11.93-.38-17.91-.35h-3.37c-9.77.05-19.52.42-29.27.9-4.01.19-7.98.35-12 .22-1-1-1-1-1.07-4.6q0-2.4.06-4.82l.03-5.24.09-8.28.06-7.98.04-2.48c.02-4.64-.52-8.21-2.2-12.6-.12-2.87-.12-2.87 0-5 3.38 1.19 5.77 2.16 8 5 .48 2.45.48 2.45.63 5.13-.06 3.24-.06 3.24 1.37 5.87.78-3.4 1.1-6.51 1-10 3.4-1.13 4.64-.84 8.07-.07l3.12.7 3.38.8 3.47.8a321 321 0 0 1 28.24 8.23c6.19 2.02 11.22 2.93 17.72 2.54l.88-1.87c1.39-2.65 3.15-4.31 5.3-6.38A190 190 0 0 0 3011 1165l2.89-3.37 6.15-7.16 1.47-1.73 3.02-3.55a145 145 0 0 1 9.47-10.2l3.3-3.26 1.76-1.74c4.86-4.82 9.62-9.64 14.04-14.87 2.68-3 5.55-5.8 8.4-8.62 4-3.96 7.87-7.94 11.52-12.23a446 446 0 0 1 24.46-25.71c2.73-2.68 5.3-5.44 7.82-8.34 4.15-4.8 8.59-9.3 13.08-13.78l2.42-2.46c11.85-11.88 21.58-18.2 38.48-19.1"/><path fill="#313a4a" d="M2483.13 2009.87h24a910 910 0 0 1 42.03.64c13.43.66 28.09 4.74 37.84 14.49 9.02 12.09 12.53 23.83 10.64 38.87-2.63 13.39-11.04 23.93-21.64 32.13l-2.3 1.82c-8.4 6.27-18.14 11.23-28 14.78l-2.07.75q-2.85 1-5.71 1.94c-3.23 1.5-3.23 1.5-4.37 5.1-1.47 9.68 2.85 18.33 8.2 26.18 10.23 13.5 25.37 22.99 42.25 25.43 15.58 1.36 30.19-2.8 42.83-12.07a64 64 0 0 0 11.3-12.68c4.34-6.22 8.67-9.91 16.25-11.31 6.34-.35 11.78 1.79 16.7 5.73 5.42 5.54 7.98 12.1 7.89 19.87-1.95 13.86-13.71 24.93-23.97 33.46l-2.17 1.94c-20.61 17.7-48.04 21.82-74.35 19.88a98.7 98.7 0 0 1-64.26-33.08c-2.07-1.98-2.07-1.98-4.7-1.82-3.33 1.43-5.07 3.4-7.52 6.08-19.01 19.27-44.44 29.74-71.67 30.17a122 122 0 0 1-18.58-1.8l-3.3-.53c-23.9-4.16-45.61-17.01-60.2-36.65-5.03-7.58-9.57-15.55-7.95-24.87 2.13-7.02 6.69-12.24 12.7-16.32 5.19-2.38 10.04-3.08 15.49-1.1 6.35 2.94 9.83 6.29 13.86 12.02 10.2 14.1 23.67 20.19 40.65 23.08 16.96 1.27 32.1-4.04 45-15 7.64-7.3 15.4-18 16.2-28.83.06-4.01.07-7.35-1.2-11.17-1.77-1.03-1.77-1.03-3.98-1.76l-2.51-.94c-1.33-.5-1.33-.5-2.7-.98-13.23-5.07-24.54-11.66-35.81-20.32l-3.2-2.25c-10.5-10.27-15.46-22.46-15.83-36.91.08-11 3.68-19.25 11.03-27.46 14.75-13.71 33.79-16.54 53.13-16.51m-350.84-199.03c12.44-.3 24.6 1.16 35.7 7.16l2.76 1.35c17.07 9.01 27.95 23.98 34.24 41.97 2.56 9.32 3.3 18.23 3.3 27.88l.02 3.86.03 10.38v6.52q.03 11.4.03 22.81 0 10.58.05 21.13.04 9.14.04 18.26l.02 10.85c.2 34.62.2 34.62-8.17 50.36l-1.03 2c-3.26 6.03-7.32 10.9-12.28 15.63l-2.41 2.4c-8.6 8.2-18.3 13.13-29.6 16.6l-2.2.68c-18.42 4.66-38.01 1.1-54.21-8.35-12.04-7.53-21.4-18.64-27.9-31.15l-.98-1.86c-5.17-10.5-6.15-21.68-6.1-33.2l-.02-4.02q-.03-5.38-.01-10.76l-.01-9.04q-.03-10.68-.01-21.37.02-10.95-.02-21.9-.04-9.46-.03-18.93l-.01-11.25c-.12-27.42 2.57-47.65 22.5-67.85l1.78-2.03c9.47-10.59 25.09-16.7 39-17.88zM2915 1818l2.98 1.46c15.98 8.48 26.92 22.91 32.82 39.85 3.01 10.32 2.77 20.78 2.89 31.44l.1 6.34q.13 9.46.21 18.91l.03 2.66q.14 15.72.01 31.45l-.06 13.11q-.03 8.91-.12 17.82-.05 4.9-.06 9.83c-.06 24.39-3.23 43.03-20.8 61.13l-1.71 1.93c-10.05 11.01-26.31 17.67-41.07 18.55-22.11.62-42.2-4.52-58.76-19.83-15.44-16.32-21.78-35.52-21.73-57.58l-.02-3.77-.01-10.14-.01-8.52-.01-20.13q.01-10.32-.02-20.64-.03-8.92-.02-17.84l-.02-10.6c-.1-27.52 1.81-51.88 21.94-72.62 21.23-20.99 56.69-26.65 83.44-12.81"/><path fill="#fff" d="M2546.46 2528.59c8.64 7.92 13.94 18.99 15.54 30.4 2.11 2.7 4.06 3.55 7.31 4.45 4.14 1.3 7.22 2.9 10.69 5.56l1.97 1.5c7.04 5.68 11.27 12.56 13.03 21.5.88 8.36-.84 16.28-5.63 23.25-5.55 6.8-14.83 12.63-23.58 14.13q-3.39.2-6.78.17c-1.28 0-1.28 0-2.58.03q-4.18.04-8.37.03l-5.91.05-15.55.08q-7.8.04-15.58.1-13.21.1-26.43.13-7.77.03-15.53.12l-3.37.02-5.73.08c-9.8.06-17.31-1.92-24.96-8.2-7.02-6.92-9.98-14.65-10.38-24.36.3-11.26 6.07-18.52 13.38-26.63l1.82-2.07c6.55-7.04 14.81-11 24.18-12.93l3.44.13q1.26-.08 2.56-.13c1.83-2.2 2.76-4.43 3.86-7.05 4.72-11.15 13.57-23.43 25.03-28.28 17.47-5.57 33.32-3.65 47.57 7.92"/><path fill="#313a4a" d="M3481.31 1943.5c4.74 4.41 6.9 9.89 8.75 16a24 24 0 0 1-5.8 15.59c-8.93 8.46-20.78 8.86-32.45 10.29l-5.07.64-10.53 1.32q-7.4.93-14.79 1.92l-2.35.31-4.67.62a4696 4696 0 0 1-31.3 4.06c-16.95 2.13-33.86 4.4-50.75 7.02q-12.59 1.95-25.25 3.56-9.04 1.16-18.07 2.39c-29.18 4.01-29.18 4.01-39.34 5.09l-2.12.23c-14.99 1.51-14.99 1.51-21.57-3.54-4.28-4.64-6.8-9.39-7.1-15.74.36-7.95 2.57-13.73 8.3-19.45 6.63-4.28 14.14-5.35 21.86-6.19l6.4-.74 3.6-.42q10.26-1.22 20.51-2.52l7.73-.96q17.6-2.21 35.2-4.54c43.6-5.77 43.6-5.77 58.65-7.28l2.01-.21q4.73-.47 9.45-.91c6.84-.65 6.84-.65 13.55-2.04 4.72-1.23 9.38-1.81 14.21-2.38l3.07-.36 6.76-.8q5.16-.63 10.31-1.31 4.55-.6 9.11-1.17l4.46-.59c9.7-1.32 18.13-2.01 27.23 2.11M3252 2087.17l3.19.37 10.25 1.21 7.09.83 17.37 2.05 10.69 1.26c14.09 1.64 28.13 3.45 42.14 5.6a901 901 0 0 0 31.86 4.11c6.92.81 13.78 1.75 20.64 2.94 4.4.73 8.84 1.25 13.27 1.77a1777 1777 0 0 1 36.5 4.9l4.4.6 2.17.31q5.45.78 10.92 1.41 1.09.14 2.2.26l5.97.68c6.87 1.1 11.92 4.1 16.34 9.53 2.68 4.9 4.06 9.45 3 15-2.87 8.03-6.57 12.7-14.14 16.63-4.27 1.78-8.06 1.6-12.61 1.24q-1.24-.07-2.53-.17a199 199 0 0 1-18.67-2.4c-9.4-1.59-18.85-2.7-28.31-3.86a1320 1320 0 0 1-31.4-4.12 1628 1628 0 0 0-43.6-5.63l-15.41-1.85-3.9-.47a5405 5405 0 0 1-28.46-3.46q-7.8-.95-15.57-1.92a800 800 0 0 0-24.9-2.82l-3.67-.36q-3.15-.3-6.3-.52c-7.67-.74-13.5-3.68-18.5-9.64-3.64-7.6-4.63-15-1.84-23.09 8.96-12.66 17.84-12.06 31.8-10.39m-1474.29-.37c4.82-.16 8.3-.25 12.74 1.76 6.49 6.17 10.3 10.7 10.66 19.9-.21 5.6-1.65 9.22-5.04 13.65-6.1 5.58-11.73 7.68-19.87 8.51l-2.91.35q-4.64.55-9.28 1.03l-12.12 1.31-3.33.36c-10.86 1.2-21.67 2.7-32.48 4.2a1854 1854 0 0 1-53.04 6.57l-2.7.3-4.95.54q-6.7.75-13.38 1.72l-3.62.44q-5.2.66-10.41 1.43a821 821 0 0 1-42.82 5.05c-8.72.8-17.38 1.82-26.02 3.25-6.63 1.02-13.45 1.44-19.71-1.3-5.6-4.48-8.75-8.56-9.86-15.73-.4-6.64.66-11 4.73-16.3 5.87-6.3 12.73-8.05 21-9.02l2.42-.3 5.14-.64 13.37-1.65 2.63-.33q9.12-1.13 18.22-2.46c9.42-1.38 18.85-2.64 28.28-3.89q13.3-1.76 26.59-3.6 17.16-2.39 34.33-4.6l8.1-1.06q12.98-1.73 25.96-3.3l2.2-.26 10.77-1.29c6.25-.74 12.48-1.54 18.7-2.52 8.55-1.35 17.06-1.65 25.7-2.12m-209.01-144.42 6.36.82 3.09.41q5.67.77 11.36 1.46 1.86.21 3.78.47l7.76.95a927 927 0 0 1 18.96 2.5c15.95 2.33 31.98 4.1 47.98 6.04 22.89 2.77 45.78 5.54 68.66 8.42l4.27.54 2.04.25q7.48.94 14.98 1.8c6.06.72 12.1 1.43 18.14 2.34l2.3.3c7.28 1.1 13.87 3.46 18.57 9.38 4.2 5.87 4.48 11.41 3.83 18.42-1.1 6.41-3.71 10.25-8.97 14.15-3.46 1.7-6.41 1.86-10.17 1.8l-2.34-.02c-10.95-.28-21.8-2-32.63-3.5-7.92-1.1-15.86-2.07-23.8-3.04a3106 3106 0 0 1-78.7-10.81 913 913 0 0 0-29.97-3.96c-9.02-1.05-18.01-2.28-27-3.54q-9.69-1.37-19.41-2.6l-6.11-.78-5.77-.7c-14.85-1.9-14.85-1.9-19.92-6.2q-.68-.87-1.35-1.79-.7-.86-1.4-1.78c-3.42-4.79-4.56-8.9-4.05-14.73 1.29-6.63 5.05-11.93 10.45-15.91 9.02-4.04 19.59-1.98 29.06-.7M2246 3091c2.37 2.37 2.42 3.38 2.93 6.64l.46 2.9.49 3.15 1.59 10.01a1077 1077 0 0 0 7.69 42.53c2.98 14.84 2.98 14.84 8.15 29.02l.91 2.06a51 51 0 0 0 7.71 12.31c1.07 1.38 1.07 1.38 1.07 3.38q-15.73.27-31.48.49l-14.61.23-14.1.22q-2.7.03-5.39.09l-7.53.11-2.25.05c-3.71.03-6.54-.03-9.64-2.19-4.86-6.2-7.66-13.55-10-21l-1.08-2.99c-4.05-14.48-2.41-33.57 4.08-47.01l1.28-2.91c7.58-15.64 22.69-27.92 38.72-34.09 6.77-1.94 13.94-3.51 21-3m531.9-.03c18.72 2.86 36.17 11 47.77 26.48 10.38 14.57 16.64 31.33 13.63 49.35q-.46 2.48-1 4.95l-.52 2.64a98 98 0 0 1-6.78 20.6l-.96 2.28c-1.6 3.36-2.66 4.59-6.18 5.9a49 49 0 0 1-11.72.97l-2.28-.03-7.4-.13-5.13-.08-13.5-.22q-6.9-.14-13.8-.23L2743 3203q1.95-3.94 4.19-7.75c6.59-12.02 10.45-22.57 12.14-36.18.6-4.9 1.55-9.68 2.6-14.51q2.18-9.97 4.07-20l.5-2.61q1.29-6.81 2.54-13.62l1.02-5.45.46-2.57.45-2.38.39-2.1c1.25-3.58 2.75-4.82 6.54-4.86"/><path fill="#fff" d="m2497.4 2399.86 2.29.01h21.77c5.3.01 5.3.01 7.54 1.13v53c-5.86.84-8.5.81-14 0-4.78-.07-9.56.07-14.34.21l-2.9.05-2.62.06q-1.06-.14-2.14-.32c-2.17-3.26-2.25-4.15-2.24-7.92l-.01-3.02.02-3.26v-3.34q0-3.5.03-6.99l.02-10.76v-6.78l.02-3.27.02-3V2403c.28-4.14 3.03-3.12 6.54-3.14"/><path fill="#de7b19" d="m2473.02 2008.7 2.62-.01 8.52-.03 5.98-.02 12.52-.01q7.96 0 15.92-.06l12.36-.03 5.86-.02c15.06-.11 30.22.77 43.2 9.48l2 3a96 96 0 0 1-6.92-2.92c-9.28-4.4-18.24-6.23-28.45-6.65l-2.85-.12c-12.79-.5-25.59-.53-38.39-.55l-10.88-.06q-4.27-.03-8.56-.02l-5.9-.05c-20.93.06-38.48 6.18-54.05 20.37 3.78-8.7 13.34-13.67 21.73-17.12 8.5-3.2 16.22-5.18 25.3-5.17M2582 2021c3.87 1.75 3.87 1.75 5 4-3.88-1.75-3.88-1.75-5-4m5 4c7.13 4.49 9.7 12.26 11.81 20.06 2.47 11.17 1.22 21.65-4.42 31.84a91 91 0 0 1-4.39 6.1c0-3.41.75-4.68 2.37-7.62 5.85-11.45 5.75-22.94 2.7-35.3-1.36-3.91-3.27-6.98-5.77-10.27-1.3-1.81-1.3-1.81-2.3-4.81m-162 6c0 3.79-1.37 6.1-3.03 9.45-2.19 5.73-2.1 11.52-1.72 17.55l.08 2.04c.21 3.59.78 6.53 2.28 9.77 1.4 3.19 1.4 3.19.4 6.19-5.92-10.84-7.07-21.91-4.08-33.84 1.45-4.3 3.38-7.52 6.07-11.16m-1 45c3.25 3.02 5.61 6.26 8 10l-1 2q-1.76-2.43-3.5-4.87l-1.97-2.75C2424 2078 2424 2078 2424 2076m164 7v3Zm-2 3c0 3 0 3-1.5 4.69l-1.5 1.3-2-1zm-151 5a47 47 0 0 1 8.25 5.06c10.65 7.5 21.71 13.39 34.07 17.56 2.2.78 2.2.78 5.68 2.38.71 2.1.71 2.1 1 4l-1.6-1.36c-2.83-1.93-5.47-2.8-8.72-3.83-12.77-4.44-31.05-12.2-38.68-23.81m144 1 2 1-3 3-2-1zm-5 4 2 1-3 3-2-1zm-5 4 2 1c-9.18 7.26-19.44 11.65-30.37 15.58-3.6 1.13-3.6 1.13-5.63 3.42-1.14 8.54 2.8 17.23 6 25-6.28-4.93-8.19-13.22-9.22-20.8.34-3.47 1.2-5.32 3.22-8.2 3.01-1.75 6.21-2.86 9.5-4l5.43-2.04 2.64-1c5.84-2.32 11.2-5.48 16.43-8.96m-85 20h1q.08 2.63.12 5.25l.07 2.95c-.19 2.8-.19 2.8-2.19 6.8zm-113.5 16.12a60 60 0 0 1 5.5 3.88c-3 0-3 0-6.25-1.5-4.48-1.96-8.24-2.32-12.98-.77-5 2.06-8.8 4.6-12.77 8.27 1.41-3.36 3-5.06 5.93-7.2l2.1-1.53c5.26-3.4 12.8-3.7 18.47-1.15M2482 2135l1 2-3 4c.87-4.87.87-4.87 2-6m186.7 3.45A26 26 0 0 1 2680 2155c.93 8.59.93 8.59-1.53 12.3l-1.47 1.7.36-1.73c1.22-7.7-.09-14.21-3.36-21.27-3.63-4.81-9.1-7.88-15-9-5.29-.05-10.08 1.1-15 3 6.71-7.78 16.61-6.02 24.7-1.55M2641 2141l2 1-2 1zm-264 1 3 1-1 2zm101 1v3l-2 1zm161 1v3Zm-259 1a84 84 0 0 1 8 9l-1 2q-1.48-1.61-2.94-3.25l-1.65-1.83c-1.48-2-1.99-3.5-2.4-5.92m161 0 3 2-1 2zm-198 1c1 2 1 2 .4 3.88l-.9 2.25c-2.07 6.05-1.74 10.24.95 15.97q1.64 3.21 3.37 6.36l1.18 2.54-1 2q-1.45-2.34-2.88-4.7l-1.62-2.62c-3.52-6.25-4.38-11.55-3.5-18.68 1.06-2.7 2.3-4.61 4-7m293 2v3Zm-92 1 7 6c-3 0-3 0-5.19-1.87-1.8-2.13-1.8-2.13-1.8-4.13m-71 1c0 3 0 3-1.53 4.82l-1.97 1.87-1.97 1.88q-.74.71-1.53 1.43l-2-1zm161 1c0 3 0 3-1.32 4.6l-1.68 1.59-1.69 1.6-1.3 1.2q-1-.48-2-1zm-83 5a64 64 0 0 1 9 5.38c5.76 3.69 11.44 5.79 18 7.62l2.12.75c11.36 3.53 25-.13 35.47-4.82l2.41-.93 2 1c-13.47 7.69-27.95 10.35-43.07 6.38-9.79-3.1-18.54-7.15-25.93-14.38zm-162 1 4 2h-3zm4 3a64 64 0 0 1 8.43 3.88 61.7 61.7 0 0 0 44.71 4.19 96 96 0 0 0 12.36-5.86c2.5-1.21 2.5-1.21 5.5-1.21-8.94 6.88-19.67 11.43-31 12l-2.14.19c-10.7.57-26.08-2.58-34.5-9.55-1.43-1.4-1.43-1.4-3.36-3.64m231 0 2 1-4 3-2-1zm52 9 1 3-4 4c1.87-4.75 1.87-4.75 3-7m-4 7v3Zm-324 3 4 3-1 2c-1.5-1.37-1.5-1.37-3-3zm321 1v3l-2 1zm-158.63 1.06c3.52 1.26 5.16 3.2 7.7 5.94 5.47 5.78 11.43 10.4 17.93 15-5.56 0-9.85-4.6-14-8a201 201 0 0 1-7.62-8.1c-2.98-2.37-4.67-2.3-8.38-1.9l-2 4h-3c5.37-7.04 5.37-7.04 9.37-6.94M2352 2184c4.13 3.38 7.81 6.67 11 11a24 24 0 0 1-7.75-5.5l-1.86-1.84C2352 2186 2352 2186 2352 2184m313 0 2 1-3 2zm-4 4 2 1-3 4-2-1zm-161 1v3h-3zm156 4 2 1-4 4-2-1zm-162 1 2 1-5 5-2-1zm-131 1a58 58 0 0 1 9.25 5.63l2.7 1.9 2.05 1.47-2 1-5.44-3.87-3.06-2.18c-2.5-1.95-2.5-1.95-3.5-3.95m287 3 2 1-4 2zm-4 3 2 1c-23.79 15.86-51.14 20.46-79.04 15.18-11.29-2.47-23.59-6.25-32.96-13.18l2-1c2.5 1 4.88 2.05 7.31 3.19 24.35 10.99 50.95 13.44 76.7 5.8l3.08-.9c6.5-2.16 12.34-5.4 18.25-8.8zm-159-1 2 1a97 97 0 0 1-32 15l-3.29.9c-24.7 5.98-51.99 2.26-74.7-8.9l-2-3c8.18 2.64 8.18 2.64 11.6 4.17 7.51 3.29 14.88 4.84 22.95 6.14l3.15.52a92 92 0 0 0 32.3-.58l2.9-.56c11.42-2.25 28.46-6.07 37.1-14.7"/><path fill="#ffdead" d="M2546.46 2528.59c8.64 7.92 13.94 18.99 15.54 30.4 2.11 2.7 4.06 3.55 7.31 4.45 4.14 1.3 7.22 2.9 10.69 5.56l1.97 1.5c7.04 5.68 11.27 12.56 13.03 21.5.88 8.36-.84 16.28-5.63 23.25-5.55 6.8-14.83 12.63-23.58 14.13q-3.39.2-6.78.17c-1.28 0-1.28 0-2.58.03q-4.18.04-8.37.03l-5.91.05-15.55.08q-7.8.04-15.58.1-13.21.1-26.43.13-7.77.03-15.53.12l-3.37.02-5.73.08c-9.8.06-17.31-1.92-24.96-8.2-7.02-6.92-9.98-14.65-10.38-24.36.3-11.26 6.07-18.52 13.38-26.63l1.82-2.07c6.55-7.04 14.81-11 24.18-12.93l3.44.13q1.26-.08 2.56-.13c1.83-2.2 2.76-4.43 3.86-7.05 4.72-11.15 13.57-23.43 25.03-28.28 17.47-5.57 33.32-3.65 47.57 7.92m-61.46 6.4-2.16 2.09c-4.36 4.55-6.32 9.84-7.93 15.8-1.22 2.85-2.44 4.25-4.91 6.12-3.32.62-3.32.62-7.13.88-11.24 1.1-18.66 6.67-25.87 15.12-7.89 10.06-10.12 17.77-8.72 30.53 1.46 8.15 5.24 12.62 11.91 17.35 4.12 2.76 6.52 4.24 11.5 4.3l3 .03 3.3.03 3.47.04q15.9.15 31.81.22 11.74.04 23.48.19 8.27.09 16.54.1 4.93 0 9.86.09c14.69.2 27.75.39 39.85-8.88 7.54-7.9 9.29-14.63 9.15-25.33-.49-8.71-4.64-15.58-10.9-21.42A35 35 0 0 0 2561 2564l-.48-2.5c-2.79-13.35-8.57-26.84-20.35-34.73q-2.55-1.43-5.17-2.77l-1.98-1.58c-17.11-8.06-35.93.53-48.02 12.58"/><path fill="#de7b19" d="M1644 1951c15.29.94 30.4 2.77 45.56 4.88l2.89.4 11.46 1.59c27.01 3.82 27.01 3.82 54.15 6.45 3.84.3 7.46.73 11.19 1.71a42 42 0 0 0 9.25 1.35c5.38.41 8.91 1.81 13.5 4.62l1 2-1.99-.91c-3.65-1.32-7.32-1.97-11.13-2.59l-4.26-.72-2.27-.37q-2.36-.42-4.7-.87c-8.14-1.6-16.34-2.48-24.58-3.37a4610 4610 0 0 1-58.48-6.82l-8.79-1.07q-5.23-.62-10.48-1.27l-5.74-.69c-5.71-.71-11.12-1.5-16.58-3.32zm149 23 3 1-1 2zm3 3c4.27 3.7 6.08 6.4 7 12 .09 6.57-.98 12.67-5 18-6.57 6.08-11.57 7.22-20.41 7.14-5.62-.22-11.1-1.03-16.65-1.89l-7.74-1.12-2.03-.29a577 577 0 0 0-20.73-2.42 1334 1334 0 0 1-53.44-6.96l-3.03-.44-5.84-.86a385 385 0 0 0-15.38-2.01l-5.97-.64-2.78-.51-1-2c9.77.6 19.42 1.74 29.12 3.05l7.25.96q10.91 1.43 21.8 3.08c12.84 1.98 25.73 3.52 38.64 5.03l10.08 1.2 6.21.73q5.91.68 11.81 1.51c4.04.57 8.01.74 12.09.82l2.33.11c5.11.08 8.24-.82 12.23-4.08 4.67-4.57 5.06-9.15 5.45-15.4A29 29 0 0 0 1796 1977m1581-26c-3.27 1.89-6.13 2.45-9.87 2.9l-3.6.44-3.9.46-4.08.51-10.8 1.3-16.96 2.06-4.21.52a2220 2220 0 0 0-40.59 5.39q-9.4 1.3-18.8 2.54l-3.77.52c-5.19.69-10.37 1.38-15.58 1.88-7.41.72-12.98 1.66-18.84 6.48l-3 2c1.4-3.41 2.83-4.84 6-6.69l2.12-1.26c3.99-2.23 7.7-2.54 12.19-2.99 5.42-.57 10.81-1.18 16.19-2.06 4.85-.79 9.7-1.37 14.58-1.88 9.48-1.03 18.92-2.3 28.37-3.61l8.61-1.18 11.55-1.59 2.75-.38 5.08-.7 14.5-1.97 3.48-.48a271 271 0 0 1 19.9-1.95c7.34-.71 7.34-.71 8.68-.26m-155 27 1 2q-.96 2.01-2 4c-1.8 7.6-.79 14.36 2.62 21.31 3.32 3.75 7.33 6.29 12.39 6.95 2.1-.01 4.13-.15 6.22-.36l2.34-.19q3.72-.31 7.43-.71l2.48-.26q7.66-.8 15.3-1.79l7.77-.96q15.34-1.9 30.63-4.26 6.86-1.04 13.73-2.01l2.14-.31 6.45-.91c11.95-1.68 11.95-1.68 23.88-3.49l2.75-.43q2.38-.37 4.75-.77a85 85 0 0 1 15.12-.81l-1 2c-3.15.52-6.26.91-9.44 1.25a1236 1236 0 0 0-35.31 4.69l-5.54.79q-11.73 1.69-23.44 3.41a1594 1594 0 0 1-35.8 4.84l-4.34.54c-27.65 3.51-27.65 3.51-35.32-1.02-5.46-4.47-8.75-9.35-9.81-16.38-.31-5.35.86-10.22 3-15.12zm-613.24 420.87h62.41c63.95.02 127.88.29 191.83 1.13v3l-3-1q-2.74-.14-5.47-.12l-3.46-.01h-3.82l-4.05-.01h-11.14l-12-.01-23.54-.01-19.12-.01-54.17-.01h-5.91l-47.43-.02q-24.33-.03-48.67-.02l-27.33-.02h-23.28l-11.88-.01h-10.86l-5.8-.01-3.48.02-3-.01c-2.67.26-4.3.89-6.59 2.25l1-4q39.37-1.14 78.76-1.13m-243.1.01 19.48-.01h36.41c23.16-.02 46.3.42 69.45 1.13l-1 3q-1.32-.23-2.68-.5c-5.78-.81-11.59-.63-17.4-.62l-4-.01h-303.49c-2.57.03-2.57.03-5.43 1.13v-3q104.32-1.09 208.66-1.12"/><path fill="#ffdead" d="m2497.4 2399.86 2.29.01h21.77c5.3.01 5.3.01 7.54 1.13v53c-5.86.84-8.5.81-14 0-4.78-.07-9.56.07-14.34.21l-2.9.05-2.62.06q-1.06-.14-2.14-.32c-2.17-3.26-2.25-4.15-2.24-7.92l-.01-3.02.02-3.26v-3.34q0-3.5.03-6.99l.02-10.76v-6.78l.02-3.27.02-3V2403c.28-4.14 3.03-3.12 6.54-3.14m-4.4 3.14-.05 20.02-.02 6.82-.03 9.78-.01 3.1v2.85l-.01 2.52c-.1 1.92-.1 1.92 1.12 2.91q3.53.25 7.06.35l2.15.07 4.48.14 6.9.22q2.17.08 4.35.13l2.1.08q2.47.05 4.96.01c1.59-1.59 1.13-3.2 1.13-5.4v-40.69c.08-1.92.08-1.92-1.13-2.9a154 154 0 0 0-8.87-.43l-4.34-.14-6.64-.22-4.21-.14-3.88-.12c-2.98-.18-2.98-.18-5.06 1.04"/><path fill="#ffa519" d="M1726 1282q3.01.43 6 1l1 9-2.44.69-2.56 1.31c-.89 2.55-.89 2.55-1 5-2.38.62-2.38.62-5 1l-2-2c-1.99-.02-1.99-.02-4.12.38l-3.88.62-1-2 1-3-7-2v-2l1.9-.8 2.48-1.08 2.46-1.05c2.3-.99 2.3-.99 4.16-3.07 2.13-.38 2.13-.38 4.56-.56 3.02-.02 3.02-.02 5.44-1.44"/></svg>