<svg xmlns="http://www.w3.org/2000/svg" width="162" height="156" viewBox="223.1 50.6 162.3 155.9"><path fill="#ffa519" d="m268.78 58.84 2.62-.02 8.52-.02 5.96-.02 12.48-.02q7.96 0 15.93-.06l12.3-.02q2.94 0 5.87-.03c13.93-.09 25.17 0 36.1 9.6 6.48 7.3 8.56 12.86 8.6 22.4l.02 2.7.02 8.79.02 6.11.02 12.84q0 8.22.06 16.42l.02 12.65.03 6.05q.02 4.24 0 8.48l.02 4.88A31.8 31.8 0 0 1 368 190c-8.21 6.12-15.83 8.24-26.08 8.27l-2.67.02-8.7.01-6.1.01q-6.36.01-12.74 0-8.13 0-16.27.04-6.27.02-12.56.01l-6 .02c-25.97.11-25.97.11-35.66-9.06-10.15-10.67-9.82-22.49-9.75-36.41l-.01-5.88.02-12.26q.02-7.83-.02-15.65v-17.89c-.06-13.53.55-24.02 10.26-34.25 8.11-7.04 16.63-8.1 27.06-8.14"/><path fill="#fff" d="M290 89c4.17 1.96 8.14 4.25 12.13 6.56l3.4 1.94A604 604 0 0 1 328 111l4.26 2.6 4.43 2.71 4.07 2.5C344 121 344 121 346 124c.67 6.88.67 6.88-1.43 10.4-3.6 3.64-7.7 5.9-12.13 8.41l-5.9 3.42-3.18 1.83q-9.05 5.26-18.05 10.63l-3.56 2.1-3.32 1.97-2.96 1.75A143 143 0 0 0 290 168c-4.57.52-7 .77-10.72-2.1-2.8-3.57-2.9-5.33-2.91-9.83l-.04-4.2.04-4.53v-4.66q0-4.87.03-9.75.05-5 .02-10-.02-7.2.01-14.4l-.01-4.53.05-4.2.01-3.7c.62-3.68 1.62-4.83 4.52-7.1 3.32-1.66 5.38-.85 9 0"/></svg>