<svg xmlns="http://www.w3.org/2000/svg" width="3632" height="2724" viewBox="0 0 3632 2724"><path fill="#ffa519" d="M1579.13 191.93c8.2 5.91 14.55 13.72 20.82 21.59a70 70 0 0 0 5.56 5.98c3.65 3.54 6.78 7.45 9.97 11.41q4.19 5.1 8.53 10.09 5.33 6.17 10.5 12.5c3.88 4.79 7.88 9.48 11.9 14.16q5.22 6.08 10.4 12.22c7.35 8.69 7.35 8.69 15 17.11a165 165 0 0 1 15.35 18.48c2.33 3.21 4.96 6.09 7.64 9.03 2.66 3.03 5.12 6.19 7.58 9.38a223 223 0 0 0 13.15 15.34c2.68 3.02 5.12 6.17 7.54 9.41a88 88 0 0 0 9.37 10.81c4.3 4.12 7.85 8.62 11.46 13.32A229 229 0 0 0 1757 398q1.95 2.18 3.88 4.38l1.61 1.83c1.5 1.79 1.5 1.79 3.06 3.99 1.33 2.04 1.33 2.04 3.83 2.3 2.72-.3 2.72-.3 4.74-2.25 3.52-2.75 6.98-3.9 11.17-5.32 2.68-.88 2.68-.88 5.12-1.98 5.35-1.96 10.91-2.08 16.58-2.08l3.98-.01 4.21.02h2.17c15.99.04 31.77.82 47.68 2.32 10 .89 20 1.33 30.04 1.8a592 592 0 0 1 33.4 2.25c10.9 1.07 21.84 1.48 32.77 1.97 8.35.38 16.65.91 24.97 1.68 16.7 1.53 33.44 2.47 50.17 3.5l10.71.67c23.62 1.48 23.62 1.48 47.25 2.64 22.91.97 47.34 2.13 64.66 19.29a129 129 0 0 1 15.1 21.66c2.3 4.05 4.76 8 7.22 11.97a302 302 0 0 1 9.55 16.54c5.41 10.1 11.18 20.08 22.14 24.83 4.76.99 9.55 1.3 14.41 1.58l2.6.15 8.72.52 6.38.38 10.64.64q15.94.95 31.86 1.93c31.08 1.91 62.16 3.82 93.24 5.53 19.07 1.06 38.14 2.28 57.21 3.53q27.23 1.78 54.5 3.37c28.38 1.65 28.38 1.65 40.36 2.43l3.3.21c10.47.71 20.42 1.73 29.78 6.73l2.48 1.28c7.53 4.13 12.78 9.61 17.52 16.72 2.75.84 2.75.84 6 0 2.82-2.01 5.13-4.46 7.51-6.97l2.13-2.17q3.39-3.45 6.72-6.92l6.7-6.85 4.14-4.27a180 180 0 0 1 12.07-11.34c2.37-2.04 4.53-4.24 6.72-6.48q4.64-4.7 9.32-9.37l2.46-2.5c4.37-4.39 8.8-8.6 13.5-12.63 2.17-1.9 4.2-3.92 6.22-6 2.72-2.77 5.48-5.41 8.43-7.94 3.18-2.72 6.14-5.59 9.08-8.56 2.84-2.89 5.7-5.68 8.8-8.31 4.38-3.74 8.37-7.84 12.4-11.92 3.5-3.53 7.1-6.87 10.9-10.09 3.04-2.7 5.86-5.64 8.72-8.54 2.4-2.36 4.88-4.53 7.47-6.66 2.34-2.04 4.51-4.26 6.7-6.48q4.9-4.94 9.82-9.87l2.61-2.65c4.5-4.51 9.04-8.85 13.87-13a100 100 0 0 0 6.2-5.98c3.3-3.41 6.8-6.52 10.38-9.63 3.48-3.07 6.86-6.24 10.24-9.43l2.23-2.09a675 675 0 0 0 15.97-15.69c3.4-3.42 6.87-6.65 10.55-9.76 3.57-3.18 6.88-6.61 10.22-10.02 3.47-3.54 7.1-6.83 10.85-10.08 4.14-3.63 8.09-7.47 12.07-11.28 6.67-6.34 13.47-11.89 22-15.52l2.45-1.13c11.26-4.52 25.16-4.93 36.6-.81q3.01 1.38 5.95 2.94l2.84 1.5c14.43 8.43 24.38 20.92 28.78 37.03 1.68 7.13 2.27 14.3 2.88 21.6.8 9.35 1.76 18.61 3.43 27.85 1.38 7.63 2.22 15.31 3.07 23.02q.35 3.39.73 6.78l.52 4.59q.76 6.95 1.67 13.88c1 7.8 1.76 15.61 2.5 23.44a549 549 0 0 0 3.59 29.43 166 166 0 0 1 1.67 16.8c.26 2.66.71 5.1 1.28 7.71 1.18 5.69 1.59 11.33 1.97 17.12.8 11 2.13 21.85 3.71 32.76.82 5.81 1.45 11.63 2.12 17.45l.97 8.35q1.1 9.3 2.14 18.63 1.38 12.5 2.85 24.99l.53 4.44q1.52 13.06 3.27 26.11 1.05 7.96 1.97 15.96l.39 3.34q1.28 11.47 2.18 22.97.44 5.63.93 11.25l.2 2.33q.28 2.97.62 5.92l.32 3.14c1.18 3.59 2.68 4.6 5.87 6.61a109 109 0 0 0 8.11 3.38c14.53 5.79 25.91 11.27 32.76 25.95 3.16 7.51 2.2 14.45 1.18 22.35a329 329 0 0 0-1.95 25.47q-.28 6.27-.62 12.54l-.11 2.48a755 755 0 0 1-2.07 27.32q-.56 6.57-1.07 13.14l-.2 2.58-.8 10.32-.55 7.22-.17 2.16q-.39 5.1-1.04 10.18c-.45 3.6-.72 7.16-.9 10.79a404 404 0 0 0-.34 6 966 966 0 0 1-3.12 40.6 1245 1245 0 0 0-2.47 28.56c-.32 4.05-.63 8.07-1.18 12.1-.51 4.23-.7 8.41-.84 12.67a318 318 0 0 1-2.07 24.07 538 538 0 0 0-2.83 33.33 336 336 0 0 1-1.96 21.23 480 480 0 0 0-2.04 22.08q-.45 6.18-.95 12.36-.1 1.24-.18 2.54-.95 12.12-1.97 24.23l-.36 4.36c-.62 7.36-1.34 14.7-2.3 22.03a317 317 0 0 0-1.96 23.46c-.95 16.01-.95 16.01-2 23.5-1.2 8.45-1.62 16.95-2.14 25.46-.44 7.49-.93 14.96-1.86 22.42-1.05 8.22-1.49 16.47-1.95 24.75a783 783 0 0 1-2.5 32.81 1476 1476 0 0 0-3.1 36.4l-.43 5.66-.58 7.95-.18 2.4c-.26 3.89-.37 7.38.74 11.15 2.28 2.3 8.31 1.25 11.48 1.26 12.73-.13 25.4-1.51 38.06-2.68 7.72-.71 15.47-1.3 23.2-1.88q7.92-.58 15.8-1.27 9.23-.8 18.45-1.43l2.6-.18c15.3-.97 15.3-.97 21.74 4.35 4.84 5.32 6.97 11.63 6.66 18.83-1.82 6.19-5.32 11.96-11.07 15.15-6.84 2.83-13.26 3.73-20.6 4.26l-3.66.31q-5.78.47-11.55.91l-7.53.61c-13.6 1.11-27.2 2.1-40.8 3.06q-13.35.93-26.7 2.02l-4.45.36q-3.33.25-6.67.54l-3.86.31c-3.26.27-3.26.27-6.1 2.47a58 58 0 0 0-.93 7.17l-.18 2.16-.53 6.86q-.26 3.4-.55 6.8l-.33 4.24q-.34 4.67-1 9.32c-.5 3.52-.77 7.01-.98 10.56-.08.99-.08.99-.14 1.99l-.36 6.21c-.49 7.87-.98 15.71-1.8 23.55a118 118 0 0 0-.47 9.58l-.06 3.56c.09 2.89.09 2.89 1.33 4.58 3.07 2.2 6.52 2.52 10.18 3.1l2.49.43q3.94.68 7.89 1.33l10.24 1.74 2.59.44a437 437 0 0 1 21.53 4.46 426 426 0 0 0 16.64 3.36q14.92 2.82 29.8 5.86a321 321 0 0 0 17.93 3.12 23.8 23.8 0 0 1 14.13 8.52c3.1 6.08 4.93 11.55 2.89 18.33-2.18 5.44-4.53 8.4-9.32 11.73l-2.27 1.61c-3.4 1.73-5.8 1.76-9.6 1.7l-3.56-.01c-3.76-.32-6.96-1.22-10.57-2.3-2.89-.58-5.78-1.04-8.68-1.5l-2.4-.39q-5.18-.84-10.34-1.64c-4.82-.77-9.53-1.67-14.26-2.91a175 175 0 0 0-14.32-3 633 633 0 0 1-18.87-3.5l-2.52-.5q-6.44-1.3-12.86-2.7l-2.57-.57-4.82-1.07c-4.51-.99-8.72-1.67-13.36-1.22-2.45 3.68-2.32 5.66-2.5 10.06l-.22 4.72-.14 2.58c-.24 4.59-.64 9.18-1.01 13.77a1373 1373 0 0 0-2.05 29.59q-.48 7.79-.93 15.57a335 335 0 0 1-2.66 27.76c-1.1 8.78-1.5 17.63-2.05 26.45l-.58 8.9-.34 5.48c-.3 4.76-.83 9.41-1.51 14.12q-.17 2.71-.26 5.43l-.1 2.97-.17 6.06a65 65 0 0 1-2.47 16.54q-.41 1.54-.8 3.13c-5.36 19.2-17.68 35.96-35.03 45.91-11.96 6.65-23.65 10.98-37.4 11.61l-2.64.12c-9.32.38-18.57-.04-27.9-.58l-5.32-.29a726 726 0 0 1-29.1-2.15c-13.1-1.16-26.26-1.49-39.4-1.96a536 536 0 0 1-31.78-2.1c-7.25-.69-14.47-1-21.76-1.13a511 511 0 0 1-33.2-2 873 873 0 0 0-39.93-2.62 642 642 0 0 1-31.62-1.94c-13.02-1.23-26.07-1.69-39.12-2.21-9-.38-17.95-.92-26.9-1.79a563 563 0 0 0-34.1-2 607 607 0 0 1-36.94-2.27c-10.2-.97-20.43-1.4-30.68-1.83-9.09-.39-18.1-.92-27.14-1.9-10.3-1.11-20.57-1.53-30.9-1.89-28-.98-28-.98-40.22-2.17-9.7-.95-19.4-1.29-29.12-1.56l-2.26-.07q-6.86-.18-13.74-.31l-2.18-.08c-1.94-.05-3.88.01-5.82.08l-2 2c.21 5.48 2.65 9.63 5.23 14.31q1.39 2.53 2.74 5.06l1.47 2.73q2.46 4.63 4.83 9.28c8.04 15.8 8.04 15.8 17.72 30.62l2.32 3.32c8.5 12.17 17.55 23.82 27.68 34.68l3.55 3.86c11.76 12.76 24.13 23.32 38.2 33.49a345 345 0 0 1 6.5 4.89 64 64 0 0 0 9.13 5.76 166 166 0 0 1 10.3 5.88c4.4 2.66 8.92 5.01 13.5 7.31l2.03 1.01a171 171 0 0 0 18.03 7.74q4.3 1.52 8.57 3.1a243 243 0 0 0 15.78 5.25c5.09 1.5 10.06 3.11 14.91 5.27a50 50 0 0 0 10.28 2.91c2.21.53 2.21.53 4.64 1.53a37 37 0 0 0 8.09 2 46 46 0 0 1 10.5 3q2.46.56 5 1a49 49 0 0 1 10 3q2.22.52 4.5 1c3.34.71 6.31 1.7 9.5 3l3.36.75c4.76 1.13 9.2 3.01 13.7 4.86a233 233 0 0 0 13.3 4.95 85 85 0 0 1 15.64 7.44q2.48 1.38 5 2.74a153 153 0 0 1 21 14.26l2.82 2.25c16.32 13.16 16.32 13.16 22.89 21.22 1.4 1.73 1.4 1.73 3.72 3.78 3.13 3.37 5.4 7.03 7.8 10.94 1.5 2.4 3.07 4.69 4.7 7 8.2 12.24 13.21 25.38 16.32 39.7a30 30 0 0 0 1.8 6.13c3.79 11.91 2.14 26.6 1.95 38.98l-.07 3.74c-.54 12.38-4.8 23.87-10.6 34.71-1.37 2.51-1.37 2.51-2.36 5.09-3.33 8.3-9.05 16.81-14.97 23.46h-3l.24-1.73c2.09-16.54-1.7-33.46-9.24-48.27l-.94-2.1c-2.26-4.99-4.72-8.5-9.07-11.9-3.74-.15-5.37.57-8.43 2.69-1.86 2.25-1.86 2.25-1.5 5.25.95 3.13 2.21 5.27 3.93 8.06 1.07 2.49 2.05 5 3.03 7.53q1.19 3 2.6 5.91c1.55 4.04 2.26 7.93 2.94 12.2.32 2.37.32 2.37 1.43 4.36 1.43 8.96 2.53 18.59-1.22 27.04a30 30 0 0 0-1.6 6.52c-1.61 7.46-6.47 11.13-12.55 15.32q-3.3 2.09-6.62 4.12l-1.84 1.12a152 152 0 0 1-23.6 11.82l-2.2.85c-6.31 2.38-12.59 4.21-19.36 4.21.36-2.72.63-4.56 2.4-6.71 2.1-3.02 2.9-6.13 3.72-9.66l.51-2.23c4.74-22.18 3.57-46.19-7.32-66.4-2.12-3.21-4.02-5-7.32-7-3.36-.08-4.65.76-7.37 2.69-1.95 2.26-1.95 2.26-1.5 5.37.76 3.09.76 3.09 2.88 5.94q1.31 4.06 2.5 8.19l.63 2.21c6.2 21.49 6.16 39.01-4.8 58.94a227 227 0 0 1-3.34 5.66l-1.9 3.3c-3.3 4.26-6.93 5.64-12.13 6.43q-2.3.25-4.6.46l-2.5.24c-41.8 3.62-84.32-6-121.86-24.43l-1.89-.91a600 600 0 0 1-16.34-8.23c-18.8-9.59-36.55-20.6-54.17-32.19a870 870 0 0 0-15.55-9.92 586 586 0 0 1-23.32-15.54 815 815 0 0 0-68.75-42.54q-3.87-2.16-7.7-4.37c-24.4-14.03-50.97-26.57-79.28-29.3l-2.44-.52c-16.74-3.1-34.77 1.01-49.76 8.4l-2.01.99a52 52 0 0 0-9.36 5.95c-2.74 2.02-3.3 2.18-6.95 2.16a85 85 0 0 1-10.42-3.67l-4-1.64-2.05-.85c-3.2-1.3-6.45-2.5-9.7-3.69a992 992 0 0 1-19-7.32l-2.59-1.01c-4.13-1.65-7.99-3.34-11.72-5.8a68 68 0 0 0-10.14-5.18c-4.7-2.06-9.18-4.6-13.7-7.02l-5.5-2.91c-16.3-8.67-30.76-19.5-44.66-31.57a229 229 0 0 0-9.94-8.19c-17.12-13.59-31.87-29.79-45.06-47.13l-3.63-4.56c-2.8-3.59-5.37-7.31-7.95-11.06l-4.42-6.38c-.84-1.18-.84-1.18-1.67-2.39-2.5-3.28-3.85-4.52-7.96-5.3-3.39.47-3.39.47-5.82 2.32-2.03 3.1-1.92 4.69-1.55 8.37 1.45 3.17 1.45 3.17 3.56 6.25l1.1 1.71c3.3 5.11 6.78 10.09 10.34 15.04l3.37 4.88q1.8 2.56 3.63 5.12l1.9 2.73c6.1 8.45 13.1 15.86 20.3 23.37q3.13 3.33 6.14 6.73a213 213 0 0 0 18.66 18.17l1.63 1.44A204 204 0 0 0 1967 2088l2.08 1.41 4.3 2.86q3.06 2.02 6.08 4.08c17.48 11.81 36.54 23.7 56.47 30.87 2.17.82 4.26 1.75 6.38 2.72A199 199 0 0 0 2058 2136l3.84 1.38c12.35 4.4 24.72 8.7 37.28 12.5 20.8 6.33 41.55 13.03 60.88 23.12l2.9 1.39c38.9 18.64 67.69 49.55 85.1 88.61l1.3 2.87c12.79 29.61 12.4 67.35.7 97.13-5.82 13.6-13.52 27.49-24 38-2.15.63-2.15.63-4 1l.02-1.87c.24-16.82.03-32.21-6.03-48.13l-.9-2.68c-2.16-6.1-5-11.19-10.1-15.32-3.53-1.48-3.53-1.48-7-1-3.03 1.46-3.03 1.46-5 4-.68 4.63 1.09 7.6 3.24 11.63 10.59 20.31 14.76 42.11 8.5 64.43l-.57 2.17c-2.32 7.69-7.76 11.46-14.24 15.71l-1.98 1.31A138 138 0 0 1 2170 2442l-2.34 1.11c-25.72 11.99-25.72 11.99-34.66 8.89l.97-2.16 1.34-2.9 1.3-2.85q.66-1.52 1.39-3.09c.77-1.56.77-1.56 1.59-3.16 2.08-4.88 2.22-10.04 2.59-15.28l.24-3.02c.68-8.64.68-16.98-.24-25.6l-.22-2.32A40 40 0 0 0 2138 2378q-.78-2.2-1.45-4.44c-1.74-5.3-3.66-10.39-7.37-14.62-3.39-1.45-5.68-.88-9.18.06-2.56 1.54-2.56 1.54-4 4-.73 4.81.54 6.99 3 11 8.3 18.78 10.36 40.63 3 60-7.37 17.45-7.37 17.45-14 23-1.96.46-1.96.46-4.12.65l-2.42.2a228 228 0 0 1-14.28.42c-25.57.23-48.49-1.97-73-9.59q-2.81-.86-5.64-1.67c-13.51-3.92-26.75-9.17-39.54-15.01l-3.6-1.64a884 884 0 0 1-52.6-26.83q-5.14-2.8-10.3-5.53-7.87-4.18-15.68-8.46-3.88-2.1-7.76-4.15c-7.4-3.9-14.71-7.97-22-12.08l-2.94-1.65c-4.1-2.32-8.17-4.65-12.14-7.18a140 140 0 0 0-9.12-5.26 392 392 0 0 1-18.05-10.55l-5.43-3.3q-9.48-5.76-18.79-11.71c-3.43-2.19-6.9-4.31-10.37-6.44a433 433 0 0 1-24.47-15.99 421 421 0 0 0-6.17-4.21A552 552 0 0 1 1718 2284l-3.8-2.95q-5.12-4-10.2-8.05l-3-2.37a148 148 0 0 1-14.64-13.29 111 111 0 0 0-5.9-5.39c-5.66-4.9-10.88-10.26-16.15-15.57l-3.1-3.11-5.66-5.7-7.55-7.57-1-1c-3.58-.4-5.38-.43-8.38 1.63-1.79 2.28-1.79 2.28-2.26 5.06 2 10.55 12.98 19.68 20.33 26.99 2.3 2.32 2.3 2.32 4.62 5.2 2.46 3 5.24 5.43 8.19 7.94q3.84 3.39 7.55 6.91c6.73 6.33 13.52 12.63 21.22 17.79l1.73 1.48v3l-17.6 2.83-5.96.95c-21.1 3.41-42.1 6.46-63.44 7.85l-2.82.18A962 962 0 0 1 1561 2309l-2.03.03a587 587 0 0 1-57.47-1.76 454 454 0 0 0-10.45-.67c-28.22-1.6-56.22-5.82-84.05-10.6l-2.42-.41c-7.47-1.3-14.8-2.81-22.1-4.91a89 89 0 0 0-7.25-1.62c-5.66-1.06-11.17-2.67-16.73-4.25a29 29 0 0 0-9.5-.81c-3.63 2.47-6.25 5.24-9.08 8.56-8.15 9.56-18.1 17.67-27.92 25.44l-2.82 2.29c-18.95 15.12-39.85 26.5-62.18 35.71l-2.55 1.08c-25.93 10.85-54.57 15.38-82.6 14.82l-2.58-.04q-6.34-.1-12.67-.41c-7.9-.48-7.9-.48-15.14 2.15a30 30 0 0 0-4.46 6.4l-1.8 3.05q-.62 1.4-1.28 2.83c-1.8 3.84-3.7 7.51-5.92 11.12a115 115 0 0 0-5.83 10.75c-7.25 14.73-17.23 28.09-28.17 40.25l-1.62 1.88c-16.36 19.19-35.08 32.68-59.2 40.4q-2.13.7-4.23 1.5c-18.75 7.01-42.76 6.17-61.96 1.22a93 93 0 0 1-4-2l-3.87-.69c-10.7-2.25-20.59-8.74-29.12-15.31l-1.87-1.35c-14.07-11-22.91-29.94-25.54-47.33-3.38-32.36 6.68-62.04 22.15-90.05 1.63-2.97 3.18-5.97 4.75-8.98A295 295 0 0 1 933 2304l1.57-2.46q2.6-4.08 5.25-8.16l1.7-2.67 1.63-2.5 1.45-2.24c2.58-3.63 2.58-3.63 4.4-4.97 2.78-.38 2.78-.38 6.2-.41l3.81-.06 2.03-.01c46.47-.42 93.32-12.35 130.97-40.52l3-2.23c23.67-17.39 23.67-17.39 42-39.77.43-4.12.33-5.49-2-9-3.63-1.21-6.2-1.37-10-1-2.7 1.89-2.7 1.89-4.94 4.56l-2.6 2.78-2.46 2.66q-2.95 2.68-5.98 5.24a134 134 0 0 0-4.15 3.77c-10.5 9.88-22.66 17.89-35 25.27a153 153 0 0 0-5.16 3.22c-43.29 28.02-102.7 31.3-151.99 21.33A250 250 0 0 1 883 2248l-2.9-1.03a278 278 0 0 1-57.87-28.38c-11.03-7.15-22.1-11.53-35.3-8.9-14.94 4.32-22.04 18.34-29.44 30.82a776 776 0 0 1-24.17 37.99l-1.19 1.75a363 363 0 0 1-33.7 43l-1.56 1.72a152 152 0 0 1-86.87 46.7q-2.51.43-5 .91c-21.91 3.09-44.02-1.7-64-10.58l1-3c2.09-.7 2.09-.7 4.93-1.25 27.84-6.42 49.92-23.56 67.76-45.44l1.35-1.58c2.42-3.08 2.97-4.54 2.8-8.5-.93-3.88-.93-3.88-3.84-6.23-3.64-.43-5.37-.46-8.37 1.75l-2.28 2.46-2.59 2.7q-1.31 1.43-2.7 2.9c-8.07 8.42-16.2 15.9-26.05 22.19l-1.93 1.25C553.78 2340.33 531 2349.2 510 2345c-4.42-2.01-7.55-4.65-11-8l-2.36-1.89c-8.33-6.8-14.63-15.65-19.64-25.11q-.74-1.16-1.47-2.37a49 49 0 0 1-3.67-7.82l-1-2.6c-2.24-8.27-2.06-16.95-2.05-25.46v-3.32c.14-19.78.14-19.78 4.19-27.43l.8-3.44c2.12-8.88 5.88-17.28 10.07-25.37a81 81 0 0 0 2.55-5.63c3.73-8.49 8.6-16.37 13.5-24.23q2.07-3.33 4.12-6.69c3.6-5.92 7.32-11.66 11.35-17.29a90 90 0 0 0 5.37-9.24c1.5-2.58 3.35-4.78 5.24-7.11q2.1-3.02 4.17-6.06c4.03-5.88 8.25-11.6 12.55-17.27q2.85-3.77 5.66-7.55c8.2-10.96 16.45-21.83 25.25-32.31q3.11-3.7 6.1-7.5c9.22-11.54 18.53-22.9 28.68-33.64q2.59-2.73 5.13-5.49A597 597 0 0 1 633 2012l9.8-9.84 5.5-5.53 2.77-2.79a240 240 0 0 1 22.92-20.4l1.85-1.44 3.57-2.78q1.95-1.5 3.88-3.05c4.38-3.43 8.99-6.07 13.9-8.66a171 171 0 0 0 7.98-4.63c9.64-5.82 19.63-10.31 30.75-12.39 2.16-.45 2.16-.45 4.4-1.46 4.37-1.68 8.88-2.32 13.49-3.09l3.18-.55a162 162 0 0 1 22.5-1.83c9.96-.21 18.3-1.79 27.5-5.56l2.37-.94c31.34-14.07 46.6-50.38 60.73-79.22q2.92-5.95 5.91-11.87 2.41-4.77 4.75-9.58a569 569 0 0 1 13.87-26.33l1.91-3.48a198 198 0 0 1 10.19-16.66c1.32-2 2.47-4.04 3.59-6.17 3.02-5.57 6.7-10.7 10.35-15.87q2.13-3.01 4.23-6.04c7.06-10.11 14.28-20.05 22.17-29.54q.75-.94 1.54-1.89 1.48-1.8 2.99-3.57c2.23-2.72 3.37-4.54 3.82-8.06-.25-2.98-.25-2.98-2.41-5.78a81 81 0 0 1-1.33-4c-1.78-5.55-4.16-10.74-6.67-16l-1.46-3.05a118 118 0 0 0-11.8-19.68c-14.3-19.88-30.67-35.22-50.74-49.27l-2.51-1.82a130 130 0 0 0-15.76-9.67 94 94 0 0 1-7.5-4.7c-9.15-5.95-19.34-10.24-29.24-14.81l-2.87-1.32a394 394 0 0 0-16.75-7.24 367 367 0 0 1-12.77-5.41 246 246 0 0 0-14.74-5.9q-11.17-4.22-22.25-8.69a510 510 0 0 0-12-4.56 202 202 0 0 1-14.2-5.84 130 130 0 0 0-7.62-2.94c-17.26-6.26-33.72-14.3-49.84-23.04q-2.5-1.35-4.99-2.63c-13.7-7.2-26.57-16.19-38.97-25.43l-1.73-1.28c-9.7-7.27-18.56-15.3-27.26-23.72-1.35-1.29-1.35-1.29-2.7-2.61-4.68-4.6-9.1-9.36-13.3-14.39l-1.41-1.67a261 261 0 0 1-20.52-27.64q-1.51-2.35-3.05-4.69c-13.33-20.52-24.6-43.68-32.02-67l-1.23-3.77c-2.15-6.67-4.15-13.23-5.38-20.14-.42-2.34-.42-2.34-1.4-5.53a139 139 0 0 1-3-14.56l-.5-2.78a317 317 0 0 1-2.8-20.35A125 125 0 0 0 511 1266c-2.3-19.6-1.3-39.47 1-59l.36-3.16q.54-4.92 1.15-9.84.15-1.52.35-3.1l.67-5.46A38 38 0 0 1 517 1178q.56-3.24 1-6.5c.55-4.2 1.42-7.58 3-11.5q.45-2.05.88-4.14c1.15-5.4 2.96-10.5 4.85-15.67l1.09-2.93a137 137 0 0 1 7.84-17.72c1.63-3.11 2.96-6.31 4.34-9.54a195 195 0 0 1 17-30l1.26-1.87c11.83-17.14 26.85-33.84 45.74-43.13l4.24-2.44c21.05-11.59 46.66-13.89 69.8-7.75A75 75 0 0 1 693 1031l3.35 1.71c19.42 10.2 32.54 26.52 39.46 47.42 6.38 23.33.61 48.31-8.82 69.87l-2.32 5.69c-1.4 3.39-2.86 6.72-4.5 10-14.2 28.68-19.78 57.51-19.17 89.31q0 1.7.04 3.47c1.34 30.15 18.37 61.18 39.96 81.53a140 140 0 0 0 11 9l2.33 1.78a148 148 0 0 0 35.25 18.93c3.52 1.33 6.96 2.8 10.41 4.29q4.99 2.04 10 4l2.04.82c11.51 4.6 11.51 4.6 23.3 8.38 5.88 1.76 11.63 3.93 17.4 5.99q4.47 1.6 8.96 3.17l8.43 2.98 4.96 1.75c5.6 2 11.08 4.19 16.55 6.5q4.72 1.97 9.45 3.9 4.38 1.8 8.75 3.62l4.2 1.73a244 244 0 0 1 27.8 13.83q4.94 2.79 10.1 5.21c14.92 7.34 28.64 17.35 42.06 27.12q.84.62 1.73 1.25a404 404 0 0 1 22.99 18.19c12.27 10.33 23.93 21.26 34.29 33.56l2.65 3.07c19.46 22.43 19.46 22.43 26.81 34.5 1.88 3 3.98 5.79 6.17 8.58a79 79 0 0 1 4.37 6.85l2.77 4.62 3.15 5.26 1.6 2.64 1.56 2.6q.74 1.24 1.53 2.51 1.3 2.23 2.48 4.53c1.76 3.63 1.76 3.63 5.07 5.65 3.7.25 6.7-.73 10.16-1.91l2.16-.69 4.54-1.49q5.92-1.95 11.88-3.85l2.38-.76a345 345 0 0 1 47.2-11.57 480 480 0 0 1 75.43-7.79l2.24-.05q4.51-.1 9.04-.18l6.72-.14 3.98-.08c3.2.02 3.2.02 5.1-2.3.43-2.73.43-2.73.57-5.95l.22-3.73.1-1.98q.29-5.12.6-10.23l.13-2.08q.6-9.5 1.45-18.97l.24-2.79c.3-3.53.65-7.03 1.18-10.54.55-4 .82-7.97 1.02-11.99l.12-2.35q.18-3.76.38-7.51l.25-5.16.5-10.11q.3-5.88.63-11.75l.3-5.67.14-2.56q.13-2.81.18-5.63c-1.63-1.62-3.42-1.13-5.67-1.13l-3-.01-3.3.02-3.4.01a961 961 0 0 0-36.4 1.05l-6.48.26-3.23.13-6.35.26q-7.58.29-15.15.84l-2.87.2q-2.64.18-5.28.42c-5.9.39-9.93-.8-14.87-4.05-2.04-1.82-2.04-1.82-3.38-3.56l-1.4-1.76c-4.49-6.14-4.22-12.36-3.22-19.68 1.75-3.71 3.98-6.25 7-9 1.25-1.24 1.25-1.24 2.56-2.5 12.88-5.62 32.4-3.12 46.3-3.62l10-.38 3.08-.11A138 138 0 0 0 1270 1403q3.9-.18 7.83-.25l4.4-.1 6.9-.13 6.7-.14 2.09-.03c3.97 0 3.97 0 7.08-2.35.29-2.41.45-4.73.56-7.15l.1-2.18.22-4.63q.28-6.07.62-12.13l.12-2.4c.3-5.49.73-10.93 1.38-16.38 1.08-9.65 1.59-19.32 2.12-29q.05-1.19.13-2.41c1.07-14.87 1.07-14.87.75-29.72-2.8-2.8-6.02-3.11-9.77-3.94l-2.34-.53q-8.33-1.86-16.7-3.62a1285 1285 0 0 1-20.7-4.67 416 416 0 0 1-18.08-4.58c-3.06-.83-6.13-1.52-9.24-2.16l-3.56-.76q-3.63-.75-7.3-1.42c-16.06-3.08-16.06-3.08-21.2-9.76L1201 1260l-1.7-2.87c-1.91-4.58-2.12-7.87-.43-12.59 2.63-5.78 5.73-10.08 11.13-13.54 7.98-2.66 19-2.02 26.73 1.21 3.98 1.4 8.17 1.74 12.35 2.26 2.75.5 4.46 1.28 6.92 2.53q2.9.58 5.87 1c4.25.66 8.03 1.64 12.13 3q4.53.79 9.09 1.44c2.9.56 2.9.56 5.33 1.56 3.22 1.26 6.31 1.63 9.75 2.06 6.63.84 6.63.84 8.83 1.94 3.04.17 3.04.17 6 0 7.36-7.36 4.75-35.38 5.25-46.05.37-7.47.9-14.87 1.73-22.31 1.1-9.7 1.6-19.39 2.02-29.14a452 452 0 0 1 2.23-31.42c.87-7.78 1.43-15.57 1.96-23.38l.94-13.52.2-2.92q1.2-16.94 2.47-33.88l.75-10.2q1.4-18.98 3-37.94.77-9.09 1.45-18.18.7-9.57 1.5-19.13 1.52-18.55 2.62-37.12a891 891 0 0 1 2.2-28.77q.93-10.52 1.25-21.08c.2-5.58.74-11.1 1.36-16.65a710 710 0 0 0 2.63-33.56l.57-9.03.35-5.55c.3-4.77.84-9.44 1.52-14.17q.27-4.06.45-8.11l.24-4.73.35-7.3c.41-8.81.96-17.56 1.96-26.32a365 365 0 0 0 1.83-26.87 1130 1130 0 0 1 2.36-42.35l.34-4.58c.76-10.97 1.93-20.8 9.84-29.05l2.2-2.37c4.75-4.56 9.3-8.01 15.24-10.88l1.84-.91q6.23-3.04 12.66-5.61c2.03-.95 2.03-.95 3.69-3.92.34-1.98.34-1.98.42-4.12.38-4.14 1.41-7.6 2.81-11.49 1.13-3.55 1.68-7.17 2.3-10.84.59-3.25 1.56-6.37 2.47-9.55q.45-2.4.87-4.81c1-5.71 2.23-11.34 3.51-16.99a949 949 0 0 0 4.21-19.74c.95-4.56 2.12-8.99 3.4-13.46q.55-2.71 1-5.44c.67-3.88 1.47-7.68 2.47-11.49 1.94-7.64 3.44-15.41 5.04-23.14.96-4.71 2.15-9.3 3.5-13.93q.53-2.74 1-5.5c.73-4.27 1.8-8.33 3-12.5l1-5.56a77 77 0 0 1 3-11.44q.77-4.1 1.42-8.22A74 74 0 0 1 1446 424q.75-3.2 1.42-6.44c.4-1.82.4-1.82.78-3.68l1.58-7.88.4-1.99 1.07-5.54A147 147 0 0 1 1454 388q.52-2.5 1-5a88 88 0 0 1 2-8.44 93 93 0 0 0 2-9.06 110 110 0 0 1 3-12.5l1-5a88 88 0 0 1 2-8.44 84 84 0 0 0 1.87-8.43c.88-5.03 1.95-9.98 3.13-14.94q.23-1.07.5-2.18a101 101 0 0 1 2.56-9.18 53 53 0 0 0 1.94-8.27 114 114 0 0 1 3-12.56l1-5a88 88 0 0 1 2-8.44 83 83 0 0 0 1.87-8.5c1.3-7.33 3.11-14.52 4.9-21.74a197 197 0 0 0 3.21-15.19c2.48-14.11 12.65-25.43 23.91-33.67 20.32-14.12 43.7-12.14 64.22.47"/><path fill="#313a4a" d="m693 1031 3.36 1.71c19.42 10.2 32.54 26.52 39.45 47.41 6.39 23.34.62 48.32-8.81 69.88l-2.31 5.69c-1.4 3.39-2.87 6.72-4.5 10-14.21 28.68-19.8 57.51-19.19 89.31l.05 3.47c1.33 30.15 18.36 61.18 39.95 81.53 3.51 3.21 7.19 6.16 11 9l2.34 1.78a148 148 0 0 0 35.26 18.93c3.51 1.33 6.95 2.8 10.4 4.29q4.99 2.04 10 4l2.05.81c11.5 4.61 11.5 4.61 23.29 8.39 5.87 1.76 11.62 3.93 17.4 5.99q4.47 1.6 8.96 3.17l8.44 2.98 4.95 1.75c5.6 2 11.09 4.19 16.56 6.5q4.7 1.97 9.44 3.9l8.76 3.62 4.18 1.73a243 243 0 0 1 27.8 13.83q4.96 2.78 10.11 5.21c14.93 7.34 28.65 17.35 42.06 27.12l1.72 1.25A399 399 0 0 1 1017 1481l1.71 1.44c12.29 10.33 23.95 21.26 34.29 33.56l2.66 3.07c19.47 22.43 19.47 22.43 26.82 34.5 1.88 3 3.97 5.79 6.16 8.58a79 79 0 0 1 4.36 6.85l2.78 4.62 3.16 5.26 1.59 2.64 1.56 2.6 1.52 2.51a80 80 0 0 1 2.48 4.53c1.76 3.63 1.76 3.63 5.07 5.65 3.71.25 6.72-.73 10.18-1.91l2.14-.69 4.54-1.49q5.95-1.95 11.89-3.85l2.38-.76A346 346 0 0 1 1187 1577l2.5-.46a454 454 0 0 1 84.5-7.6l4.7.01 11.3.05c.87 3.48.9 5.58 0 9q-.3 4.18-.46 8.37l-.24 5.09-.24 5.42c-.49 11.14-1.07 22.17-2.44 33.24-1.63 14.63 1.2 29.99 8.38 42.88l1.75 3.94c9.4 18.2 26.91 31.77 46.25 38.06a95 95 0 0 0 6.67 1.53q2.19.43 4.36.98c5.91 1.47 11.58 1.84 17.66 1.99s11.99.55 18.01 1.47c7.06 1.07 14.1 1.52 21.23 1.86a640 640 0 0 1 39.12 3.13 276 276 0 0 0 22.44 1.66c4.23.15 8.29.64 12.47 1.31 10.99 1.64 22.09 1.99 33.16 2.57 13.15.7 26.24 1.44 39.33 2.83 5.68.6 11.33.96 17.05 1.11a318 318 0 0 1 25.38 2.06c9.63 1.11 19.15 1.8 28.84 2.09 8.2.28 16.31 1.05 24.47 1.91a376 376 0 0 0 30.37 2 398 398 0 0 1 33.61 2.41c8.63.92 17.2 1.46 25.87 1.75 5.57.2 11.05.61 16.58 1.28 9.17 1.08 18.36 1.54 27.57 2q22.88 1.16 45.71 3.01 12.07.96 24.17 1.55c8.51.4 16.99 1.01 25.48 1.74q20.84 1.8 41.71 3.06 10.82.67 21.62 1.7c10.46.98 20.94 1.46 31.43 1.94a1721 1721 0 0 1 79.59 5.44l5.95.53 3.55.34 3.08.3c2.52.45 2.52.45 5.52 2.45.34 2.08.34 2.08.28 4.68l-.04 2.94-.1 3.19-.06 3.26-.17 6.85q-.14 5.25-.23 10.5l-.16 6.64-.06 3.18-.16 5.55c-.3 2.21-.3 2.21-2.3 5.21-1.96.72-1.96.72-4.37 1.21l-2.66.58-2.85.59c-8.14 1.81-15.59 3.96-23.12 7.62l-3.45 1.59c-8.69 4.1-16.22 9.17-23.73 15.14-1.82 1.27-1.82 1.27-3.82 1.27v2c-1.5 1.48-1.5 1.48-3.56 3.19l-2.23 1.92-3.95 3.38c-19.9 18.38-31.79 50.96-33.26 77.51-.28 8.41.36 16.44 1.69 24.75l.55 3.45c4.95 29.72 19.9 56.06 43.76 74.8 4.23 2.85 8.59 5.44 13 8l3 1.88a93 93 0 0 0 23 10.12l1.93.6c22.85 6.85 50.5 5.63 73.07-1.6l3.7-1.16c30.62-10.85 54.45-34.09 68.42-63.15 6.3-14.03 10.29-29.31 10.88-44.69l.1-2.15c.79-19.13-2.7-36.25-10.1-53.85l-.99-2.5c-12.49-30.12-37.14-50.5-66.64-63.04A119 119 0 0 0 2113 1827c-1.92-1.92-1.13-5.4-1.13-7.94l-.01-2.14.02-6.92v-2.35c.06-31.59.06-31.59 2.12-33.65 4.78-.15 9.4 0 14.15.48 5.5.52 10.98.79 16.5.98l6.05.24 9.31.35c11.26.41 22.43 1 33.63 2.22 8.55.91 17.11 1.28 25.7 1.62a953 953 0 0 1 41.73 2.43 323 323 0 0 0 21.59.98q5.91.13 11.83.18l4.31.08 3.85.04c3.61.43 5.51 1.16 8.35 3.4a75 75 0 0 1 2.14 5.56c1.8 5.1 4.43 9.87 6.86 14.69l1.75 3.47c11.31 22.35 23.76 42.6 39.25 62.28l1.31 1.67a163 163 0 0 0 14.59 16.23 88 88 0 0 1 5.35 5.91c9.76 11.25 21.49 19.96 33.54 28.59q3.26 2.36 6.45 4.83a64 64 0 0 0 9.14 5.77c3.51 1.86 6.93 3.78 10.31 5.88 4.39 2.66 8.9 5.01 13.5 7.31l2.01 1.01c5.9 2.91 11.86 5.52 18.05 7.74q4.28 1.52 8.55 3.1a243 243 0 0 0 15.79 5.25c5.09 1.5 10.06 3.11 14.91 5.27a51 51 0 0 0 10.29 2.91c2.21.53 2.21.53 4.64 1.53a37 37 0 0 0 8.07 2c3.79.6 6.96 1.56 10.5 3q2.5.56 5 1c3.57.67 6.64 1.62 10 3q2.25.52 4.5 1c3.36.71 6.32 1.7 9.5 3l3.38.75c4.75 1.13 9.19 3.01 13.69 4.86 4.39 1.8 8.81 3.42 13.31 4.95A85 85 0 0 1 2623 2007l5 2.74a152 152 0 0 1 21 14.26l2.84 2.25c16.32 13.16 16.32 13.16 22.87 21.22 1.4 1.73 1.4 1.73 3.73 3.78 3.14 3.37 5.4 7.03 7.81 10.94 1.49 2.4 3.06 4.69 4.69 7 8.2 12.24 13.22 25.38 16.31 39.7.7 3.12.7 3.12 1.8 6.13 3.79 11.91 2.16 26.6 1.95 38.98l-.05 3.74c-.54 12.38-4.81 23.87-10.62 34.71-1.36 2.51-1.36 2.51-2.34 5.09-3.34 8.3-9.06 16.81-14.99 23.46h-3l.25-1.73c2.08-16.54-1.71-33.46-9.25-48.27l-.93-2.1c-2.26-4.99-4.72-8.5-9.07-11.9-3.75-.15-5.38.57-8.44 2.69-1.84 2.25-1.84 2.25-1.5 5.25.96 3.13 2.23 5.27 3.94 8.06q1.59 3.73 3.02 7.53c.79 2 1.69 3.96 2.6 5.91 1.57 4.04 2.28 7.93 2.95 12.2.32 2.37.32 2.37 1.43 4.36 1.42 8.96 2.53 18.59-1.22 27.04a30 30 0 0 0-1.59 6.52c-1.62 7.45-6.48 11.13-12.57 15.32a368 368 0 0 1-8.44 5.24 152 152 0 0 1-23.62 11.82l-2.18.85c-6.33 2.38-12.59 4.21-19.38 4.21.38-2.72.64-4.56 2.41-6.71 2.1-3.02 2.89-6.13 3.71-9.67l.52-2.22c4.74-22.18 3.57-46.19-7.32-66.4-2.12-3.21-4.01-5-7.32-7-3.35-.08-4.66.76-7.38 2.69-1.93 2.26-1.93 2.26-1.5 5.37.77 3.09.77 3.09 2.88 5.94q1.33 4.06 2.5 8.19l.64 2.21c6.21 21.49 6.17 39.01-4.79 58.94a227 227 0 0 1-3.35 5.66l-1.91 3.3c-3.3 4.26-6.92 5.64-12.13 6.43q-2.29.25-4.58.46l-2.52.24c-41.78 3.62-84.31-6-121.86-24.43l-1.88-.91A642 642 0 0 1 2418 2249l-2.23-1.14c-18.79-9.59-36.54-20.6-54.15-32.19a871 871 0 0 0-15.56-9.92 594 594 0 0 1-23.32-15.54 813 813 0 0 0-68.76-42.54q-3.86-2.16-7.68-4.37c-24.4-14.03-50.98-26.57-79.3-29.3l-2.42-.52c-16.75-3.1-34.77 1.01-49.77 8.4l-2.01.99a51 51 0 0 0-9.35 5.95c-2.76 2.02-3.31 2.18-6.95 2.16a86 86 0 0 1-10.44-3.67l-3.98-1.64-2.05-.85c-3.21-1.3-6.46-2.5-9.72-3.7a930 930 0 0 1-19-7.31l-2.57-1.01c-4.15-1.65-7.99-3.34-11.74-5.8a68 68 0 0 0-10.14-5.18c-4.69-2.07-9.17-4.6-13.69-7.02l-5.5-2.91c-16.3-8.67-30.75-19.51-44.65-31.57a229 229 0 0 0-9.96-8.2c-17.12-13.58-31.86-29.78-45.06-47.12l-3.62-4.56a214 214 0 0 1-7.94-11.06q-2.21-3.2-4.44-6.38l-1.66-2.39c-2.49-3.28-3.86-4.52-7.96-5.3-3.38.47-3.38.47-5.82 2.31-2.04 3.11-1.92 4.7-1.56 8.38a30 30 0 0 0 3.56 6.25l1.1 1.71c3.31 5.11 6.8 10.09 10.34 15.04l3.38 4.88 3.62 5.12 1.91 2.73c6.1 8.45 13.1 15.86 20.29 23.37q3.13 3.33 6.16 6.73A215 215 0 0 0 1944 2070l1.63 1.44A205 205 0 0 0 1967 2088l2.09 1.41 4.31 2.86q3.05 2.03 6.08 4.08c17.47 11.81 36.53 23.7 56.47 30.87 2.16.82 4.25 1.75 6.36 2.72A200 200 0 0 0 2058 2136l3.85 1.38c12.34 4.4 24.73 8.7 37.27 12.5 20.81 6.33 41.56 13.03 60.88 23.12l2.91 1.39c38.91 18.64 67.69 49.55 85.09 88.61l1.31 2.87c12.78 29.61 12.4 67.35.69 97.13-5.81 13.6-13.51 27.49-24 38-2.13.63-2.13.63-4 1l.03-1.87c.25-16.82.04-32.21-6.03-48.13l-.9-2.68c-2.17-6.1-5.01-11.19-10.1-15.32-3.52-1.48-3.52-1.48-7-1-3.03 1.46-3.03 1.46-5 4-.69 4.63 1.09 7.6 3.25 11.62 10.57 20.32 14.74 42.12 8.5 64.44l-.58 2.17c-2.32 7.69-7.76 11.46-14.23 15.71l-2 1.31A137 137 0 0 1 2170 2442l-2.32 1.11c-25.74 11.99-25.74 11.99-34.68 8.89l.99-2.16 1.32-2.9 1.3-2.85 1.39-3.09 1.59-3.16c2.08-4.88 2.23-10.04 2.6-15.28l.25-3.02c.67-8.64.68-16.98-.25-25.6l-.22-2.32c-.54-5.1-1.79-8.98-3.97-13.62q-.75-2.2-1.44-4.44c-1.74-5.3-3.65-10.39-7.37-14.62-3.39-1.45-5.69-.88-9.19.06-2.54 1.54-2.54 1.54-4 4-.72 4.81.55 6.99 3 11 8.31 18.78 10.38 40.63 3 60-7.36 17.45-7.36 17.45-14 23-1.94.46-1.94.46-4.11.65l-2.42.2q-5.85.34-11.69.39l-2.59.03c-25.56.23-48.49-1.97-72.99-9.59a282 282 0 0 0-5.66-1.67c-13.51-3.92-26.75-9.17-39.54-15.01l-3.6-1.64a887 887 0 0 1-52.6-26.83q-5.14-2.8-10.3-5.53-7.86-4.18-15.67-8.46a721 721 0 0 0-7.77-4.15c-7.4-3.9-14.71-7.97-22-12.08l-2.94-1.65a268 268 0 0 1-12.12-7.18c-2.98-1.89-6.02-3.6-9.12-5.27a383 383 0 0 1-18.07-10.54l-5.43-3.3q-9.45-5.76-18.78-11.71-5.16-3.26-10.37-6.44a437 437 0 0 1-24.47-15.99q-3.07-2.14-6.17-4.21A553 553 0 0 1 1718 2284l-3.79-2.95a1287 1287 0 0 1-13.21-10.42 150 150 0 0 1-14.64-13.29 104 104 0 0 0-5.9-5.39c-5.66-4.91-10.88-10.26-16.15-15.57l-3.09-3.11-5.67-5.7-7.55-7.57-1-1c-3.56-.4-5.38-.43-8.38 1.62-1.77 2.29-1.77 2.29-2.24 5.07 1.99 10.55 12.96 19.68 20.32 26.99a44 44 0 0 1 4.61 5.2c2.47 3 5.24 5.43 8.19 7.94q3.85 3.39 7.55 6.9c6.74 6.34 13.52 12.64 21.22 17.8l1.73 1.48v3l-17.59 2.83-5.95.95c-21.12 3.41-42.11 6.46-63.46 7.84l-2.81.19A961 961 0 0 1 1561 2309l-2.02.03a586 586 0 0 1-57.47-1.76 459 459 0 0 0-10.46-.67c-28.22-1.6-56.21-5.82-84.05-10.6l-2.41-.41a209 209 0 0 1-22.1-4.91 89 89 0 0 0-7.24-1.62c-5.67-1.06-11.19-2.67-16.73-4.26a29 29 0 0 0-9.52-.8c-3.62 2.47-6.24 5.24-9.06 8.56-8.17 9.56-18.12 17.67-27.94 25.44l-2.8 2.29c-18.96 15.12-39.86 26.5-62.2 35.71l-2.53 1.08c-25.94 10.85-54.58 15.38-82.6 14.82l-2.6-.04q-6.34-.11-12.67-.41c-7.9-.48-7.9-.48-15.14 2.15a30 30 0 0 0-4.46 6.4l-1.79 3.05-1.27 2.83c-1.82 3.84-3.7 7.5-5.94 11.12-2.16 3.5-4.03 7.04-5.81 10.75-7.25 14.73-17.24 28.09-28.19 40.25l-1.6 1.88c-16.37 19.19-35.09 32.68-59.21 40.4q-2.13.7-4.23 1.5c-18.75 7.01-42.77 6.17-61.96 1.22a107 107 0 0 1-4-2l-3.88-.69c-10.68-2.25-20.57-8.74-29.12-15.31l-1.85-1.35c-14.09-11-22.92-29.94-25.56-47.33-3.38-32.36 6.7-62.04 22.17-90.05q2.41-4.46 4.74-8.98A295 295 0 0 1 933 2304l1.57-2.46 5.24-8.16 1.71-2.67 1.62-2.5 1.45-2.24c2.59-3.63 2.59-3.63 4.41-4.97 2.79-.38 2.79-.38 6.2-.41l3.82-.06 2.03-.01c46.45-.42 93.31-12.35 130.95-40.52l3-2.23c23.68-17.39 23.68-17.39 42-39.77.45-4.12.34-5.5-2-9-3.62-1.21-6.19-1.37-10-1-2.7 1.89-2.7 1.89-4.94 4.56l-2.59 2.78-2.47 2.66q-2.93 2.68-5.97 5.24a134 134 0 0 0-4.15 3.77c-10.5 9.88-22.65 17.89-35 25.27a154 154 0 0 0-5.17 3.22c-43.27 28.02-102.69 31.3-151.98 21.33A251 251 0 0 1 883 2248l-2.91-1.03a278 278 0 0 1-57.86-28.38c-11.04-7.15-22.11-11.53-35.29-8.9-14.95 4.32-22.05 18.34-29.46 30.82a776 776 0 0 1-24.17 37.99l-1.18 1.75a364 364 0 0 1-33.69 43l-1.57 1.72a152 152 0 0 1-86.87 46.7q-2.51.43-5.01.91c-21.9 3.09-44.02-1.7-63.99-10.58l1-3c2.09-.7 2.09-.7 4.94-1.25 27.83-6.42 49.9-23.56 67.75-45.44l1.35-1.58c2.42-3.08 2.97-4.54 2.8-8.5-.92-3.88-.92-3.88-3.84-6.23-3.65-.43-5.37-.46-8.37 1.75l-2.28 2.46-2.58 2.7-2.71 2.9c-8.08 8.42-16.21 15.9-26.06 22.19l-1.93 1.25c-17.3 11.08-40.06 19.95-61.07 15.75-4.41-2.01-7.54-4.65-11-8l-2.34-1.89c-8.34-6.8-14.64-15.65-19.66-25.11l-1.47-2.37a50 50 0 0 1-3.65-7.82l-1.01-2.6c-2.24-8.27-2.06-16.95-2.06-25.46v-3.32c.15-19.78.15-19.78 4.19-27.43l.81-3.44c2.12-8.88 5.89-17.28 10.08-25.37a89 89 0 0 0 2.55-5.63c3.72-8.49 8.59-16.37 13.49-24.23q2.07-3.33 4.11-6.69c3.6-5.92 7.34-11.66 11.37-17.29a89 89 0 0 0 5.35-9.24c1.52-2.59 3.36-4.78 5.24-7.11a502 502 0 0 0 4.19-6.06c4.03-5.88 8.24-11.6 12.55-17.27l5.66-7.55c8.19-10.96 16.44-21.83 25.25-32.31a369 369 0 0 0 6.1-7.5c9.21-11.54 18.53-22.9 28.67-33.64q2.57-2.73 5.12-5.49A597 597 0 0 1 633 2012q4.91-4.9 9.8-9.84l5.51-5.54 2.77-2.78a238 238 0 0 1 22.92-20.4l1.84-1.44 3.58-2.78q1.95-1.5 3.87-3.05c4.38-3.43 8.99-6.07 13.91-8.66 2.72-1.47 5.35-3.02 7.99-4.63 9.63-5.82 19.61-10.31 30.74-12.39 2.15-.45 2.15-.45 4.39-1.46 4.37-1.68 8.89-2.32 13.49-3.09l3.2-.55c7.52-1.2 14.88-1.68 22.49-1.83 9.96-.21 18.3-1.79 27.5-5.56l2.36-.94c31.35-14.07 46.62-50.38 60.74-79.22q2.93-5.95 5.92-11.87a774 774 0 0 0 4.73-9.58 579 579 0 0 1 13.87-26.33l1.93-3.48a198 198 0 0 1 10.17-16.66c1.33-2 2.47-4.05 3.59-6.17 3.04-5.57 6.7-10.7 10.36-15.87l4.23-6.04c7.06-10.11 14.28-20.05 22.17-29.54l1.54-1.89q1.47-1.8 2.99-3.57c2.22-2.72 3.36-4.54 3.83-8.06-.26-2.98-.26-2.98-2.43-5.78a72 72 0 0 1-1.31-4c-1.8-5.55-4.18-10.74-6.69-16l-1.45-3.05A117 117 0 0 0 933 1662l-1.24-1.73c-14.3-19.88-30.68-35.22-50.76-49.27l-2.5-1.82a131 131 0 0 0-15.76-9.67 92 92 0 0 1-7.49-4.7c-9.17-5.95-19.35-10.24-29.25-14.81l-2.86-1.32a399 399 0 0 0-16.76-7.24 367 367 0 0 1-12.77-5.41 253 253 0 0 0-14.73-5.91q-11.19-4.21-22.25-8.68a511 511 0 0 0-12.01-4.56 202 202 0 0 1-14.2-5.84 141 141 0 0 0-7.62-2.95c-17.26-6.25-33.72-14.29-49.84-23.03q-2.49-1.35-4.99-2.63c-13.71-7.2-26.57-16.2-38.97-25.43l-1.72-1.28c-9.7-7.27-18.57-15.3-27.28-23.72l-2.7-2.61c-4.67-4.6-9.09-9.36-13.3-14.39l-1.41-1.67a261 261 0 0 1-20.51-27.64q-1.5-2.35-3.04-4.69c-13.33-20.52-24.62-43.68-32.04-67l-1.23-3.77c-2.15-6.67-4.15-13.23-5.38-20.14-.4-2.34-.4-2.34-1.39-5.53-1.35-4.8-2.16-9.65-3-14.56l-.5-2.78a317 317 0 0 1-2.8-20.35c-.41-3.67-.97-7.25-1.7-10.87-2.29-19.6-1.31-39.47 1-59l.36-3.16 1.14-9.84.36-3.1.67-5.46A38 38 0 0 1 517 1178q.58-3.24 1-6.5c.55-4.2 1.43-7.59 3-11.5q.48-2.05.89-4.14c1.15-5.4 2.95-10.5 4.86-15.67l1.07-2.93a137 137 0 0 1 7.86-17.72c1.62-3.11 2.95-6.31 4.32-9.54a196 196 0 0 1 17-30l1.28-1.87c11.82-17.14 26.84-33.84 45.72-43.13q2.13-1.2 4.25-2.44c25.31-13.92 59.08-15.45 84.75-1.56"/><path fill="#ffa519" d="M3132.87 2014.92c9.1-.15 18.03.68 27.06 1.63l7.7.77c9.35.94 18.26 2.35 27.37 4.68q2.6.55 5.19 1.06l2.43.48 4.77.89c8.33 1.54 16.68 3.7 24.43 7.2a51 51 0 0 0 8.82 2.72c22.25 6.17 44.5 18.74 63.45 31.67q2.86 1.95 5.76 3.8c15.39 9.9 29.37 22.13 42.15 35.18l2.37 2.35c7.17 7.22 13.83 14.55 19.68 22.88 2.06 2.92 4.22 5.75 6.39 8.58 13.72 18.28 24.15 38.43 33.56 59.19l1.13 2.47c3.47 7.7 6.63 15.37 8.87 23.53l.93 2.28c3.13 7.95 5.04 16.43 7.07 24.72l1 3.38a139 139 0 0 1 2.5 11.04q.48 2.45 1 4.88c1.3 6.05 2.1 12.1 2.8 18.26.35 2.96.76 5.6 1.7 8.44 1.63 13.27 1.16 26.8 1.13 40.14v22.82c-.05 21.48-.05 21.48-3.13 31.04-.56 3.85-1 7.7-1.43 11.58a22 22 0 0 1-2.57 7.42q-.59 2.98-1 6a29 29 0 0 1-3 10 93 93 0 0 0-.93 5.25c-.7 4.05-1.6 7.66-3.15 11.45-1.7 4.23-3.13 8.55-4.64 12.84-4.91 13.28-11.34 26.13-18.28 38.46l-2.24 4.15A283 283 0 0 1 3374 2540l-2.31 2.9c-10.22 12.65-21.24 24.8-33.65 35.34-2.46 2.13-4.84 4.36-7.22 6.57-13.38 12.18-28.4 21.83-43.82 31.19l-2.86 1.77-2.64 1.6-2.28 1.4c-2.22 1.23-2.22 1.23-4.46 2.1-3.13 1.28-6.02 2.85-9 4.46a253 253 0 0 1-22.88 11.1l-2.3.97a191 191 0 0 1-13.5 4.92q-2.63.87-5.22 1.82c-19.62 7-40.26 11.4-60.96 13.58-2.11.26-2.11.26-4.9 1.28-7.26.97-14.57 1.18-21.9 1.24l-3.07.03q-4.92.04-9.84.04h-3.4c-15.2.02-30.23-.47-45.35-2.12l-2.35-.25c-7.55-.83-14.84-1.88-22.07-4.28a49 49 0 0 0-7.83-1.72 44 44 0 0 1-10.2-2.94q-2.91-.7-5.86-1.31c-7.58-1.7-14.8-4.16-22.13-6.7l-4.37-1.36c-17.36-5.82-34-14.01-50.06-22.7l-2.73-1.45c-7.4-4.05-14.3-8.66-20.9-13.92-5.38-2.86-9.7-2.21-15.45-.53-6.66 2.25-6.66 2.25-12.9 5.45-3.48 2.05-7.13 3.28-10.96 4.58l-2.21.78c-6.01 2.09-12.03 3.98-18.3 5.16-2.4.46-4.8.92-7.16 1.54-15.9 4.15-33.7 2.69-49.96 2.46l-2.48-.02c-20.81-.27-41.48-4.94-61.02-11.92l-2.24-.8q-3.14-1.11-6.26-2.26l-2.75-1c-12.33-4.7-24-11.2-35.25-18q-1.24-.74-2.52-1.47c-17.32-10.65-33.27-24.56-47.98-38.53-22.72-21.56-46.66-38.63-76.5-49l-2.97-1.05c-21.6-6.8-51.03-5.35-72.03 3.05l-3.1 1.07c-15.75 5.6-28.04 14.88-40.24 26.08-4.5 4.09-8.68 7.85-15.1 7.85-5.13-2-9.37-4.3-12.56-8.87-1.67-5.22-1.5-8.7.32-13.88 5.97-10.76 17.15-18.22 27.03-25.1q2.03-1.43 4.05-2.9c24.1-17.04 52.1-23.36 81.17-23.5l3.9-.03c12.5.04 24.67 1.14 36.53 5.28l3.83 1.25A175 175 0 0 1 2610 2482l1.9 1.03c9.32 5.1 17.44 11.2 25.54 18.05a72 72 0 0 0 6.67 4.99 66 66 0 0 1 8.58 7.06l3.18 2.94 5.86 5.49a256 256 0 0 0 17.23 14.48c3.23 2.5 6.3 5.05 9.29 7.84 23.68 21.36 51.39 34.16 82 41.68 3.05.75 6.06 1.53 9.06 2.43 11.67 3.19 23.74 3.38 35.76 3.32h2.3c18.85-.08 36.36-2.5 54.47-7.73 3.07-.82 6.18-1.43 9.3-2.03 2.09-.45 2.09-.45 3.86-2.55.76-2.37.76-2.37 0-5a104 104 0 0 0-4.9-3.38c-3.93-3.02-6.73-7.12-9.8-11-2.4-2.98-4.92-5.85-7.42-8.74A293 293 0 0 1 2850 2535l-1.91-2.57c-6.51-8.83-12.88-17.77-17.98-27.5-1.07-1.97-1.07-1.97-2.53-3.76a39 39 0 0 1-3.85-6.73l-1.24-2.65-1.3-2.8q-1.36-2.85-2.68-5.7l-1.31-2.77a375 375 0 0 0-4.57-9.21c-5.18-10.26-8.74-21.01-11.88-32.05-.68-2.26-.68-2.26-1.77-4.25-1.12-2.3-1.54-4.37-1.98-6.88a49 49 0 0 0-2-7.98c-1.5-4.74-1.87-9.56-2.43-14.5-.43-3.54-.43-3.54-1.55-6.32-1.25-4.1-1.58-7.94-1.87-12.2l-.2-2.58q-.3-4.14-.57-8.3l-.2-2.85c-2.67-38.8-2.67-38.8.25-56.75.83-5.26 1.3-10.56 1.79-15.87.46-4.68 1.24-9.17 2.32-13.75a94 94 0 0 0 1.34-7.65A160 160 0 0 1 2805 2242q.72-2.07 1.39-4.15c3.37-10.24 6.97-20.72 12.5-30 1.09-1.81 2-3.64 2.93-5.54 2.46-5 5.27-9.8 8.06-14.61q2.04-3.54 4-7.12c10.9-19.74 25.06-37.37 40.48-53.75a208 208 0 0 0 6.27-7.02 182 182 0 0 1 19.39-19.1c2.14-1.84 4.2-3.74 6.3-5.65 4.96-4.41 10.25-8.25 15.68-12.06 1.54-1.08 1.54-1.08 3.1-2.2 14.4-10.07 29.14-19.6 44.97-27.33 2.85-1.43 5.6-2.96 8.37-4.53 5-2.77 10.15-4.82 15.52-6.76a100 100 0 0 0 9.04-4.18c3.63-1.44 7.32-2.71 11-4l2.33-.81a226 226 0 0 1 15.1-4.5 341 341 0 0 0 6.26-1.75q4.66-1.3 9.37-2.44 2.55-.67 5.07-1.5c4.83-1.43 9.87-1.9 14.86-2.53 2.93-.3 2.93-.3 5-1.47q3.4-.41 6.8-.72l2.08-.2 6.76-.58 2.32-.2a741 741 0 0 1 42.92-2.38"/><path fill="#ffdead" d="m1806.98 398.87 4-.01 4.21.02h2.17c15.98.04 31.76.83 47.67 2.32 9.99.89 20.01 1.34 30.03 1.8 11.17.52 22.29 1.1 33.41 2.25 10.89 1.08 21.83 1.48 32.76 1.97q12.51.55 24.99 1.69c16.69 1.52 33.43 2.46 50.16 3.49l10.71.67c23.62 1.48 23.62 1.48 47.24 2.64 22.93.97 47.35 2.13 64.67 19.29a128 128 0 0 1 15.1 21.66c2.3 4.06 4.76 8 7.21 11.97a292 292 0 0 1 9.57 16.55c5.41 10.09 11.18 20.08 22.12 24.82 4.77.99 9.56 1.3 14.42 1.58l2.59.16 8.74.5q3.18.21 6.37.39l10.64.64q15.93.95 31.86 1.94c31.08 1.9 62.15 3.8 93.24 5.53 19.08 1.06 38.15 2.27 57.21 3.52q27.24 1.79 54.49 3.37c28.39 1.65 28.39 1.65 40.38 2.44l3.29.2c10.47.7 20.42 1.74 29.77 6.73l2.5 1.28c7.51 4.13 12.76 9.6 17.5 16.72l2.5.38 2.5.62a24 24 0 0 1 2 5l1.42 2.27c1.74 3 2.71 5.85 3.7 9.17l1.01 3.3c3.01 11.3 1.85 22.78 1.06 34.33l-.22 3.7-.24 3.52-.21 3.18C2599 623 2599 623 2596 625c-2.06.18-2.06.18-4.47.08l-2.75-.1-2.99-.15-3.14-.13-6.65-.3-9.82-.41q-18.96-.83-37.88-2.2a3653 3653 0 0 0-40.42-2.6l-8.54-.51c-14.49-.9-28.98-1.74-43.49-2.33-8.14-.34-16.26-.88-24.39-1.48a4068 4068 0 0 0-61.45-3.86l-6.87-.4c-17.37-1-34.75-1.93-52.14-2.61l-3.82-.15c-12.46-.41-23.23 3.57-32.45 12-5.1 5.22-8.56 11.64-12.23 17.9l-3.27 5.49-2.14 3.6a447 447 0 0 1-8.41 13.5c-2.32 3.67-4.54 7.38-6.77 11.1-15.96 26.59-15.96 26.59-21.91 30.56-3.03.18-5.95.24-8.97.19l-2.7-.02c-9.3-.12-18.57-.6-27.85-1.16l-5.44-.31-14.34-.84-11.94-.7a11159 11159 0 0 1-68.42-4.13q-15.18-.97-30.38-1.84l-3.61-.21L2009 692l-6.24-.35-2.81-.15q-8.27-.49-16.52-1.28-4.12-.36-8.25-.5l-2.93-.11-5.91-.21-2.91-.12-2.59-.1a127 127 0 0 1-8.68-.93c-3.81-.44-7.64-.62-11.47-.83l-2.8-.15-6.09-.34q-8.6-.47-17.21-.97l-3.84-.22q-16.74-.96-33.47-2.01l-2.71-.17-24.33-1.52-15.3-.95-2.44-.15c-10.1-.63-20.19-1.23-30.3-1.61-4.03-.17-7.95-.54-11.96-1.07-4.86-.55-9.75-.73-14.63-.98q-1.76-.08-3.58-.2l-11.28-.58-11.24-.6-6.97-.35q-4.77-.25-9.54-.55l-3.4-.2-3.28-.22-2.95-.2C1721 674 1721 674 1719 672c-.24-3.06-.33-6-.31-9.06l.01-2.94c.12-9.11.97-18.11 1.88-27.17 1.48-14.73 2.14-29.48 2.68-44.27.35-9 .92-17.86 2-26.8.97-8.17 1.3-16.36 1.63-24.58a3188 3188 0 0 1 .73-16.54c.39-8.38 1-16.73 1.7-25.08q.8-9.77 1.18-19.56c.29-6.51.78-12.68 2.5-19l.84-3.35c4.4-16.57 12.92-30.52 26.16-41.65a96 96 0 0 1 6-3l1 1c2.33.42 2.33.42 5 0l2.12-1.75c3.51-2.74 6.97-3.9 11.16-5.32 2.7-.88 2.7-.88 5.13-1.98 5.35-1.95 10.92-2.07 16.57-2.08"/><path fill="#de7b19" d="m3198 2043 6 1 1 3 2.25-.19c3.28.23 4.21 1.21 6.75 3.19 2.65.71 2.65.71 5 1v-4l6-1-1 5 3.88-.75c8.3-.9 15.05 3.44 21.82 7.8a44 44 0 0 1 5.3 5.4c3.09 3.61 6.37 6.98 9.77 10.31l1.57 1.54 3.25 3.19c9.2 9.04 17.83 18.03 25.41 28.51a521 521 0 0 0 4.12 5.19l1.92 2.4q2.04 2.5 4.14 4.98c5.98 7.09 10.93 14.57 15.82 22.43l2 3h4l1.21-3.51 1.6-4.61.79-2.31c1.53-4.38 3.31-8.43 5.4-12.57a98 98 0 0 0 1.5-5.06c1.06-3.69 2.13-6.85 4.5-9.94h2l-2-9c5 2.97 9.02 5.72 13 10l1.47 1.38c5.71 5.39 10.37 11.6 15.13 17.81q1.97 2.55 3.98 5.08c15.91 20.22 27.81 42.34 38.42 65.73l1.12 2.47c3.48 7.7 6.64 15.37 8.88 23.53l.93 2.27c3.12 7.96 5.03 16.44 7.07 24.73l1 3.38c1.01 3.66 1.78 7.31 2.5 11.04q.48 2.45 1 4.88c1.3 6.05 2.11 12.11 2.8 18.26.35 2.96.75 5.6 1.7 8.44 1.62 13.27 1.15 26.8 1.13 40.14l.01 11.74-.01 7.59.01 3.49c-.06 21.48-.06 21.48-3.14 31.04-.57 3.85-1 7.71-1.44 11.57a21 21 0 0 1-2.56 7.43q-.58 2.98-1 6a29 29 0 0 1-3 10q-.54 2.61-.94 5.25a53 53 0 0 1-3.14 11.45c-1.69 4.23-3.13 8.54-4.64 12.84-4.91 13.28-11.35 26.13-18.28 38.46l-2.24 4.14A284 284 0 0 1 3374 2540l-2.31 2.9c-10.22 12.65-21.24 24.79-33.65 35.34-2.47 2.13-4.84 4.35-7.23 6.57-13.37 12.18-28.38 21.83-43.81 31.19l-2.87 1.77-2.63 1.61-2.28 1.39c-2.22 1.23-2.22 1.23-4.46 2.11a87 87 0 0 0-8.99 4.45c-26.75 14.5-26.75 14.5-40.69 16.12-4.01.72-7.65 2.07-11.46 3.49a122 122 0 0 1-19.86 5.52c-2.83.49-2.83.49-5.76 1.54q-3.32.26-6.62.44c-4.89.31-9.43.86-14.17 2.06-8.07 1.83-16.51 1.79-24.75 2.11l-2.69.11-2.42.09c-2.51.2-4.88.69-7.35 1.19q-3.66.1-7.31.06l-3.8-.02-2.89-.04v-2c2.64-1.32 4.68-1.1 7.62-1.06l3.04.02 2.34.04-1-2c4.66-.75 9.1-1.11 13.82-1.06l3.81.02 3.93.04q3.88.05 7.76.06l3.45.04c3.19-.1 6.12-.37 9.23-1.1l1-2c3.35-.65 6.71-1.03 10.09-1.44l2.91-.56 1-2h-2l-1-2c-4.51-2.77-7.87-3.36-13.12-3.25l-3.64.05c-2.61.16-4.74.54-7.24 1.2l-2.44-.5c-2.84-.56-4.78-.22-7.56.5v-2c4.9-1.6 8.79-2.1 14-2l2-1q3-.14 6-.12l3.25-.01c2.75.13 2.75.13 4.75 1.13-.24-3.27-1.14-4.13-3.61-6.41-3.27-2.64-6.83-4.54-10.58-6.4-16.29-8.45-30.1-21.11-43.81-33.19l-2.72-2.37A136 136 0 0 1 3103 2576l-3.62-4a63 63 0 0 1-7.34-10.43c-.97-1.74-.97-1.74-3.04-2.57-4.39-.29-7.64.35-11.75 1.88a88 88 0 0 1-13.71 3.63c-2.77.54-5.49 1.22-8.23 1.93a304 304 0 0 1-17.19 3.74q-4.39.86-8.74 1.86c-26.37 5.97-26.37 5.97-32.38 2.96v-4l2.31-.69c2.91-1.08 2.91-1.08 4-3.93l1.69-2.38c2.75-.41 5.2-.18 8 0l1-1-17-2c4.5-4.5 4.5-4.5 7.85-5.12l2.27-.45 2.45-.44 5.3-1.03 2.81-.54A575 575 0 0 0 3079 2538l3.06-.93a645 645 0 0 0 24.88-8.13l1.93-.67c12.24-4.35 24.03-9.85 35.88-15.15l6.94-3.09 4.58-2.04q5.5-2.46 11.04-4.85a310 310 0 0 0 23-10.95l2.94-1.55 5.91-3.14a772 772 0 0 1 8.08-4.21c8.5-4.41 16.79-8.96 24.87-14.11q3.36-2.09 6.76-4.11a283 283 0 0 0 29.02-19.89c4.09-3.21 8.33-6.17 12.61-9.12a305 305 0 0 0 41.99-35.57q3.53-3.48 7.22-6.79c5.47-4.97 10.56-10 15.29-15.7l2.77-3.21c23.59-27.31 44.42-56.07 58.98-89.29l1.23-2.8c6.79-16.04 3.38-27.95-1.84-43.97-2.35-7.22-4.27-14.09-4.14-21.73 3 0 3 0 5 1 2.62-6.27 3.68-11.33 2-18-1.36-3.22-1.36-3.22-3-6l-.81-2.38c-1.48-3.26-3.54-5.8-5.73-8.62-1.84-2.52-3.13-5.2-4.46-8l-2-2-2 4h-3v-4l-2 1c-.22 3.86.4 6.49 2 10l-2 1-1.25-2.59c-2.35-4.58-5.14-8.85-7.91-13.19a41 41 0 0 1-3.84-9.22c2.99 1 3.95 1.75 6 4v-4l-2-1v-4c2.88.56 2.88.56 6 2a38 38 0 0 1 2 7q1.45 2.52 3 5v2l2-1c-.27-2.44-.27-2.44-1-5l-3-2q-1.05-2.98-2-6l-2-2-.94-2.38c-.92-2.61-.92-2.61-2.48-4.51a45 45 0 0 1-3.96-6.55c-2.1-3.85-4.43-6.52-7.62-9.56a181 181 0 0 1-3.16-4.15l-1.62-2.19-1.22-1.66-1.25 2.68c-30.53 65.51-30.53 65.51-52.44 90.79-1.99 2.32-3.89 4.71-5.81 7.09a322 322 0 0 1-14.08 15.9l-4.32 4.72c-7.34 8.07-14.8 15.73-23.1 22.82l-2.84 2.46a373 373 0 0 1-22.23 17.62q-4.61 3.41-9.12 6.96a170 170 0 0 1-15.69 10.93c-4.01 2.61-7.83 5.45-11.68 8.28a305 305 0 0 1-25.48 16.59l-5.09 3.05c-14.18 8.46-29.04 15.85-43.87 23.11l-2.41 1.19A468 468 0 0 1 3083 2375l-3.87 1.5A3219 3219 0 0 1 3049 2388l-3.07 1.15c-17.97 6.71-36.55 11.32-55.16 15.89a378 378 0 0 0-10.36 2.81c-14.24 4.04-28.29 7.29-43.03 8.76-3.37.27-3.37.27-6.38 1.39q-2.88.37-5.79.65l-3.52.35-3.75.38c-9.25.93-18.4 1.99-27.52 3.79-3.82.72-6.66.76-10.42-.17l-3.06.44a86 86 0 0 1-10.25.81l-3.12.08-2.57-.33-2-3 1-2c2.54-.26 5.01-.42 7.56-.5 6.55-.26 6.55-.26 12.94-1.62 4.3-1.08 7.17-.65 11.5.12l1-2 2.25 1.06c2.89.99 3.96 1.03 6.75-.06l1-1q2.97-.31 5.94-.5c4.18-.18 4.18-.18 8.06-1.5-1.93-1.93-5.4-1.65-8-2l-2.19-.62c-1.8-.53-1.8-.53-3.5.12-3.12.67-5.89.34-9.06.06-13.55-1.43-13.55-1.43-26.25 2.44v-4h2l1-4 2.97-.37 4.09-.51 2.21-.27q6.94-.86 13.85-1.85c4.53-.63 9.02-1.1 13.57-1.43l3-.23q2.95-.21 5.9-.38c5.23-.39 5.23-.39 9.95-2.5 2.07-3.49 2.6-7.06 3.21-11.02 4.84-27.02 14.06-54.34 27.25-78.44l1.21-2.21q3.17-5.78 6.41-11.52 3.12-5.59 6.07-11.27c4.81-8.97 10.93-16.89 17.06-24.99q3.17-4.25 6.25-8.57c5.83-8.04 11.97-15.63 19.1-22.55 1.9-1.89 3.65-3.86 5.4-5.89 6.4-7.42 13.47-14.5 21.34-20.37 1.87-1.36 1.87-1.36 4.16-3.63.5-2.71.5-2.71 0-5l-3.14-1.29a76 76 0 0 1-9.67-5.15c-7.01-4.11-14.29-7.64-21.63-11.12l-3.41-1.67c-4.53-2.11-8.06-3.73-13.1-3.9-3.66 1.36-5.71 3.02-8.49 5.75l-2.88 2.77-2.68 2.61a250 250 0 0 1-3.88 3.31A181 181 0 0 0 2950 2210l-2.58 3.24A511 511 0 0 0 2929 2238l-1.19 1.58c-3.85 5.16-6.8 10.74-9.81 16.42l-3 5.54-1.5 2.76-1.5 2.76-1.5 2.78q-4.4 8.1-9.23 15.96a50 50 0 0 0-3.02 6.26C2897 2295 2897 2295 2895 2296c-.51 1.98-.51 1.98-.81 4.38a41 41 0 0 1-3.63 11.06 71 71 0 0 0-4.82 13.77c-.76 2.85-1.66 5.62-2.62 8.41-3.93 11.7-7.38 23.16-9.13 35.4A45 45 0 0 1 2871 2380c-.2 2.19-.2 2.19-.06 4.44.15 6.55-.41 13.03-.94 19.56h-5l-1-11-4-1-.08 2.34-.17 3.04-.14 3.02c-.61 2.6-.61 2.6-2.66 3.95l-1.95.65c-1-1-1-1-1.13-2.86.03-6.75.43-13.42 1.01-20.14l.23-3.08c.54-6.42 1.47-12.63 2.89-18.92l-3.06-.56c-10.9-3.26-19.62-18.98-24.94-28.44q-1.42-2.79-2.75-5.62l-1.36-2.86c-.89-2.52-.89-2.52.11-5.52 4.07 1.36 4.89 3.34 7 7 .75 2.88.75 2.88 1 5h3l-1-11 4-1 .81 3.44 1.19 3.56 3 1c-1.13-4.97-1.13-4.97-4-9 .38-2.12.38-2.12 1-4 13.17 16.57 13.17 16.57 14.76 21.23l1.24 1.77q3.49.6 7 1l.93-3.13q1.73-5.82 3.5-11.65l1.49-5.01c2.79-9.38 5.66-18.44 10.08-27.21l.94-1.95c1.87-3.86 1.87-3.86 3.06-5.05.62-5.27 1.11-9.59-2.25-13.88L2880 2266q-2.04-2.46-4-5l-1.81-2.12-1.19-1.88 1-3 3 2v3l1.81.31c2.47.78 3.51 1.76 5.19 3.69l1-7 6 2 .5-3.31 1.5-3.69q2.88-.9 5.78-1.76c5.06-2.83 7.54-9.27 10.22-14.24l1.59-2.91 2.93-5.41c6.6-11.92 14.98-22.07 24.14-32.1a199 199 0 0 0 3.85-4.34c4.65-5.41 9.6-10.47 14.68-15.49l2.4-2.39 4.41-4.38 2-1.98 2.26-1.94c2-1.96 2-1.96 1.99-4.81l-.25-2.25-2.02-.5-9.1-2.31-3.18-.79a68 68 0 0 1-14.7-5.4c-10.2-2.62-20.51-3.56-31-4v-3a1083 1083 0 0 1 10.34-.09c4.66-.02 9.05.36 13.66 1.09q3.46.32 6.94.56l3.46.26 2.6.18 1-3-3.44-.44c-3.56-.56-3.56-.56-4.56-1.56l-3.75.19c-3.95.07-3.95.07-6.5-2.13-3.81-2.85-7.15-2.68-11.81-2.88a49 49 0 0 1-7.94-1.18c2.91-2.48 5.16-3.7 9-4l2 2c2.78.12 5.47.14 8.25.06 13.49-.32 25.69.99 38.63 4.94l4.06 1.21c18 5.44 35.51 11.8 52.06 20.79l2.5 1.34c6.69 3.6 13.21 7.43 19.69 11.41l3.03 1.86 6.01 3.69q3.62 2.22 7.25 4.41c13.3 8.08 25.64 17.15 36.94 27.86q3.11 2.92 6.39 5.68c6.17 5.33 11.79 11.28 17.52 17.07q4.8 4.85 9.69 9.63A207 207 0 0 1 3151 2261l2.46 3.12c8.13 10.37 15.82 20.89 21.74 32.71 1.64 2.41 1.64 2.41 4.47 2.86 4.85-1.01 8.01-3.59 11.89-6.57l2.4-1.78q3.53-2.65 7.04-5.34l1.97-1.5q4.14-3.14 8.24-6.35 4.59-3.5 9.4-6.7c2.04-2.12 2.3-3.52 2.39-6.45-1.31-3-1.31-3-3.38-6l-1.1-1.71q-1.75-2.66-3.52-5.29l-2.15-3.25c-5.57-8.22-11.65-16-17.85-23.75l-4.12-5.19-1.64-2.04C3188 2216 3188 2216 3187 2213l-3-1c-1.4-1.39-1.4-1.39-2.94-3.25-11.45-13.46-23.63-27.12-37.7-37.89-2.58-2.03-5-4.2-7.42-6.42-4.48-4.07-9.11-7.8-13.94-11.44l-2.84-2.19a220 220 0 0 0-17.53-12.13 139 139 0 0 1-7.38-5.12c-21-14.8-47.39-25.48-71.63-33.59-2.62-.97-2.62-.97-5.62-2.97-3.59-1.24-7.32-2.07-11-3l-2.31-.61c-10.49-2.75-20.47-4.93-31.34-5.15-3.35-.24-3.35-.24-6.33-1.25-3.61-1.18-6.61-1.19-10.4-1.11l-3.77.05-2.85.07v-3l5-1v-2h-5v-3l4-1v-3c2.41-1.21 4.23-.96 6.87-.89 2.52-.13 4.8-.7 7.25-1.3 4.57-1.01 5.94-.3 9.88 2.19 1.99-.46 3.97-.92 5.92-1.51 2.66-.63 5-.35 7.67.11 2.51.45 2.51.45 5.44.67 14.52 1.45 28.2 6.43 41.96 11.06l6.45 2.11c24.4 8.19 47.45 21.06 68.34 35.98q3.32 2.34 6.72 4.58 7.33 4.89 14.5 10l2.62 1.84c7.49 5.32 14.44 11.16 21.38 17.16l2.46 2.08a70 70 0 0 1 9.54 9.92q1.82 1.62 3.69 3.19c4.91 4.2 9.06 8.96 13.31 13.81l4.62 5.12a865 865 0 0 1 12.66 14.33 242 242 0 0 1 12.16 15.43l3.81 5.11 1.88 2.53q2.74 3.6 5.53 7.14c3 3.83 5.7 7.78 8.28 11.9l1.2 1.9 2.86 4.54c6.05-.29 8.64-2.91 12.68-7.01l1.85-1.84 3.83-3.86q2.93-2.95 5.89-5.86l3.74-3.75 1.78-1.76c3.34-3.43 5.28-5.88 5.23-10.92-2.23-2.97-2.23-2.97-4.13-4.9a64 64 0 0 1-5.75-7.85 326 326 0 0 0-10.84-15.51l-4.58-6.27c-8.26-11.31-16.67-22.25-26.14-32.59l-1.58-1.73c-2.68-2.97-2.68-2.97-5.98-5.15v-2l-3-1a139 139 0 0 1-5-5c-6.52-6.69-13.02-13.03-20.35-18.85-2.66-2.16-5.19-4.4-7.71-6.71a175 175 0 0 0-37.98-26.42q-4.74-2.49-9.46-5.02l-3.73-1.99-7.7-4.12c-12.13-6.58-12.13-6.58-24.63-12.39a127 127 0 0 1-12.44-6.5v-1c8.23-.57 17.49.76 24 6 3.92 1.33 6.85 2 11 2l-1.94-.75c-2.06-1.25-2.06-1.25-2.81-3.37l-.25-1.88-5-1-1-6 2.23.47c2.65.55 2.65.55 4.85.75 11.79 1.53 22.77 9.32 32.71 15.44 3.01 1.83 6.1 3.5 9.2 5.16a29 29 0 0 1 4.01 2.68 42 42 0 0 0 6.19 3.75 77 77 0 0 1 11.59 8.02 75 75 0 0 0 6.28 4.35c13.83 9.04 26.39 20.65 38 32.32l2.32 2.3c4.19 4.2 8.21 8.48 12.08 12.98 2.04 2.36 4.17 4.63 6.29 6.9 4.25 4.66 8.16 9.49 12 14.48a220 220 0 0 0 8.74 10.56c9.28 10.54 17.88 21.89 23.51 34.84 2.38-.09 2.38-.09 5-1 2.04-2.32 2.04-2.32 3.75-5.31 2.88-4.58 5.85-8.96 9.13-13.25 4.22-5.06 4.22-5.06 6.59-11.02-.71-5.13-3.3-8.83-6.03-13.17l-1.67-2.71a248 248 0 0 0-10.27-15.4 92 92 0 0 1-4.31-6.95c-7.76-12.97-17.83-23.08-28.58-33.59a140 140 0 0 1-9.41-10.19 38 38 0 0 0-4.64-4.53l-2.03-1.74-2.53-2.14-3.5-3.05a612 612 0 0 0-28.46-23.35 163 163 0 0 1-5.35-4.41c-2.5-2.21-2.5-2.21-5-3.31-1.69-.88-1.69-.88-2.69-3.88m21 8v2h3v-2zm-326 222 2 10h-2l-1-3c-1.98.35-1.98.35-4 1-1.35 2.7-1.17 4.87-1.19 7.88l-.04 3.17c.22 2.89.74 4.51 2.23 6.95 2.58-.8 2.58-.8 5-3a48 48 0 0 0 1.54-7.72c.46-2.28.46-2.28 2.46-4.28.51-4.6-.18-7.32-3-11zM1579.13 191.93c8.2 5.91 14.55 13.72 20.82 21.59a70 70 0 0 0 5.56 5.98c3.65 3.54 6.78 7.45 9.97 11.41q4.19 5.1 8.53 10.09 5.33 6.17 10.5 12.5c3.88 4.79 7.88 9.48 11.9 14.16q5.22 6.08 10.4 12.22c7.35 8.69 7.35 8.69 15 17.11a165 165 0 0 1 15.35 18.48c2.33 3.21 4.96 6.09 7.64 9.03 2.66 3.03 5.12 6.19 7.58 9.38a223 223 0 0 0 13.15 15.34c2.68 3.02 5.12 6.17 7.54 9.41a88 88 0 0 0 9.37 10.81c4.3 4.12 7.85 8.62 11.46 13.32 4.11 5.33 8.53 10.3 13.1 15.24q2.02 2.18 4 4.38c.84.9.84.9 1.68 1.83 1.42 1.94 1.9 3.45 2.33 5.79l-1.47 1.03c-17.62 12.74-27.6 30.69-31.05 52.11a145 145 0 0 0-.98 12.32q-.09 1.18-.13 2.4-.2 3.75-.37 7.52l-.38 7.49-.24 4.65q-.27 5.48-.9 10.94a181 181 0 0 0-.95 13.97l-.24 5.41-.35 8.35c-.38 9.32-.83 18.58-1.96 27.84-1.1 9.07-1.5 18.13-1.83 27.25a782 782 0 0 1-2.73 44.6l-.19 2.08a228 228 0 0 1-2.23 18.04h-1l-2 16a1171 1171 0 0 1-67.54-3.2c-25.36-2-50.76-3.12-76.15-4.36l-23.6-1.16-9.33-.46-5.73-.28-2.57-.12a199 199 0 0 1-14.02-1.19c-3.71-.41-7.43-.54-11.15-.69l-5.22-.24-2.73-.12c-13.94-.6-27.87-1.32-41.8-2.43a650 650 0 0 0-26.12-1.38q-7.88-.31-15.8-.58l-5.87-.23-2.69-.08c-5.52-.22-10.77-.93-16.18-2.02a89 89 0 0 0-11.83-1.15l-2.3-.14a46 46 0 0 0-12.37.83c.53-6.66 3.86-9.88 8.55-14.25 7.15-6.08 16.28-9.4 24.82-13.06 3.8-1.39 3.8-1.39 5.63-4.69.34-1.98.34-1.98.42-4.12.38-4.14 1.41-7.6 2.81-11.49 1.13-3.55 1.68-7.17 2.3-10.84.59-3.25 1.56-6.37 2.47-9.55q.45-2.4.87-4.81c1-5.71 2.23-11.34 3.51-16.99a949 949 0 0 0 4.21-19.74c.95-4.56 2.12-8.99 3.4-13.46q.55-2.71 1-5.44c.67-3.88 1.47-7.68 2.47-11.49 1.94-7.64 3.44-15.41 5.04-23.14.96-4.71 2.15-9.3 3.5-13.93q.53-2.74 1-5.5c.73-4.27 1.8-8.33 3-12.5l1-5.56a77 77 0 0 1 3-11.44q.77-4.1 1.42-8.22a74 74 0 0 1 2.58-8.78q.75-3.2 1.42-6.44l.78-3.68 1.58-7.88.4-1.99 1.07-5.54a147 147 0 0 1 2.75-10.47q.52-2.5 1-5a88 88 0 0 1 2-8.44 93 93 0 0 0 2-9.06 110 110 0 0 1 3-12.5l1-5a88 88 0 0 1 2-8.44 84 84 0 0 0 1.87-8.43c.88-5.03 1.95-9.98 3.13-14.94q.23-1.07.5-2.18a101 101 0 0 1 2.56-9.18 53 53 0 0 0 1.94-8.27 114 114 0 0 1 3-12.56l1-5a88 88 0 0 1 2-8.44 83 83 0 0 0 1.87-8.5c1.3-7.33 3.11-14.52 4.9-21.74a197 197 0 0 0 3.21-15.19c2.48-14.11 12.65-25.43 23.91-33.67 20.32-14.12 43.7-12.14 64.22.47"/><path fill="#ffa519" d="m2924 287 2.85 1.5c14.44 8.43 24.38 20.92 28.77 37.03 1.69 7.13 2.29 14.3 2.88 21.59.82 9.36 1.77 18.62 3.44 27.86A324 324 0 0 1 2965 398l.75 6.78.5 4.59q.77 6.95 1.69 13.88c.99 7.8 1.74 15.61 2.5 23.44.95 9.85 2.09 19.64 3.57 29.43.84 5.59 1.41 11.14 1.68 16.8.27 2.66.72 5.1 1.28 7.71 1.18 5.68 1.59 11.33 1.97 17.12.8 11 2.14 21.85 3.71 32.76.81 5.81 1.45 11.63 2.12 17.45l.98 8.35q1.1 9.3 2.13 18.63 1.38 12.5 2.86 24.99l.51 4.44q1.53 13.06 3.28 26.11a939 939 0 0 1 1.97 15.96l.39 3.34q1.29 11.47 2.17 22.97c.47 15.15.47 15.15 4.94 29.25-2.44-1.19-2.44-1.19-5-3-.81-2.69-.81-2.69-1-5l-4 3-1.73-.87a377 377 0 0 0-47.48-19.9c-9.3-3.18-18.2-6.39-26.79-11.23l-2.69-1.48C2913 682 2913 682 2911 679c-.46-2.24-.46-2.24-.75-4.89l-.34-3.01-.35-3.24-.78-6.86-.39-3.54a2118 2118 0 0 0-1.85-15.78l-.73-6.13a3122 3122 0 0 0-6.41-51.18c-1.28-9.35-2.44-18.7-3.58-28.06a1412 1412 0 0 0-4.71-34.2 448 448 0 0 1-2.95-23.38l-.38-3.96q-.33-3.64-.62-7.27c-.73-8.34-2.4-15.96-6.79-23.19C2879 462 2879 462 2879 460l-3-1-1.62-2.25c-6.45-7.47-15.9-9.59-25.38-10.75-13.47-.39-25.32 3.89-36 12a262 262 0 0 0-5 5q-3.86 3.65-7.75 7.25A443 443 0 0 0 2787 483a157 157 0 0 1-9.57 8.86c-3.38 2.97-6.65 6.06-9.93 9.14a357 357 0 0 1-11.88 10.81c-3.66 3.15-7.02 6.58-10.42 10.01-2.51 2.49-5.14 4.8-7.82 7.1-9.97 8.72-19.39 17.97-28.69 27.39-12.69 12.85-12.69 12.85-18.98 18.2-2.73 2.38-5.24 4.96-7.77 7.55-11.73 11.79-11.73 11.79-15.62 12.26-4.14-.4-7.68-1.73-11.51-3.26a573 573 0 0 0-24.87-8.81l-3.42-1.14a359 359 0 0 0-17.55-5.4c-2.68-.97-4.17-2.55-5.97-4.71l-3-1v4h-2l-1.02-2.55-1.36-3.33-1.33-3.3c-1.12-2.88-1.12-2.88-3.29-4.82.3-3.83 1.32-5.82 4.02-8.49l1.92-1.93 2.1-2.04 2.15-2.15 6.87-6.77 4.56-4.52 4.42-4.37 2.05-2.03q5.91-5.8 12.2-11.21c2.36-2.06 4.53-4.25 6.71-6.49l9.31-9.38 2.48-2.5c4.36-4.38 8.8-8.59 13.49-12.62a101 101 0 0 0 6.22-6c2.73-2.77 5.49-5.41 8.44-7.94 3.17-2.72 6.12-5.59 9.06-8.56 2.86-2.89 5.72-5.68 8.81-8.31 4.38-3.74 8.36-7.84 12.4-11.92 3.51-3.53 7.1-6.87 10.9-10.09 3.05-2.7 5.86-5.64 8.72-8.54 2.39-2.36 4.87-4.53 7.47-6.66 2.35-2.04 4.51-4.26 6.7-6.48l9.81-9.88 2.62-2.64c4.49-4.51 9.04-8.85 13.87-13 2.17-1.89 4.19-3.91 6.2-5.98a166 166 0 0 1 10.37-9.63c3.49-3.07 6.87-6.25 10.25-9.43l2.22-2.09a657 657 0 0 0 15.98-15.69c3.4-3.42 6.88-6.65 10.56-9.76 3.55-3.18 6.87-6.61 10.2-10.02 3.48-3.54 7.11-6.83 10.87-10.08 4.13-3.63 8.08-7.47 12.05-11.28 6.68-6.34 13.48-11.89 22-15.52l2.47-1.13c13.63-5.48 29.61-4.76 42.53 2.13m80 435 2 1Zm2 1 3 1ZM1579.13 191.93c8.2 5.91 14.55 13.72 20.82 21.59a70 70 0 0 0 5.56 5.98c3.65 3.54 6.78 7.45 9.97 11.41q4.19 5.1 8.53 10.09 5.33 6.17 10.5 12.5c3.88 4.79 7.88 9.48 11.9 14.16q5.22 6.08 10.4 12.22c7.35 8.69 7.35 8.69 15 17.11a165 165 0 0 1 15.35 18.48c2.33 3.21 4.96 6.09 7.64 9.03 2.66 3.03 5.12 6.19 7.58 9.38a223 223 0 0 0 13.15 15.34c2.68 3.02 5.12 6.17 7.54 9.41a88 88 0 0 0 9.37 10.81c4.3 4.12 7.85 8.62 11.46 13.32 4.11 5.33 8.53 10.3 13.1 15.24q2.02 2.18 4 4.38c.84.9.84.9 1.68 1.83 1.42 1.94 1.9 3.45 2.33 5.79l-1.47 1.03c-17.62 12.74-27.6 30.69-31.05 52.11a145 145 0 0 0-.98 12.32q-.09 1.18-.13 2.4-.2 3.75-.37 7.52l-.38 7.49-.24 4.65c-.27 5.19-.78 10.32-1.38 15.48-2.2-3.28-2.2-5.06-2.23-8.9-.04-9.32-.04-9.32-4.7-17.08L1720 485l-2.84-3.08a506 506 0 0 0-6.28-6.81c-2.8-3-5.5-6.06-8.19-9.16q-3.04-3.45-6.13-6.82a187 187 0 0 1-8.44-10c-3.47-4.4-7.19-8.5-10.99-12.59a245 245 0 0 1-10.97-12.89 202 202 0 0 0-6.66-7.65 291 291 0 0 1-11.07-13.02 606 606 0 0 0-9.86-11.64q-3.76-4.34-7.4-8.8A104 104 0 0 0 1612 364l-2.28-1.78c-9.35-6.88-20.37-8.24-31.72-7.22-7.67 1.31-16.06 3.97-21.63 9.66C1555 366 1555 366 1553 366l-.83 1.71c-1.67 3.25-3.67 6.28-5.64 9.36-4.78 9.11-6.33 19.52-8.47 29.49l-2.03 9.32-.51 2.34a474 474 0 0 1-3.45 14.44c-2.46 9.62-4.52 19.33-6.62 29.03a1849 1849 0 0 1-11.68 50.94c-2.2 8.87-4.23 17.76-6.21 26.68a1844 1844 0 0 1-8.83 37.7l-1.62 6.72-.47 2.01A21 21 0 0 1 1491 596c-3.03 1.52-3.03 1.52-6.7 2.81l-2.1.75q-3.6 1.24-7.2 2.44l-2.62.89c-15.92 5.36-32.04 9.89-48.23 14.31-8.03 2.2-8.03 2.2-16.04 4.47l-2.23.64c-2.18.71-2.18.71-4.88 2.69.88-6.83 1.9-13.27 4.27-19.75 1.13-3.5 1.64-7.08 2.26-10.7.59-3.25 1.56-6.37 2.47-9.55q.45-2.4.87-4.81c1-5.71 2.23-11.34 3.51-16.99a949 949 0 0 0 4.21-19.74c.95-4.56 2.12-8.99 3.4-13.46q.55-2.71 1-5.44c.67-3.88 1.47-7.68 2.47-11.49 1.94-7.64 3.44-15.41 5.04-23.14.96-4.71 2.15-9.3 3.5-13.93q.53-2.74 1-5.5c.73-4.27 1.8-8.33 3-12.5l1-5.56a77 77 0 0 1 3-11.44q.77-4.1 1.42-8.22A74 74 0 0 1 1446 424q.75-3.2 1.42-6.44l.78-3.68 1.58-7.88.4-1.99 1.07-5.54A147 147 0 0 1 1454 388q.52-2.5 1-5a88 88 0 0 1 2-8.44 93 93 0 0 0 2-9.06 110 110 0 0 1 3-12.5l1-5a88 88 0 0 1 2-8.44 84 84 0 0 0 1.87-8.43c.88-5.03 1.95-9.98 3.13-14.94q.23-1.07.5-2.18a101 101 0 0 1 2.56-9.18 53 53 0 0 0 1.94-8.27 114 114 0 0 1 3-12.56l1-5a88 88 0 0 1 2-8.44 83 83 0 0 0 1.87-8.5c1.3-7.33 3.11-14.52 4.9-21.74a197 197 0 0 0 3.21-15.19c2.48-14.11 12.65-25.43 23.91-33.67 20.32-14.12 43.7-12.14 64.22.47M1399 625l2 1Zm-2 1 2 1Zm-2 1 2 1Zm678 1195 1 3 2.24-.02 10.2-.04 3.53-.03c6.44-.02 12.64.25 19.03 1.09h2l1-3 1 3c2.41.91 4.71 1.64 7.19 2.31 16.66 4.89 31.63 12.26 44.81 23.69l1.52 1.3c24.1 20.76 38.85 49.02 42.48 80.7 1.71 34.17-6.74 67.64-29.98 93.53a358 358 0 0 1-5.66 6.04 291 291 0 0 0-3.79 4.09c-12.47 13.22-29.3 21.7-46.59 26.76q-2.88.85-5.74 1.78c-28.37 8.21-61.88 3.85-87.52-10-9.59-5.36-18.68-10.64-26.72-18.2l-2.78-2.54c-23.74-22.6-34.21-53.96-36.47-86-.15-7.28.93-14.31 2.25-21.46l.52-3.2c1.38-7.52 3.66-14.47 6.36-21.61l.99-2.64c5.66-14.55 14.34-27.31 25.13-38.55l2.05-2.18c3.46-3.58 3.46-3.58 4.95-4.82h2v-2c10.89-9.44 24.52-17.09 38-22l2.92-1.08a134 134 0 0 1 20.34-5.21l2.74-.71z"/><path fill="#de7b19" d="M2873.04 454.19c8.83 8.15 13.63 18.96 14.86 30.82l.45 4.18.23 2.2a869 869 0 0 0 4.8 38.1 1442 1442 0 0 1 6 47.2 1921 1921 0 0 0 5.3 42.19 859 859 0 0 1 4.34 36.47 584 584 0 0 0 2.3 20.66c.72 3.13 1.48 4.68 3.68 6.99 2.99 1.6 2.99 1.6 6.44 2.94l1.9.78 3.87 1.56q2.3.93 4.58 1.94c6.7 2.92 13.55 5.3 20.46 7.66 12.72 4.35 24.93 9.16 36.52 16.06 3.37 1.6 5.76 1.22 9.23.06l1.19 2.8c2 3.55 3.12 4.6 6.8 6.2l3.26.44c4.78.72 8.46 2.42 12.75 4.56l3.19 1.58c8.07 4.15 16.93 8.73 20.8 17.42.7 2.8.7 2.8 1 5-4 0-4 0-7-1q-3.48.06-7 .19a89 89 0 0 1-18.3-1.62c-14.41-2.62-28.37-2.8-43-2.63-19.27.2-38.16-.52-57.33-2.35-7.38-.7-14.77-1.21-22.17-1.71q-6.09-.41-12.2-.88l-2.66-.2c-6.05-.56-6.05-.56-8.64-2.8a94 94 0 0 1-4.56-9.42c-1.65-3.78-3.57-7.43-5.47-11.1a181 181 0 0 1-4.01-9.14 416 416 0 0 0-8.02-17.9c-3.5-7.5-6.7-15-9.44-22.81-4.06-11.4-8.08-19.7-19.2-25.63-6.53-2.92-12.63-3.78-19.74-4.43l-3.75-.37-11-.98-7.86-.7a1870 1870 0 0 0-85.64-5.26c-17.18-.71-34.3-1.55-51.42-3.27a395 395 0 0 0-28.98-1.7l-3.01-.08-2.62-.05C2602 626 2602 626 2601 625q-.37-3.55-.56-7.12l-.13-2.25c-.38-7.45-.37-14.9-.27-22.34.05-5.7-.24-11.22-.91-16.88-.12-2.4.17-4.14.87-6.41 2.36.4 3.67.64 5.3 2.44 2.23 2.05 4.16 2.49 7.07 3.3a409 409 0 0 1 20.5 6.6l5.52 1.89 13.9 4.75 2.57.88 2.36.8 2.08.72c1.7.62 1.7.62 3.7 1.62 2.76.67 2.76.67 6 0 2.92-2 5.33-4.44 7.82-6.93l2.14-2.1q3.04-2.95 6.04-5.97l2.77-2.75 4.05-4.12c1.8-1.76 3.64-3.37 5.56-5 3.92-3.4 7.57-7.01 11.2-10.7l1.8-1.8q3.73-3.76 7.42-7.52c12.27-12.47 12.27-12.47 19.39-17.74a55 55 0 0 0 6.8-6.37l3.28-3.3 1.74-1.76c4.84-4.86 9.66-9.68 14.89-14.12 3.42-2.96 6.72-6.05 10.04-9.13q4.09-3.8 8.22-7.55c4.8-4.37 9.53-8.77 14.09-13.4 11.09-11.18 11.09-11.18 15.75-12.74l1-3c7-5.24 14.4-9.2 23-11l3.32-.75c12.48-.84 24 .74 33.72 8.94"/><path fill="#313a4a" d="M2213.38 1390.69h3.51c12.93.15 25.84.92 38.74 1.69l3.23.19a690 690 0 0 1 33.23 2.6c14.3 1.63 28.07 6.9 38.09 17.5 6.64 8.52 11.02 19.43 9.82 30.33-2.57 15.36-10.7 28.26-23.22 37.48a131 131 0 0 1-38.78 17.98c-3.87 1.08-3.87 1.08-7 3.54-2.72 11.19.2 20.37 6 30 10.68 15.46 24.22 23.56 42.49 27.28 15.14 2.46 28.97-2.81 41.16-11.4 5.59-4.46 10.1-9.96 14.76-15.35 3.98-3.87 7.87-5.96 13.47-5.96 5.82.2 10.36 1.87 14.65 5.86 5.2 5.87 6.06 11.49 5.88 19.1-1.6 13.37-12.8 24.26-22.87 32.34-17.97 13.66-38.05 20.29-60.47 20.38l-3.78.06c-26.76.12-50.87-11.1-69.91-29.56a104 104 0 0 1-9.39-11.75c-3.92.56-5.8 2.42-8.61 5.13-15.3 14.06-32.18 21.36-52.5 24.56l-2.54.4c-26.26 3.84-55-3.87-76.47-19.28-12.86-10.13-28.03-24.42-30.37-41.46-.14-8.51.53-14.06 6.5-20.35 4.53-4.41 9.13-6.05 15.38-6.37 5.68.16 10.03 2.02 14.24 5.85 4.72 5.18 8.45 11.44 11.45 17.76 1.24 2.35 2.53 2.63 4.92 3.76l2.64 2.25c13.01 11.03 28.53 13.69 45.24 12.93 14.79-1.24 27.24-8.36 37.13-19.18a103 103 0 0 0 5-7.12l1.14-1.74a34 34 0 0 0 5.3-17.9l.11-2.78c-.32-2.62-.32-2.62-2.6-4.05L2216 1494l-3.6-1.8-1.97-.95c-11.8-5.73-21.91-12.11-31.43-21.25l-2.74-2.62c-5.18-5.45-9.3-10.42-12.27-17.38l-.9-1.91c-3.6-8.7-3.75-20.66-.6-29.52a46.7 46.7 0 0 1 26.14-23.88q2.67-.9 5.36-1.7l3.64-1.07c5.22-1.27 10.38-1.26 15.74-1.23m-337.7-227.85c11.7-.36 23.99 1.49 34.33 7.16l2.75 1.36c16.07 8.47 28.05 23.1 33.69 40.33q.83 3.14 1.56 6.31l.68 2.74c1.29 6.21 1.47 12.33 1.46 18.64v2.76c-.07 10.07-.68 20.1-1.36 30.14l-.62 9.42-.4 6.07q-.08 1.39-.2 2.81c-.24 3.65-.53 7.24-1.07 10.86-.68 4.92-.87 9.84-1.1 14.8l-.35 6.67-.51 10.4c-1.28 27.26-5.5 51.9-26.28 71.44-13.38 11.43-26.9 16.68-44.25 18.25l-2.4.22c-17.31.76-34.54-6.21-47.54-17.28-13-12.07-22.5-28.43-24.41-46.27q-.16-5.07-.04-10.15l.04-3.86c.23-16.19 1.38-32.35 2.49-48.49l.66-9.9a2276 2276 0 0 1 3.87-51.57c1.9-23.18 9.64-41.84 27.46-57.32 12.2-9.69 26.1-14.61 41.54-15.54m784.67 67.63c15.92 11.32 24.42 26.3 28.12 45.28l.54 3.25.58 3.22c1 8.9.3 17.8-.45 26.7q-.3 3.47-.56 6.92l-.3 3.58q-.65 8.73-1.23 17.46l-.48 7.05-.24 3.57c-2.38 34.58-2.38 34.58-3.7 49.3l-.5 5.58c-2.01 21.3-9.02 39.26-24.12 54.62l-1.93 1.97c-11.85 11.22-28.75 15.9-44.74 16.07-20.08-.9-37.2-7.41-51.33-22.04-7.86-9.22-13.66-19.35-17-31l-.62-2.1c-3.4-13.51-1.47-28.5-.22-42.2a767 767 0 0 0 1.72-23.95q1.26-20.61 2.75-41.22l.48-6.85c1.92-28.34 7.08-51.17 27.89-71.68a70 70 0 0 1 8-6l3.19-2.06c24.2-13.33 51.32-9.83 74.15 4.53"/><path fill="#fff" d="M2123 1900c10.13 9.22 14.38 21.98 17 35l1.69.26c8.53 1.57 14.5 5.28 20.31 11.74l2.06 2.25c5.6 7.94 7.72 16.13 6.94 25.75-1.81 8.76-6.23 15.55-13.66 20.56-11.16 6.88-22.88 5.94-35.53 5.75l-6.63-.05q-7.19-.06-14.36-.17-9.24-.11-18.48-.15-8.74-.05-17.47-.13-5.34-.06-10.67-.08-6.01-.04-12.02-.12h-3.59c-9.85-.18-19.3-2.59-26.59-9.61-6.02-7.28-9.6-15.29-9.22-24.81 1.36-13.43 8.95-23.57 18.78-32.33 6.47-4.93 10.65-6.26 18.63-6.55 5.82-.24 5.82-.24 10.62-3.04.93-2.21.93-2.21 1.51-4.64 2.72-10.46 11.73-19.05 20.71-24.45 17.39-9.08 34.04-6.84 49.97 4.82"/><path fill="#ffa519" d="M3067 2209a97 97 0 0 1 4.94 3.88 75 75 0 0 0 7.85 5.89c4.28 2.98 7.9 6.49 11.65 10.11 5.07 4.86 10.18 9.6 15.56 14.12-.59 4.54-.59 4.54-2.36 6.53l-1.83 1.41c-10.39 8.58-19.51 18.47-27.81 29.06l-2.79 3.42c-19.62 24-34.57 49.63-47.13 77.89l-1.06 2.35a91 91 0 0 0-1.93 4.8c-1.73 4.5-3.18 7.53-7.78 9.69-5.5 2.03-11.1 3.69-16.75 5.29l-2.06.59a406 406 0 0 1-27.94 7.03l-2.9.62A65 65 0 0 1 2949 2393c-3.36-6.72.21-15.08 2.31-21.69l.94-3.09c1.5-4.84 3.09-8.89 5.75-13.22q1.02-2.7 2.02-5.42c2.07-5.44 4.47-10.75 6.8-16.09q1.38-3.13 2.73-6.28c5.28-12.11 10.82-24.05 17.83-35.27l1.42-2.31c11.82-18.94 25.34-37.86 41.2-53.63l4.84-4.91 5.54-5.59 2.78-2.84c4.72-4.75 9.31-8.91 14.84-12.66l1-2c3.72-1.24 4.56-.71 8 1"/><path fill="#313a4a" d="M1236.75 1232.2c3.98 1.4 8.16 1.75 12.34 2.28 2.75.49 4.46 1.28 6.9 2.52q2.94.58 5.89 1c4.26.66 8.04 1.64 12.12 3q4.54.79 9.1 1.44c2.9.56 2.9.56 5.33 1.56 3.23 1.26 6.32 1.63 9.76 2.07 6.6.83 6.6.83 8.8 1.93q2.7.49 5.4.9c6.22 1 12.3 2.34 18.43 3.79l6.86 1.6 3.62.85q9.56 2.21 19.14 4.36l1.98.45c16.06 3.62 32.13 7.23 48.22 10.7a3384 3384 0 0 1 28.89 6.35q5.68 1.25 11.35 2.57l4.32.96c9.25 2.03 15.93 4.04 21.58 11.97 3.15 6.47 4.67 11.05 2.4 18-2.83 6.64-6.71 10.37-13.18 13.5-7.06 2.5-14.31.45-21.3-1.23l-3-.7-6.31-1.48a3010 3010 0 0 0-19.64-4.6 557 557 0 0 0-22.12-4.67 747 747 0 0 1-33.13-7.36 961 961 0 0 0-28.61-6.41 63 63 0 0 1-11.9-3.55 95 95 0 0 0-4.74-.87c-4.9-.84-9.72-1.9-14.56-3.06a524 524 0 0 0-15.12-3.44 1197 1197 0 0 1-20.75-4.63l-3.32-.75a434 434 0 0 1-18.07-4.6c-3.06-.82-6.14-1.5-9.24-2.15l-3.56-.75q-3.65-.75-7.31-1.43c-16.05-3.08-16.05-3.08-21.2-9.75L1201 1260l-1.68-2.87c-1.92-4.58-2.12-7.87-.44-12.58 2.63-5.78 5.74-10.1 11.12-13.55 7.99-2.66 19-2.02 26.75 1.2m207.63 164.55 2.6-.06c6.58-.04 10.72 1.23 15.7 5.75 5.62 6.21 6.7 10.4 6.6 18.74-.58 5.84-3 9.5-7.02 13.63-6.75 4.54-12.72 5.64-20.65 5.67l-2.65.04q-4.18.07-8.34.11l-8.3.12q-2.56.04-5.14.06c-4.99.07-9.87.42-14.84.96-3.24.32-6.5.43-9.76.51l-2 .06-4.17.11q-5.53.13-11.05.3l-2.2.06c-7.55.22-15.1.56-22.63.92l-5.54.27-2.62.13a1281 1281 0 0 1-39.7 1.26q-27.95.47-55.86 1.61l-3.17.13-6.13.25-5.91.23q-7.25.28-14.46.82l-2.88.19q-2.66.18-5.3.43c-5.93.39-9.97-.78-14.97-4.05-2.02-1.82-2.02-1.82-3.37-3.56l-1.4-1.76c-4.48-6.14-4.2-12.36-3.23-19.68 1.77-3.71 4-6.25 7-9l2.58-2.5c12.88-5.62 32.4-3.12 46.3-3.63l10-.37 3.08-.11c5.09-.19 10-.64 15.04-1.39q3.74-.2 7.45-.28l2.1-.06 6.59-.16 6.51-.16 5.96-.15c3.37-.11 6.7-.38 10.06-.66 9.68-.77 19.4-.97 29.13-1.25l6.32-.19 16.59-.49 26.44-.79 9.13-.26q16.28-.48 32.54-1.34 7.77-.41 15.57-.46m1479.82 114.89q6.59 1.36 13.24 2.43c3.99.63 7.89 1.44 11.8 2.37a406 406 0 0 0 35.29 6.47l2.29.35 2 .29c2.18.45 2.18.45 4.98 1.4a73 73 0 0 0 10.59 2.42l4.3.74 2.27.38c10.57 1.79 21.1 3.6 31.55 6.05 7.42 1.72 14.9 3.1 22.38 4.53q13.26 2.52 26.49 5.23a329 329 0 0 0 17.92 3.13 23.8 23.8 0 0 1 14.14 8.5c3.1 6.09 4.93 11.56 2.87 18.34-2.16 5.44-4.51 8.4-9.31 11.73l-2.26 1.62c-3.4 1.72-5.81 1.75-9.61 1.7l-3.56-.02c-3.76-.31-6.95-1.22-10.57-2.3-2.88-.58-5.78-1.04-8.7-1.5l-2.38-.4q-5.18-.83-10.34-1.63a148 148 0 0 1-14.27-2.9 169 169 0 0 0-14.31-3 666 666 0 0 1-18.87-3.5l-2.55-.51q-6.18-1.26-12.33-2.6a282 282 0 0 0-23.62-4.27c-13.61-1.82-27.05-4.54-40.52-7.14q-10.34-1.97-20.68-3.9l-3.23-.6q-6.38-1.2-12.74-2.37-8.5-1.58-17.01-3.21l-6.8-1.26-3.75-.72-3.14-.6c-5.73-1.86-8.81-5.81-11.76-10.9-2.94-6.9-2.5-12.91.03-19.84 1.98-4.36 4.65-7.18 8.53-10.02 15.54-5.1 36.1 2.34 51.64 5.5m186.4-137.81c15.3-.96 15.3-.96 21.73 4.35 4.84 5.32 6.98 11.64 6.67 18.83-1.82 6.19-5.32 11.96-11.08 15.15-6.84 2.83-13.26 3.73-20.6 4.27l-3.66.3-11.54.9-7.53.62q-18.33 1.49-36.67 2.75a2357 2357 0 0 0-42.8 3.5q-3.64.34-7.3.66c-13.44 1.18-13.44 1.18-26.88 2.42a929 929 0 0 1-39.07 2.85q-2.75.14-5.49.32c-3.49.27-6.92.75-10.38 1.26-5.66.46-11.33.74-17 1l-3.98.2c-6.96.2-11.53.27-17.02-4.2-5.08-5-7.12-8.57-7.25-15.75.1-6.83 1.92-12.8 6.63-17.94 6.97-5.63 16.11-6.07 24.67-6.54a1404 1404 0 0 1 15.26-.95l11.63-.75 7.21-.45 3.3-.2 2.9-.17c2.6-.24 5.08-.72 7.65-1.25q2.18-.22 4.37-.37l2.54-.17 5.58-.37 9.2-.6q1.56-.08 3.17-.2c11.6-.75 23.2-1.45 34.82-1.8 13.72-.4 27.35-1.7 41.01-2.93 7.7-.7 15.37-1.28 23.06-1.85q7.9-.59 15.81-1.27 10.5-.9 21.03-1.62"/><path fill="#de7b19" d="M3373 2216h3c.33 4.78-.51 6.99-3 11l1 3 2 1 1-6c6.15.59 6.15.59 8 1l1 2a74 74 0 0 1-2 5l-.75 2.11c-9.36 25.46-28.36 47.7-45.8 68a282 282 0 0 0-6.57 8.08c-9.23 11.61-19.44 22.21-31.03 31.46a194 194 0 0 0-8.85 7.85c-12.25 11.36-25.64 21.21-39.31 30.78q-5.55 3.87-10.97 7.88c-17.14 12.71-35.3 23.33-54.29 33.03a379 379 0 0 0-14.68 8c-22.18 12.47-46.01 22.7-69.75 31.81l-3.43 1.36a187 187 0 0 1-16.96 5.84c-2.97.91-5.84 2.01-8.73 3.11-7.73 2.82-15.63 4.73-23.62 6.63l-3.01.73-2.7.63a69 69 0 0 0-7.55 2.7q-2.11.55-4.25 1l-2.34.5-4.82 1a68 68 0 0 0-11.59 3.5c-6.62 1.36-13.24 2.31-20 2l-2-5 5-1 1-4 8-1-1-2-3.88-.06-2.17-.04c-2.03-.03-2.03-.03-3.95 1.1-1.13 2.02-1.13 2.02-2 4l-3.94-.5c-8.5-1.04-8.5-1.04-16.78.48-4.08 1.27-7.85 1.43-12.09 1.58l-4.81.23-2.3.11c-6.64.09-6.64.09-12.81 2.07-6.28 2.84-14.01 2.18-20.77 2.15l-2.72.02c-5.35-.01-10.49-.36-15.78-1.14v-1l3.59-.34 13.32-1.26 5.74-.54c13.71-1.25 13.71-1.25 27.29-3.47 2.58-.49 5.12-.66 7.75-.77 6.03-.45 11.67-1.84 17.5-3.38 5.93-1.56 11.9-2.88 17.87-4.24 13.3-3.05 26.4-6.44 39.41-10.57q5.18-1.64 10.37-3.2l3.09-.93 6-1.8c4.78-1.44 9.48-2.97 14.13-4.76q3.08-1.16 6.18-2.21c26.98-9.16 26.98-9.16 52.82-21.02 2.89-1.49 5.8-2.74 8.82-3.95 11.87-4.83 23.15-11.06 34.46-17.05q5.95-3.18 12.04-6.13c6.12-3.04 11.86-6.72 17.62-10.38l1.7-1.08c14-8.88 27.76-18.13 41.37-27.59l3.75-2.58a232 232 0 0 0 23.32-18.38c2.97-2.64 6.04-5.13 9.15-7.61 5.85-4.76 11.13-9.99 16.4-15.38a262 262 0 0 1 16.59-15.87c7.42-6.51 13.42-14.53 19.34-22.38q3.2-4.18 6.5-8.25c8.13-10.14 15.11-20.82 21.88-31.88l2.17-3.53 2.02-3.28 1.93-3.13q1.93-3.14 3.83-6.31l1.86-3.06 1.65-2.74z"/><path fill="#ffa519" d="M3168.44 2527.75c5.16 1.81 7.26 5.02 10.56 9.25a797 797 0 0 0 5.25 6.31l1.42 1.68c6.35 7.48 13.07 14.73 21.1 20.42 2.37 1.69 4.64 3.47 6.9 5.26 5.88 4.6 11.8 8.7 18.33 12.33l2.23 1.26q2.2 1.24 4.42 2.45 2.55 1.4 5.08 2.83c10.48 6.09 10.48 6.09 22.27 7.46l3-1-1.44 5.37-.8 3.03c-.76 2.6-.76 2.6-1.76 4.6l5 1v2h9v2l-3 1a189 189 0 0 0-4 4l-2 1-1 3 4-1a28 28 0 0 1-9.21 6.76l-3.02 1.45-3.14 1.48-3.12 1.51c-4.9 2.32-9.1 4.08-14.51 4.8l3-4-3.18.11c-7.92.18-14.41.06-21.82-3.11v-1a173 173 0 0 1 17-5l.34-1.92.66-2.08c2.56-1.25 2.56-1.25 5-2a74 74 0 0 0-11 3 342 342 0 0 1-13 4l-2.16.66c-6.73 1.49-12.83-1.94-18.84-4.66l-2.36-1.06q-3.83-1.73-7.64-3.5l-2.46-1.14a50 50 0 0 1-11.54-7.3 479 479 0 0 0-5.94-4.06c-10-6.85-19.76-14.07-28.06-22.94l-2.18-2.16c-4.41-4.44-8.66-9.03-12.93-13.6l-2.07-2.21-2-2.12a119 119 0 0 0-4.8-4.73c-2.02-2.18-2.02-2.18-2.33-5.49l.3-2.69c4.42-1.95 8.79-3.65 13.39-5.13a971 971 0 0 0 21.68-7.43l3.29-1.14c5.76-2.05 12.29-7.13 18.09-7.55M3240 2639c-5.41 3.08-5.41 3.08-8.37 2.69l-1.63-.69c6.63-3.13 6.63-3.13 10-2m122.05-244.41c1.95 1.4 1.95 1.4 2.76 3.92l.42 3.13.5 3.44.46 3.6.5 3.57.92 6.82q.44 3.27 1 6.5c.59 5.19.54 10.35.52 15.56l-.02 3.58c-.45 74-.45 74-12.48 86.23L3353 2534q-1.82 1.98-3.56 4l-1.75 2.02-3.3 3.87c-5 5.9-10.42 11.09-16.25 16.18a65 65 0 0 0-4.9 4.93c-2.24 2-2.24 2-5.05 2.32l-2.2-.32c-.38-5.55.16-9.91 1.76-15.25 3.59-12.26 4.74-25.1 6.25-37.75l.37-3.01c2.67-22.67 3.2-46.6.07-69.24-1.22-10.41-1.22-10.41 1.06-14.31 2-1.95 4.03-3.77 6.15-5.6a236 236 0 0 0 12.48-11.84l2.05-2.03c3.72-3.73 7.25-7.54 10.59-11.62 1.83-2 2.63-2.52 5.28-1.76m-57.8 51.16 2.75.25a360 360 0 0 1 2.75 35.19l.23 3.72c.09 5.02.13 8.61-2.95 12.73a76 76 0 0 1-8.03 6.36l-2.27 1.75a199 199 0 0 1-6.42 4.69l-2.34 1.66c-11.07 7.86-22.24 15.28-34.12 21.87q-4.04 2.26-8.07 4.54l-6.14 3.44a229 229 0 0 0-6.44 3.73l-2.33 1.38-1.88 1.16c-2.85 1.12-4.95 1.12-7.99.78a48 48 0 0 1-12.63-11.06 44 44 0 0 0-6.31-6.38c-7.84-6.74-7.84-6.74-10.06-10.56-.16-2.71-.16-2.71 0-5l6.5-3.75 1.82-1.05q4.65-2.7 9.46-5.08c5.18-2.56 10.19-5.4 15.22-8.25l3.06-1.73a508 508 0 0 0 23.26-14.07l4.75-3a324 324 0 0 0 15.27-10.19q3.73-2.61 7.48-5.17c10.77-7.12 10.77-7.12 20.08-15.94 2.1-1.77 2.1-1.77 5.35-2.02m-182.89-185.08c3.39.42 4.1 1.34 6.27 3.95l2.09 2.52 2.28 2.86 2.5 3.01c7.49 9.13 13.85 18.94 20.14 28.92 1.35 2.13 1.35 2.13 3.07 4.18l1.29 1.9c-1.17 5.27-4.36 7.12-8.64 9.98-5.71 3.41-11.61 6.43-17.52 9.48q-5.38 2.78-10.6 5.83c-18.1 10.48-37.31 18.87-56.7 26.67q-3.4 1.38-6.8 2.8l-3.5 1.42-2.85 1.16c-2.6.7-3.9.56-6.4-.35.27-8.04 2.85-13.2 7-20l1.8-2.96q1.96-3.21 3.95-6.39 2.47-3.96 4.83-7.99A207 207 0 0 1 3083 2300l1.43-1.72a513 513 0 0 1 17.88-20.28q.85-.9 1.7-1.85c3.33-3.55 6.77-6.78 10.54-9.85 1.62-1.35 1.62-1.35 3.08-3.68 1.37-1.62 1.37-1.62 3.73-1.95M3428 2287c4.46 4.46 6.24 9.33 6.39 15.59q-.04 2.95-.14 5.91l-.05 3.07q-.08 3.71-.2 7.43h-2c-4-6.62-4-6.62-4-10-3.51 2.34-3.51 2.34-5.65 5.8a47 47 0 0 0-.48 7.6l-.01 3.18.02 3.36v3.45c.02 5.45.13 10.81.74 16.23.87 8.85-.43 17.77-1.34 26.57a210 210 0 0 0-.49 5.58 137 137 0 0 1-3.04 19.42l-.66 3.02a229 229 0 0 1-6.04 21.48 76 76 0 0 0-2.11 8.12c-1.87 8.93-5.68 16.87-9.87 24.9a107 107 0 0 0-6.9 17.33c-.65 1.92-.65 1.92-2.17 4.96-2.61 1-2.61 1-5 1l-1-1q.16-2.38.44-4.75c.84-9.42.7-18.81.56-28.25l-.05-3.7c-.27-15.4-.87-30.72-2.39-46.05l-.37-3.82c-.55-5.22-1.19-9.56-3.19-14.43-.69-6.64.53-9.91 4.44-15.19l1.37-1.94q1.4-1.99 2.81-3.95 2.52-3.53 4.95-7.1c2.37-3.46 4.76-6.92 7.27-10.29 4.13-5.61 7.18-11.43 10.16-17.7a50 50 0 0 1 7-10.89c2.44-2.92 2.97-3.7 3.5-7.63l-.5-3.31-.5-3.44-.5-2.56c1.88.12 1.88.12 4 1 1.12 3 1.12 3 2 6l2 1-.04-2.99-.02-3.89-.04-3.86c.1-3.26.1-3.26 1.1-5.26"/><path fill="#de7b19" d="M2792 2310h1c.82 9.56 1.08 19.06 1.03 28.66l-.02 3.39q-.04 7-.11 14.01l-.06 10.35-.04 3.17c-.02 6.47.25 12.51 3.2 18.42q.58 3.8 1.06 7.62l.28 2.15.66 5.23 3-7 4 3 2-5a33 33 0 0 1 4.06 6.19c.81 1.99.81 1.99 2.94 2.81q2.14.31 4.3.5l2.63.25a365 365 0 0 1 5.69.52q8.06.73 16.13 1.23a81 81 0 0 1 15.25 2.5l2-4 4 1c-.81 3.44-.81 3.44-2 7-3.54 1.18-6.28 1.27-10 1l-2-3c-2.92-.33-2.92-.33-6.25-.12-3.34.11-6.35.19-9.65-.4-3.91-.61-7.54-.35-11.48-.04l-2.23.16q-2.69.18-5.39.4v5l-3 1c-.42 3.37-.42 3.37 0 7q2.48 1.55 5 3c.31 3.19.31 3.19 0 6h-3l-1-4h-5v-2l-2 1q-.12 3.09-.19 6.19l-.1 3.48c.32 3.65 1.34 5.29 3.29 8.33.36 2.75.14 5.21 0 8l3 1 1 11 3 1q1.03 3.5 2 7c1.5 1.67 1.5 1.67 3 3l.5 2.12.5 1.88 3 1 .59 6.15.41 1.85 2 1 .94 3 1.06 3 3 1v6h3l2-4 1 2-1 2q-.06 3 0 6l2-4 4 1v4l-2 1v5h2l1-5 3 3-3 1v7l3 1q1.62 3.45 3 7c1.58 3.84 4.04 6.11 7 9 3 3.62 3 3.62 3 6l4 2v2l4 2v2l5 1 2-7 7 2-1-7c3.85 1.57 6.12 4.06 9 7l4.47 3.61a39 39 0 0 1 4.47 5.08c3 3.66 5.46 4.48 10.06 5.31v2c-7.43-1-7.43-1-11-2l-.31 1.88c-.69 2.12-.69 2.12-3.69 4.12-3.69-.38-3.69-.38-7-1l1.13 1.64 1.43 2.17 1.44 2.15c1 2.04 1 2.04 0 5.04h-2l-1.56-2.62c-2.38-3.84-5.7-5.72-9.51-7.99-1.93-1.39-1.93-1.39-2.93-4.39l-3-1c-1.4-1.39-1.4-1.39-2.94-3.25a221 221 0 0 0-8.43-9.4A160 160 0 0 1 2847 2531l-2.35-3.36c-10.2-14.63-10.2-14.63-14.4-22.49-1.19-2.16-1.19-2.16-2.69-4a39 39 0 0 1-3.83-6.71l-1.25-2.65-1.29-2.79-2.69-5.71-1.3-2.77q-2.21-4.64-4.58-9.21c-5.17-10.26-8.73-21.02-11.87-32.05-.68-2.26-.68-2.26-1.78-4.25-1.11-2.3-1.53-4.37-1.97-6.89a49 49 0 0 0-2-7.97c-1.51-4.75-1.88-9.56-2.44-14.49-.42-3.56-.42-3.56-1.57-6.42-1.13-3.7-1.31-6.89-1.4-10.76l-.06-2.19-.15-7.1-.12-4.96q-.15-7.61-.26-15.23l-.04-2.39q-.1-6.7-.14-13.41l-.05-6.02A141 141 0 0 1 2791 2311zm231.19-276.06 3.8.06-1 3c-1.98.66-1.98.66-4.42 1.06-3.71.57-3.71.57-6.57 2.94-2.32.62-4.64 1.02-7 1.44l-2 .56-1 2c-2.11.53-2.11.53-4.75.94-4.05.73-6.82 1.7-10.25 4.06q-2.48 1.04-5 2l-2.12 1.13c-1.88.87-1.88.87-4.88.87l-.62 1.94c-1.38 2.06-1.38 2.06-4.5 2.8l-2.88.26v2l-2.75.75c-3.38 1.3-4.82 2.65-7.25 5.25h-2l-1 3-6 1-1 3q-2.84 1.13-5.73 2.1c-3.11 1.23-5.74 2.97-8.51 4.82-1.76 1.08-1.76 1.08-4.76 2.08l-1.56 1.56-1.44 1.44h-2l-.72 1.86c-1.57 2.64-2.9 3.19-5.65 4.46-4.8 2.46-6.44 4.82-8.63 9.68l2 2v3l1.6-.91 2.15-1.15 2.1-1.16c2.5-.91 3.69-.66 6.15.22a92 92 0 0 1-12.37 12.63c-1.86 1.52-1.86 1.52-4.25 4.06a31 31 0 0 1-7.38 5.3l-2-2 1-3-3 1-.75 2.39c-1.8 3.79-4.45 4.13-8.25 5.62l-2 3-4-1 1-2h2l-1-3-2-1-2 4h-2l-.25 1.75c-.97 2.93-2.38 4.3-4.75 6.25h-3l-.37 1.94-.63 2.06-2 1-1 3-4 4-1 3-2 1-1 3h3v-3q.95-.44 1.94-.87c2.2-.96 2.2-.96 3.06-3.13h2v6h6c-.53 4.53-2.27 7.15-5 10.75q-1.07 1.44-2.2 2.92c-1.8 2.33-1.8 2.33-2.8 3.33q-.59 3.03-1.06 6.06l-.54 3.35-.4 2.59-3-1c-1.2-3.56-1.2-3.56-2-7h-3l.44 1.69.56 2.3.69 2.33c.42 3.58-.56 6.29-1.7 9.68h-2v-10l-6-2c-.48-2.47-.48-2.47-1-5-1.7 1.64-2.92 2.87-4 5h-3l-2 7h-2l-2 6h-2c-.36-4.36.68-6.36 3-10l1.26-3.06c4.25-10.08 10.64-18.76 17.42-27.25q2-2.55 3.96-5.13c6.22-8.14 12.95-15.64 19.99-23.07 1.74-1.87 3.4-3.8 5.07-5.74a180 180 0 0 1 19.33-19.04c2.14-1.84 4.2-3.74 6.29-5.65 4.97-4.41 10.26-8.25 15.69-12.06l3.1-2.18c30.7-21.5 30.7-21.5 42.9-24.82a218 218 0 0 0 8.37-4.55 92 92 0 0 1 9.63-4.45l4.19-1.87c8.48-3.77 16.96-7.34 25.8-10.13a19 19 0 0 1 7.2-1.06"/><path fill="#fff" d="m2079.19 1769.95 4.24.1 2.26.06 4.75.14q3.63.1 7.26.17l4.6.13 2.2.05c3.68.12 5.36.3 8.5 2.4.27 2.65.33 5.05.25 7.69l-.03 2.44a652 652 0 0 1-.22 8.87l-.1 3.89-.33 12.6-.06 2.12-.2 5.99-.1 3.52c-.21 2.88-.21 2.88-1.21 5.88-4.1.7-7.02 1.02-11 0q-3.03-.2-6.08-.31l-3.51-.13-3.66-.12-3.7-.13-9.05-.31-.05-16.8-.02-5.7c-.11-23.27-.11-23.27 1.07-31.5 1-1 1-1 4.19-1.05"/><path fill="#ffa519" d="m3302.06 2527.25 1.94.75c4.94 14.84-6.45 42.97-12.56 56.17-1.44 1.83-1.44 1.83-3.53 2.79-4.4.06-8.03-1.49-12.1-3.09l-2.59-.98A145 145 0 0 1 3256 2575l-3.45-1.76-3.6-1.87-3.36-1.72C3243 2568 3243 2568 3242 2565c.47-1.95.47-1.95 2-4a84 84 0 0 1 7.37-3.81l4.37-2.11 2.2-1.05c7.27-3.62 14.13-7.99 20.84-12.57 2.4-1.58 4.86-3.02 7.34-4.46a62 62 0 0 0 10.5-7.8c1.93-1.68 2.86-2.26 5.44-1.95"/><path fill="#ffdead" d="M2123 1900c10.13 9.22 14.38 21.98 17 35l1.69.26c8.53 1.57 14.5 5.28 20.31 11.74l2.06 2.25c5.6 7.94 7.72 16.13 6.94 25.75-1.81 8.76-6.23 15.55-13.66 20.56-11.16 6.88-22.88 5.94-35.53 5.75l-6.63-.05q-7.19-.06-14.36-.17-9.24-.11-18.48-.15-8.74-.05-17.47-.13-5.34-.06-10.67-.08-6.01-.04-12.02-.12h-3.59c-9.85-.18-19.3-2.59-26.59-9.61-6.02-7.28-9.6-15.29-9.22-24.81 1.36-13.43 8.95-23.57 18.78-32.33 6.47-4.93 10.65-6.26 18.63-6.55 5.82-.24 5.82-.24 10.62-3.04.93-2.21.93-2.21 1.51-4.64 2.72-10.46 11.73-19.05 20.71-24.45 17.39-9.08 34.04-6.84 49.97 4.82m-59 4.96c-6.44 6.56-10.21 14.36-13 23.04l-2.89.04c-14.69.54-23.87 5.05-34.11 15.96-5.89 7.11-9.88 17.43-9.39 26.71 1.54 9.09 5 15.93 12.33 21.54a35.6 35.6 0 0 0 17.11 4.94l2.39.05 2.58.04 2.72.06 8.64.16 11.21.22 2.86.06q9.72.23 19.43.73c10.86.53 21.7.78 32.57.84q3.14.03 6.27.08c20.35.44 20.35.44 37.84-9.12 6.22-7.03 8.07-14.3 7.69-23.56-.79-8.72-4.98-16.91-11.25-23.06-4.91-3.89-13.69-7.69-20-7.69l-.3-2.53c-1.73-13.07-6.36-24.41-16.75-33.2a50 50 0 0 0-5.95-3.27l-1.94-1.14c-16.65-8.96-35.11-2.92-48.06 9.1"/><path fill="#de7b19" d="M2646 1221a33 33 0 0 1 3 3 60 60 0 0 1-8-1.97c-14.82-4.7-31.63-5.61-46 .97-4.65 2.12-4.65 2.12-8 1 18.56-10.6 39.38-10.56 59-3m3 3c3.22.63 5.51 1.78 8.25 3.56l2.14 1.38 1.61 1.06c-3.44 0-4.75-.8-7.69-2.5l-2.45-1.41-1.86-1.09zm-64 1 2 1-4 2zm-4 3 2 1Zm-3 2 2 1h-3zm83 1 2 1Zm2 1c3.22 1.41 5.32 3.1 7.75 5.62l1.86 1.92 1.39 1.46-1 2a1165 1165 0 0 1-7.81-7.71C2663 1233 2663 1233 2663 1232m-91 3 2 1-7 6c1.62-3.23 2.48-4.71 5-7m-6 7v3l-2 1zm109 2 2 1-1 2zm-112 2v3l-2 1zm114 1 3 2-1 2zm-117 3 1 2a83 83 0 0 1-2.69 5.12c-8.86 17.21-9.43 37.41-10.75 56.38l-.38 5.28a5303 5303 0 0 0-3.18 48.8l-.18 2.91-.33 5.37q-.45 7.11-1.27 14.19c-1.53 13.8-.6 27.85 4.98 40.7.8 2.25.8 2.25-.2 5.25-9.72-21.67-8.55-40.27-6.14-63.46.77-7.41 1.39-14.78 1.64-22.23.39-11.41 1.4-22.76 2.4-34.13l.38-4.42.19-2.19q.56-6.65.88-13.31c.36-7.14 1.02-14 2.77-20.95l.65-2.65c1.91-7.35 4.72-17.15 10.23-22.66m120 1c9.38 10.05 12.14 27.73 11.98 41-.35 8.73-1.38 17.41-2.36 26.09-.62 5.62-.95 11.2-1.12 16.85-.38 10.92-1.37 21.77-2.34 32.65a904 904 0 0 0-1.93 25.44c-1.7 27.63-1.7 27.63-7.23 37.97-1.25-3.76-.47-4.41 1-8 .57-2.71 1.07-5.38 1.5-8.12l.38-2.49c1.73-11.75 2.39-23.61 3.18-35.45l.49-7.03.72-10.49q1.54-22.14 3.36-44.26l.26-3.15.5-6.07c.77-9.74 1.08-19.22-.58-28.88l-.39-2.33a63 63 0 0 0-5.33-16.25 29 29 0 0 1-2.09-7.48m-5 180 1 3-3 3zm-127 5c2.82 2.61 4.95 5.57 7.19 8.69l2.17 3.01 1.64 2.3-1 2-3.88-4.81-2.17-2.71c-3.95-5.03-3.95-5.03-3.95-8.48m124 1 1 3c-1.14 2.23-1.14 2.23-2.81 4.62l-1.65 2.42C2667 1449 2667 1449 2665 1450a192 192 0 0 1 5.98-11.17zm-8 13c0 3 0 3-1.75 5.04l-2.25 2.15-2.25 2.17-1.75 1.64-2-1zm-100 7a46 46 0 0 1 8.5 5.31c14.6 10.19 33 13.48 50.5 10.69a76 76 0 0 0 19.02-6.08 62 62 0 0 1 7.98-2.92c-7.14 7.93-19.77 11.06-30 12-19.2.98-36.35-2.15-52-14a88 88 0 0 1-4-5m88 4 2 1-4 2zm-765-299 3.71.43 3.23.45 3.27.42c2.91.73 3.97 1.38 5.79 3.7l-3.52-.66c-13.93-2.52-29.67-4.84-43.2.79-2.28.87-2.28.87-5.28-.13 5.15-3 9.95-3.92 15.75-4.75l2.55-.42c6.1-.9 11.61-.68 17.7.17m16 5 3 1Zm-55 1 3 1c-2.31 1.56-2.31 1.56-5 3l-3-1c2.31-1.56 2.31-1.56 5-3m58 0c2.44.38 2.44.38 5 1l1 2-6-2zm6 3c2.38.31 2.38.31 5 1l2 3c-2.92-1.07-4.78-1.78-7-4m-71 1 2 1h-3zm-3 2 2 1h-3zm81 1 5 2-1 2zm-85 2 2 1-1.54 1.29c-4.63 3.94-8.62 8-12.46 12.71 0-4.6 2.9-6.81 6-10 1.95-1.76 3.94-3.38 6-5m90 2c3.82 1.56 6.19 4.04 9 7l-1 2-4-3.94-2.25-2.21C1924 1180 1924 1180 1924 1179m11 11 4 4-1 2c-3-3.75-3-3.75-3-6m-115 2v3Zm-2 3c0 3.38-.76 4.81-2.25 7.81-6.05 13.08-7.66 25.89-8.75 40.07l-.48 5.92a3351 3351 0 0 0-3.63 51.14l-.41 6.07a712 712 0 0 0-1.73 43.34l-.04 3.74c.02 12.82 3.41 22.6 9.29 33.91l-1 2c-12.8-20.47-11.26-41.51-10.26-64.65l.37-9.05c.41-9.74 1-19.39 2.17-29.08a335 335 0 0 0 1.66-20.53c3.42-53.19 3.42-53.19 15.06-70.69m123 5c9 7.76 10.14 23 11.21 34.18.47 8.03-.38 16.02-1.14 24.01a1010 1010 0 0 0-2.33 30.13l-.56 8.53q-.93 13.72-1.72 27.46-.35 6.07-.73 12.15l-.32 5.75c-1.5 28.23-1.5 28.23-7.04 34.69l-1.37 1.1.81-3.69.55-2.55q.61-2.64 1.36-5.24c3.16-11.61 3.26-23.57 3.84-35.52l.69-13.25.18-3.28q.66-11.6 1.85-23.16c5.45-44.98 5.45-44.98-4.28-88.31zm-6 181 1 3-4 4a16.6 16.6 0 0 1 3-7m-125 8 4 4-1 2c-3-3.75-3-3.75-3-6m120 1v3l-2 1zm-3 4v3l-2 1zm-113 1 17 17c-6.95-3.16-12.49-8.94-17-15zm109 4c0 3 0 3-1.5 4.69l-1.5 1.31-2-1zm-7 6 2 1-3 3-2-1zm-5 4 2 1-4 2zm-80 3a97 97 0 0 1 11.38 4.44c9.74 4.1 21.03 6.52 31.62 5.56l3.35-.25c9.83-.98 17.66-3.76 26.65-7.75l5-2c-7.46 8.42-20.21 11.24-31 12-14.94.87-29.62-.69-43-8-2.34-2.16-2.34-2.16-4-4m242 410 1 4-2.61.52c-14.2 2.77-14.2 2.77-27.51 8.17-2.88 1.31-2.88 1.31-5.26 1l-1.62-.69a129 129 0 0 1 32.26-10.29l2.74-.71zm38 1 1.44 1.88c2.89 2.39 5.14 2.76 8.77 3.42 5.83 1.47 11.32 4.22 16.79 6.7-4.07 1.36-6.45-.19-10.19-1.81-5.22-2.19-10.24-4.05-15.81-5.19zm-77 13 3 1c-2.31 1.56-2.31 1.56-5 3l-3-1c2.31-1.56 2.31-1.56 5-3m104 0c3.69.5 5.6 1.1 8 4-3.36-.6-5.38-1.85-8-4m-111 4 2 1Zm119 0c3.15.61 5.19 1.64 7.75 3.56l1.86 1.38 1.39 1.06c-3.39 0-4.4-.64-7.19-2.44l-2.17-1.37-1.64-1.19zm-121 1 2 1h-3zm-3 2 2 1Zm-2 1 2 1-3 3-2-1zm137 3 3 1h-3zm-142 1 2 1h-3zm145 1c3.8 1.49 5.61 3.76 8 7-3.8-1.49-5.61-3.76-8-7m-149 2 2 1h-3zm-3 2 2 1-2 1zm-2 2 2 1h-3zm162 1c3.45 1.48 5.65 3.44 8.25 6.12l2.14 2.2 1.61 1.68-1 2-7.09-7a294 294 0 0 1-3.91-4zm-164 1v3h-3zm-4 4c0 3 0 3-1.53 4.82l-1.97 1.87-1.97 1.88-1.53 1.43c0-3 0-3 1.53-4.82l1.97-1.87 1.97-1.88zm180 7 4 3-1 2c-1.5-1.38-1.5-1.38-3-3zm-189 3v3l-2 1zm193 2 3 2-1 2zm-197 4v3Zm200 0 3 3-1 2zm3 5 2 1-1 2zm-207 1c0 3.52-.82 4.37-3 7 .75-4.75.75-4.75 3-7m209 2c3.93 4.32 5.9 8.89 8 14.25l1.05 2.66c12.09 31.41 10.32 66.15-2.94 96.94-1.11 2.15-1.11 2.15-3.11 4.15a51 51 0 0 1 2.81-9.88A146 146 0 0 0 2207 1950l.2-3.21c.63-18.71-5.48-38.29-13.45-55.09a24 24 0 0 1-1.75-6.7m-213 5c1.19 3.56.77 4.2-.75 7.5l-1.05 2.34a18 18 0 0 1-4.2 5.16c2.89-10.56 2.89-10.56 6-15m-7 15 1 4Zm-1 4c.93 2.5 1.15 3.63.12 6.14-1.39 3.55-2.04 7.12-2.68 10.86l-.38 2.06a108 108 0 0 0-.44 34.82l.28 1.99c1.37 9.88 3.23 18.93 7.1 28.13l1.17 2.96q1 2.51 2.03 4.99c.78 2 1.33 3.96 1.8 6.05-13.31-14.26-16.81-44.62-16.23-63.26.95-11.48 2.63-24.12 7.23-34.74m223 94 1 2c-1 1.95-1 1.95-2.44 4.12l-1.43 2.2-1.13 1.68c0-4.25 1.82-6.39 4-10m-214 4 3 3-1 2-2-2zm208 6 1 2-5 5a56 56 0 0 1 4-7m-201 5 4 4-1 2c-3-3.75-3-3.75-3-6m196 2v3l-3 2c1.88-3.88 1.88-3.88 3-5m-4 5c0 3 0 3-1.53 4.82l-1.97 1.87-1.97 1.88-1.53 1.43c0-3 0-3 1.53-4.82l1.97-1.87 1.97-1.88zm-11 11 2 1-2 1zm-163 3 3 1h-3zm159 1 2 1q-1.86 1.73-3.75 3.44l-2.11 1.93a12 12 0 0 1-6.14 2.63 94 94 0 0 1 10-9m-154 3a54 54 0 0 1 9.81 4.86c13.11 8.05 24.88 14.68 40.37 16.68 2.82.46 2.82.46 6 1.46a47 47 0 0 0 11.72 1.41l2.19.06q3.43.09 6.85.15l4.67.12 11.39.26v1c-33 .95-33 .95-46.94-2.19l-2.64-.59c-10.55-2.67-19.98-7.89-29.36-13.28l-2.78-1.57-2.68-1.53-2.39-1.36a35 35 0 0 1-6.21-5.48m142 6 2 1q-1.93 1.3-3.88 2.56l-2.17 1.44-1.95 1-2-1q1.93-1.3 3.88-2.56l2.17-1.44zm-8 7q-1.86 1.05-3.75 2.06l-2.11 1.16c-2.5.91-3.67.66-6.14-.22q2.15-1.05 4.31-2.06l2.43-1.16c2.26-.78 2.26-.78 5.26.22m-12 5c-9.16 3.62-19.02 7.37-29 7 3.74-2.18 7.77-3.03 11.94-4 5.5-1.27 5.5-1.27 10.81-3.19 2.56-.92 3.74-.74 6.25.19m697 134v6l-3 1-1 8-3 1-.15 2.15-.23 2.79-.21 2.77-.41 2.29-2 1c-.84 6.21-.84 6.21 1.34 11.78 1.82 1.53 1.82 1.53 4.66 3.22l-1 4h-3l1 3c.13 2.67.04 5.32 0 8h-3l-2-4c-.17 2.92-.17 2.92 0 6l2 2c.46 2.18.46 2.18.81 4.88.9 5.6 2.82 10.29 5.26 15.39 1.04 3.07.85 4.67-.07 7.73l-2-1-.44-3.25c-.57-3.82-1.42-5.62-3.56-8.75l-1.62-2.75c-1.19-2.14-1.19-2.14-2.38-3.25-.14-2.67-.04-5.32 0-8l-5 4-3-6-1 11-3 1-.08 2.2-.17 2.92-.14 2.89c-.61 2.99-.61 2.99-2.59 5.78-2.63 4.18-2.83 7.67-3.14 12.52-.22 2.92-.51 5.78-.88 8.69l-2 1c-1.19-14.73 2.51-29.27 6.11-43.46a96 96 0 0 0 1.7-8.23c1.27-6.41 3.76-12.26 6.19-18.31l1.71-4.52c5.4-14.31 5.4-14.31 9.17-20.59 1.56-2.63 2.84-5.39 4.13-8.16 1.52-2.65 2.8-4.73 5.99-4.73"/><path fill="#ffa519" d="M3434 2265c4.43 6.64 4.42 15.75 5.3 23.55.35 2.97.75 5.61 1.7 8.45 1.62 13.27 1.15 26.8 1.13 40.14l.01 11.74-.01 7.59.01 3.49c-.06 22.43-.06 22.43-3.14 31.04h-1l-1-18-2-1-2 10h-2l.12 3.75c.12 3.37-.55 5.28-2.12 8.25-3.04-7.55-3.43-14.1-3.31-22.19l-.01-3.48c.03-5.61.39-10.02 2.32-15.33l.44-2.44c.75-3.43 2.12-6.36 3.56-9.56l2 1q1.05 3.49 2 7l1 1q.39 4.8.61 9.63c-.11 3.48-.11 3.48 1.39 6.37.94-8.97 1.19-17.87 1.19-26.88q0-3.37.03-6.74c.03-6.82-.14-13.29-1.72-19.95-1.03-4.99-1.17-10.11-1.5-15.18-.58-8.28-1.27-16.43-2.63-24.61a45 45 0 0 1-.37-7.64m3 126h1c.31 6.15.3 11.16-2.21 16.82-1.34 3.7-1.68 7.56-2.17 11.45-.67 2.93-1.65 4.48-3.62 6.73.44-6.72 1.56-13.17 2.94-19.75l.51-2.47A99 99 0 0 1 3437 2391"/><path fill="#de7b19" d="m3133.06 2017.69 3.03-.01c23.35 0 46.4 1.7 68.91 8.32q3.22.83 6.44 1.63l2.86.72q3.9.93 7.82 1.78c3.88.87 3.88.87 5.88 1.87v2q-2.6.09-5.19.13l-2.92.07a21 21 0 0 1-7.89-2.2v-2h-26v-3l-6 1 1 3-4 2c3.01 1.2 3.01 1.2 6.37.8 4.34.24 5.43 1.43 8.63 4.2 2.68.79 2.68.79 5 1v4c-6.5-.75-6.5-.75-8.93-1.98-2.34-1.15-4.39-1.54-6.95-1.95A33 33 0 0 1 3170 2035q.95-.33 1.94-.7c2.33-1.14 2.33-1.14 2.7-3.88l.36-2.42q-2.63-1.3-5.25-2.56l-2.96-1.44c-2.96-1.06-3.93-1.12-6.79 0l-3 1-1-1q-2.98-.32-5.98-.5l-3.87-.25-4.2-.25-2.15-.13c-15.92-.97-31.85-1.47-47.8-1.87 2.8-2.8 5.5-2.45 9.24-2.6l2.28-.11c9.84-.45 19.7-.58 29.54-.6M1314 1247l1.6.53c8.23 2.61 16.64 4.3 25.09 6.03l6.64 1.38 6 1.24c3.61.81 7.13 1.79 10.67 2.82 2.74.54 5.49.99 8.25 1.44 2.75.56 2.75.56 5.71 1.56 4.03 1.32 8.04 1.79 12.24 2.34 4.21.73 8.3 1.75 12.44 2.81 6.06 1.53 12.15 2.93 18.24 4.35l3.81.89q11.07 2.58 22.18 4.94a358 358 0 0 1 13.77 3.22c3.34.83 6.36 1.74 9.36 3.45-3 1.5-4.93.44-8.15-.37l-1.91-.48-4.13-1.03q-5.65-1.43-11.32-2.81l-2.38-.59c-8.1-1.98-16.22-3.8-24.36-5.6l-2.2-.48-11.53-2.54q-14.09-3.1-28.14-6.22l-2.92-.65a4397 4397 0 0 1-34.02-7.67l-2.93-.67-8.01-1.89-3.23-.75-3.27-.79-2.97-.7c-2.53-.76-2.53-.76-5.53-2.76zm156 38c3.63 1.45 5.12 3.22 7.19 6.5l1.54 2.41c3.25 5.36 2.96 10.94 2.27 17.09-1.36 2.93-2.77 4.6-5 7 0-3 0-3 1.5-6.19 2.18-5.01 2.48-9.28.52-14.36-2.2-4.57-4.61-8.66-8.02-12.45m-160 7c6.81.87 13.34 2 19.95 3.86a437 437 0 0 0 24.24 5.7l8.17 1.76 1.99.43c4.92 1.07 9.79 2.27 14.66 3.51 8.94 2.2 17.99 3.95 27.01 5.78a843 843 0 0 1 27.28 5.91l2.06.48q4.92 1.18 9.83 2.39c9.27 2.23 14.95 3.36 23.81-.82 1.32-.37 2.65-.73 4-1-3.27 3.5-5.74 5.76-10.61 6.27a90 90 0 0 1-20.9-2.54l-3.19-.71q-5-1.12-9.99-2.27l-6.63-1.49q-13.93-3.12-27.82-6.43a474 474 0 0 0-19.04-4.06c-7.07-1.43-14.1-3.08-21.13-4.71l-9.26-2.13-2.24-.51q-10.38-2.38-20.8-4.63A120 120 0 0 1 1311 1294zm164 26 1 2-2-1zm1448 1281c2.38-.12 2.38-.12 5 0l2 2c6.11 1.96 11.58 3.15 18 3v5l1.75-1.06c2.25-.94 2.25-.94 4.44-.75l1.81.81 1 3-3 1 1.94.81c2.06 1.19 2.06 1.19 3.06 4.19q2.98 1.05 6 2l1 2 3 1c3 1 3 1 4 3h11v4l3.44.88 3.56 1.12 1 2c1.78.77 1.78.77 3.94 1.38A185 185 0 0 1 3010 2640v2c-8.38.54-15.17-2.52-22.68-5.96-2.45-1.1-4.94-2.07-7.44-3.04-3-1.18-5.79-2.43-8.57-4.06-4.61-2.7-9.47-4.62-14.43-6.55-7.73-3.03-14.56-5.88-20.88-11.39l-4.69-3.56a80 80 0 0 1-9.31-8.44m80-1218v1c-5.47 1.06-10.92 1.39-16.47 1.72l-3.03.19-12.8.79-9.36.58-2.91.17-2.73.18-2.39.14c-2.35.19-2.35.19-4.76.73-2.72.53-5.33.75-8.1.92l-3.3.2-3.54.21-7.47.48q-5.86.39-11.73.73-5.68.35-11.36.73l-3.51.19c-8.42.59-15.46 2.32-22.54 7.04 1-2.56 1.64-3.78 4.02-5.23l2.36-.96 2.33-.98c4.57-1.66 8.73-2.05 13.6-2.29l4.42-.24 2.33-.12a736 736 0 0 0 38.96-2.88c15.57-1.57 31.17-3.12 46.79-4.05l2.12-.14c3.21-.16 6-.13 9.07.89m-127 16v3l-2 1zm-3 4c1.11 3.34.81 3.76 0 7q-.1 3.63-.06 7.25l.02 3.83.04 2.92c-3-4.5-3.35-7.66-3-13a77 77 0 0 1 3-8m0 21 2.19 2.25c7.02 6.87 11.1 7.92 20.76 7.84 11.58-.22 23.09-1.24 34.62-2.29 8.22-.73 16.44-1.28 24.68-1.8 9.27-.59 18.51-1.26 27.73-2.39 5.05-.6 9.95-.68 15.02-.61l-1 2c-4.49 1.33-9.23 1.29-13.88 1.5-4.19.19-8.31.38-12.47 1-6.07.83-12.17.9-18.29 1.11l-2.99.11-2.69.09c-2.7.15-2.7.15-5.44.66-4.14.68-8.26.98-12.44 1.28l-2.66.2-5.56.41-8.42.62-5.43.4-2.5.19c-18.6 1.32-18.6 1.32-25.23-3.57a40 40 0 0 1-6-7zm30.38 83.88 8.01 1.61 3.91.79q6.46 1.24 12.95 2.27 6.39 1.07 12.74 2.33l2.7.51a3057 3057 0 0 1 21.47 4.21q5.83 1.17 11.6 2.49a75 75 0 0 0 11.5 1.57l1.73.33 1 2c-7.95-.34-15.35-1.12-23.04-3.23-4.01-1.04-8.06-1.65-12.14-2.3-3.15-.52-6.24-1.22-9.36-1.93-2.64-.58-5.3-1.01-7.97-1.44a472 472 0 0 1-18.6-3.52c-25.77-6.95-25.77-6.95-50.34-1.66l-1.55 1.08c1.74-4.09 3.62-5.41 7.6-7.15 8.82-3.06 18.95.2 27.78 2.04m-36.39 5.11c0 2.98-.45 4.53-1.5 7.27-2.35 7-1.9 12.05 1.32 18.66 3.4 5.93 7.83 8.22 14.18 10.07 4.34.92 8.68 1.67 13.03 2.4q5.67.95 11.32 1.93l2.38.4a1612 1612 0 0 1 28.97 5.36l11.3 2.15 10.52 2c9.52 1.8 19.02 3.66 28.48 5.76-.97 1-.97 1-2 2-2.75-.23-2.75-.23-6.33-.93l-1.98-.38-6.54-1.3-4.6-.9-12.32-2.41q-6.3-1.26-12.62-2.48l-5.01-.98-2.5-.5q-3.71-.71-7.43-1.45-13.22-2.62-26.5-4.99-1.3-.21-2.66-.47c-4.66-.84-4.66-.84-9.32-1.62-9.17-1.54-15.5-2.87-21.42-10.45-3.3-5.89-6.12-11.26-4.77-18.14 3.4-8.38 3.4-8.38 6-11M3241 2038c10.76-.82 20.34 2.72 28.81 9.43 3.58 2.57 7.62 4.22 11.61 6.07 2.58 1.5 2.58 1.5 3.58 4.5-4.98.29-7.17.11-11-3q-3.5-1.04-7-2l-3-2a68 68 0 0 0-4.25-.88c-4.57-.92-7.83-2.62-11.75-5.12v-2l-2.94-.81-3.06-1.19zm44 20c4.65.58 8.22 2.6 12.19 4.94l1.9 1.09c2.57 1.49 4.8 2.86 6.91 4.97l3.06 1.12c4.29 1.76 7.24 4.63 10.6 7.76a100 100 0 0 0 7.15 5.81 36 36 0 0 1 8.19 8.31c-3.48-.65-6.09-1.98-9-4v-2l-2.12-.81c-8.75-3.62-8.75-3.62-11.88-7.19-2.4-2.62-4.92-4.21-8-6a104 104 0 0 1-6-4v-2l-2.88-.31c-3.12-.69-3.12-.69-5.12-3.69-2.55-1.2-2.55-1.2-5-2zm-301.56 430.19c2.7.86 4.4 1.98 6.56 3.8a26 26 0 0 1-8.44 2.95c-4.08.75-8.1 1.68-12.12 2.69a47 47 0 0 1-13.27 1.35c-3.23.03-6.25.74-9.4 1.43a129 129 0 0 1-28.81 2.8q-3.17-.03-6.35-.02c-10.31-.04-10.31-.04-12.61-1.2v-2l1.76-.17c3.44-.37 6.84-.74 10.24-1.38 2.6-.38 4.89-.47 7.5-.44 6.34.16 6.34.16 12.14-2.04 3.57-1.45 7.13-1.08 10.92-.96 10.39.26 10.39.26 20.44-2l2-3c3.15-.22 3.15-.22 6.94-.06 4.82.19 8.32-2.07 12.5-1.75"/><path fill="#ffdead" d="m2079.19 1769.95 4.24.1 2.26.06 4.75.14q3.63.1 7.26.17l4.6.13 2.2.05c3.68.12 5.36.3 8.5 2.4.27 2.65.33 5.05.25 7.69l-.03 2.44a652 652 0 0 1-.22 8.87l-.1 3.89-.33 12.6-.06 2.12-.2 5.99-.1 3.52c-.21 2.88-.21 2.88-1.21 5.88-4.1.7-7.02 1.02-11 0q-3.03-.2-6.08-.31l-3.51-.13-3.66-.12-3.7-.13-9.05-.31-.05-16.8-.02-5.7c-.11-23.27-.11-23.27 1.07-31.5 1-1 1-1 4.19-1.05m-2.2 3.05c-.76 11.9-1.1 23.77-1.11 35.69l-.02 3.93v6.93c-.13 2.4-.13 2.4 1.14 3.45 4.4.36 8.8.47 13.2.62q3.34.11 6.66.25l4.2.15 3.89.13c3.16.19 3.16.19 5.05-2.15 2.3-15.64 1.1-32.22 1-48-6.61-1.01-13.13-1.36-19.81-1.62l-3.47-.16-3.3-.13-3.01-.12c-2.42-.14-2.42-.14-4.41 1.03"/><path fill="#de7b19" d="M2113 1772c5.37-.09 10.48.23 15.8.97 8.65 1.11 17.24 1.37 25.95 1.49 31.84.46 31.84.46 46.1 3.06 3.17.48 6.19.64 9.4.69l3.72.08 1.98.04c13.83.3 27.54 1.18 41.31 2.38a551 551 0 0 0 40.23 1.91l2.06.04 5.48.07c2.87.26 4.54.78 6.97 2.27l-2 2-1.59-.98c-3.1-1.31-5.58-1.29-8.95-1.33l-4.07-.07-2.19-.03c-14.78-.2-29.47-.99-44.2-2.09-12.94-.96-25.85-1.86-38.83-2.12-6.19-.16-12.27-.68-18.42-1.34-11.58-1.23-23.18-1.68-34.81-2.1l-9.32-.36-5.72-.21a278 278 0 0 1-16.55-1.16 77 77 0 0 0-8.04-.27l-2.51.02-1.8.04z"/></svg>