<svg xmlns="http://www.w3.org/2000/svg" width="784" height="269" viewBox="0 0 784 269"><path fill="#313a4a" fill-rule="evenodd" d="m80 2.75 4.55-.06 4.33-.02 3.99-.03L96 3c2.35 3.52 2.27 5.04 2.32 9.22l.06 3.88.03 4.2.06 4.29.16 13.6.11 9.2L99 70l2.88-1.47 3.79-1.91 3.75-1.9c16.58-7.94 36.59-7.24 53.77-1.53 18.4 7.07 30.88 18.6 39.34 36.35 7.6 17.86 7.74 38.72.8 56.8C195.67 173.6 183.94 187 166 194c-22.99 7.52-47.83 7.51-70-3-15.39-8.1-26.23-21.04-31.92-37.44-4.53-14.95-3.35-31.2-3.31-46.65v-8.15l.02-17q.03-10.89.02-21.77a15678 15678 0 0 1 .05-36.03v-3.33c.02-5.6.11-11.1 1.14-16.63 5.04-2.52 12.47-1.23 18-1.25m76.04 94.13c8.71 6.23 13.37 13.76 15.96 24.12.96 12.78.02 24.13-8.19 34.44-8.36 8.6-17.84 11.58-29.62 11.93-11.32-.17-20.08-3.34-28.19-11.37-8.76-10.65-10.03-21.51-9-35 1.95-10.86 9.35-18.59 18-25 12.54-7.13 28.82-6.2 41.04.88"/><path fill="#ffa519" d="m268.78 58.84 2.62-.02 8.52-.02 5.96-.02 12.48-.02q7.96 0 15.93-.06l12.3-.02q2.94 0 5.87-.03c13.93-.09 25.17 0 36.1 9.6 6.48 7.3 8.56 12.86 8.6 22.4l.02 2.7.02 8.79.02 6.11.02 12.84q0 8.22.06 16.42l.02 12.65.03 6.05q.02 4.24 0 8.48l.02 4.88A31.8 31.8 0 0 1 368 190c-8.21 6.12-15.83 8.24-26.08 8.27l-2.67.02-8.7.01-6.1.01q-6.36.01-12.74 0-8.13 0-16.27.04-6.27.02-12.56.01l-6 .02c-25.97.11-25.97.11-35.66-9.06-10.15-10.67-9.82-22.49-9.75-36.41l-.01-5.88.02-12.26q.02-7.83-.02-15.65v-17.89c-.06-13.53.55-24.02 10.26-34.25 8.11-7.04 16.63-8.1 27.06-8.14"/><path fill="#313a4a" d="m581.5 60.69 4.36-.05h4.17l3.83-.01C597 61 597 61 600 64q1.55 3.86 2.86 7.82l.82 2.41 2.63 7.9 4.72 14.05q3.44 10.23 6.97 20.41l1.94 5.6 2.8 8.1 4.08 11.8A60 60 0 0 1 629 153h2l.67-3.5c1.63-7.32 4.18-14.35 6.58-21.44l3.24-9.6.85-2.52q2.78-8.26 5.45-16.56l3.74-11.5 1.8-5.6q1.25-3.94 2.54-7.87l1.47-4.56c1.76-4.08 3.08-6.24 6.66-8.85 3.38-.6 3.38-.6 7.2-.56l4.16.02 4.33.1 4.36.02c10.66.13 10.66.13 12.95 2.42.67 5.43-1.12 9.57-3.11 14.57l-1 2.53-3.2 8.03-2.04 5.13-4.28 10.8a6983 6983 0 0 0-17.53 44.58l-8.29 21.24c-4.82 12.36-9.7 24.68-14.98 36.86l-1.2 2.8c-6.24 14.2-13.13 28.01-27.37 35.46-8.47 3.2-15.93 4.18-24.94 4.19l-2.63.03c-5.16.02-9.57-.48-14.43-2.22-1.8-1.8-1.13-4.54-1.13-6.97v-18.46C571 219 571 219 572 218q3.98.01 7.94.13c8.72.02 15.45 0 22.31-5.94 3.95-5.38 7.36-11.67 8.75-18.19a66 66 0 0 0-3-10l-1.22-3.25q-2.25-5.92-4.6-11.81l-3.74-9.58-1.03-2.63c-5.43-13.88-10.77-27.78-16.13-41.69l-5.4-14.02q-3.22-8.37-6.55-16.69l-1.28-3.2-2.4-5.92C563.9 70.8 563 67.8 563 63c5.36-3.58 12.21-2.33 18.5-2.31m-163.63-.15 2.52.01q3.8 0 7.6-.05h9.3c3.71.5 3.71.5 6.04 2.27 1.58 2.1 3.1 4.19 4.52 6.4l1.57 2.43 1.64 2.59 3.46 5.38 1.75 2.74q2.5 3.87 5.03 7.72l1.54 2.35 4.21 6.4C469 102 469 102 469 104a42 42 0 0 0 7.07-8.64l1.7-2.72 1.8-2.89c4.45-7.1 8.95-14.15 13.68-21.06l2.64-3.87C498 62 498 62 500 61c5.8-.25 11.62-.18 17.44-.19l4.95-.03 4.73-.01 4.36-.01C535 61 535 61 538 63c-.55 4.06-1.72 6.38-4.25 9.59l-2.02 2.6-2.17 2.75-4.42 5.7-2.17 2.8a384 384 0 0 0-9.4 12.95 542 542 0 0 1-6.15 8.44l-1.9 2.56-3.7 4.95c-3.28 4.4-6.2 8.82-8.82 13.66l2.39 3.3 1.57 2.19 3.5 4.84q4.45 6.15 8.88 12.31 7.9 11.02 16.04 21.86l2.94 3.93q2.49 3.32 5.02 6.61l1.97 2.65 1.68 2.2c1.33 2.77 1 4.24.01 7.11-5.23 2.62-13.07 1.28-18.81 1.31l-4.76.09-4.57.03-4.2.04c-4.3-.55-5.69-1.36-8.66-4.47a141 141 0 0 1-4.94-7.18l-1.36-2.1q-2.15-3.3-4.26-6.6l-2.87-4.41-5.27-8.15q-3.1-4.8-6.3-9.56c-4.13 1.38-4.8 3.45-7.06 7.13a806 806 0 0 1-17.02 25.97l-1.86 2.71-1.59 2.34C442 195 442 195 439 197c-3.41.26-3.41.26-7.62.27h-4.58l-4.8-.02-4.8.02h-4.57l-4.22-.01C405 197 405 197 402 195c.39-5.35 3.58-8.99 6.69-13.12l1.75-2.38q2.76-3.75 5.56-7.5l8.96-12.15q6.52-8.84 12.84-17.82a167 167 0 0 1 6.39-8.15L447 130c-1.21-4.85-3.7-8.06-6.62-12l-1.75-2.4c-5.55-7.55-11.2-15.04-16.83-22.54L418 88l-2-2.65-7.6-10.17c-2.67-3.59-5.06-6.89-6.4-11.18 4.65-4.65 9.52-3.43 15.87-3.46"/><path fill="#fff" d="M290 89c4.17 1.96 8.14 4.25 12.13 6.56l3.4 1.94A604 604 0 0 1 328 111l4.26 2.6 4.43 2.71 4.07 2.5C344 121 344 121 346 124c.67 6.88.67 6.88-1.43 10.4-3.6 3.64-7.7 5.9-12.13 8.41l-5.9 3.42-3.18 1.83q-9.05 5.26-18.05 10.63l-3.56 2.1-3.32 1.97-2.96 1.75A143 143 0 0 0 290 168c-4.57.52-7 .77-10.72-2.1-2.8-3.57-2.9-5.33-2.91-9.83l-.04-4.2.04-4.53v-4.66q0-4.87.03-9.75.05-5 .02-10-.02-7.2.01-14.4l-.01-4.53.05-4.2.01-3.7c.62-3.68 1.62-4.83 4.52-7.1 3.32-1.66 5.38-.85 9 0"/></svg>