<svg xmlns="http://www.w3.org/2000/svg" width="2224" height="1768" viewBox="0 0 2224 1768"><path fill="#ffa519" d="M448.16 236.92q4.91-.05 9.84.08l2.66.05c6.87.38 12.32 2.72 18.34 5.95l2.2 1.14c9.7 5.69 16.96 15.44 24.25 23.83 3.63 4.16 7.42 8.16 11.23 12.16a416 416 0 0 1 16.15 17.97c3.87 4.59 7.88 9.03 11.94 13.46q2.88 3.15 5.66 6.38A455 455 0 0 0 559.5 328q5.44 5.9 10.7 11.95 3.35 3.77 6.8 7.49c2.92 3.2 5.71 6.4 8.31 9.87 4.15 5.49 8.92 10.4 13.62 15.42 3.45 3.68 6.78 7.45 10.07 11.27l6.37 7.38 1.72 1.98A935 935 0 0 0 631 409q8.55 9.45 17 19c-1 3-1 3-3.23 4.19q-1.47.6-2.96 1.25c-16.67 8.05-30.05 23.43-36.8 40.56-5.93 17.48-6.3 35.22-6.06 53.46l.06 6.18q.08 8.17.2 16.36l.11 10.17c.32 28.75.87 57.47 2.01 86.2q.92 22.57.68 45.14l-.02 2.1-.08 5.48c0 3.13 0 3.13 1.1 6.9h503c7.48-13.27 7.48-13.27 14.17-26.86 2.88-6.2 5.83-12.15 9.48-17.93a90 90 0 0 0 3.96-7.45c18.85-38.1 18.85-38.1 35.38-44.75 6.86-2.13 13.24-2.3 20.4-2.27l3.76-.02 10.26-.01 11.1-.03 19.23-.03 27.9-.06 45.41-.1 2.74-.01h2.75l38.38-.08h2.72l45.16-.11 27.77-.05 19.11-.04 10.96-.02a1518 1518 0 0 0 52.58-.86l3.31-.11c2.4.07 2.4.07 3.46-1.2 1.94-14.48 1.1-29.42 1-44h2c2.1 5.18 2.26 9.63 2.2 15.12 0 .86 0 1.7-.02 2.6q0 4.08-.06 8.16l-.03 5.55q-.03 6.8-.09 13.57 3.79.03 7.57.03l2.14.02c4.4 0 8.72-.17 13.1-.55 7-.51 13.98-.61 21-.62l3.06-.02c6.57.02 13.11.22 19.68.5 13.72.6 27.4.73 41.13.63l11.13-.06q15.78-.07 31.58-.17 9.74-.07 19.48-.1l7.35-.05q5.14-.04 10.27-.05l3-.04c12.21.05 22.48 4.3 31.51 12.48 5.28 5.74 8.15 13.36 11.4 20.36 4.2 9.06 8.9 17.84 13.6 26.64l4.62 8.69 1.11 2.09a930 930 0 0 1 12.93 25.62c1.1 2.47 1.1 2.47 2.34 3.6q2.34.14 4.7.13h108.88a234 234 0 0 0 19.63-.9c12.5-1.03 24.93.09 37.34 1.52q2.48.25 4.97.37l2.42.14 2.15.07c1.91.67 1.91.67 3.5 2.56 2.04 4.5 1.82 8.62 1.8 13.52l.01 3.22v10.78l.01 7.77q.02 8.46.02 16.93l.02 25.18q.04 21.18.05 42.36l.03 41.94.01 2.64.01 13.24q.07 46.9.1 93.79l.08 91.13.01 2.84.03 28.2.07 57.46v2.66q.1 88.23.16 176.45c-4.14 2.28-8.09 2.5-12.73 2.85a536 536 0 0 0-29.74 3.46l-12.76 1.77-19.05 2.63-2.09.29q-14.77 2.05-29.57 3.97l-5.84.76c-6.13.79-12.26 1.5-18.42 2.02-8.23.7-14.64 2.02-20.6 8.08-4.9 5.92-6.5 11.56-6.14 19.17.91 6.75 3.91 11.78 9.25 16 10.65 5.65 27.73 1.44 39.22.03l8.3-1a660 660 0 0 0 28.02-3.88c9.47-1.54 18.96-2.87 28.46-4.21q4.07-.59 8.15-1.16l5.25-.74a866 866 0 0 0 15.02-2.22l3.05-.48c2.7-.28 5.22-.37 7.92-.36h2.44l1.86.02v3.94q-.05 18.3-.06 36.64l-.02 18.84-.02 18.17v6.94q-.03 4.85-.02 9.7v7.9c0 1.96 0 1.96 1.12 3.87-9.06.4-17.88-1.08-26.82-2.37l-4.77-.67a566 566 0 0 1-19.26-2.97c-8.87-1.51-17.84-2.38-26.78-3.36l-11.77-1.32-2.97-.33q-9.4-1.05-18.8-2.2l-2.37-.28-8.84-1.07c-14.05-2.41-14.05-2.41-26.86 2.07-4.1 3.5-6.47 7.72-7.04 13.07-.25 7.32.45 13.64 5.28 19.43 6.6 5.76 14.14 6.24 22.54 7.06l4.3.48q4.53.5 9.08.97 7.1.73 14.2 1.53l4.71.52 2.35.26 7 .77q17.07 1.83 34.07 4.16l10.56 1.44q7.82 1.04 15.65 1.93l2.35.28a2071 2071 0 0 0 14.91 1.7l3.4.39c2.68.48 4.54 1.14 6.88 2.5l-2 2c-.2 2.5-.27 4.9-.25 7.4v2.34l.01 7.79v17.61q0 9.53-.03 19.05-.05 27.1-.04 54.2.02 14.96-.04 29.9a3969 3969 0 0 0 .01 18.9 1555 1555 0 0 1-.03 11.84l.01 5.44c.14 20.25-5.74 35.85-19.04 51.48-1.79 2.07-1.79 2.07-2.6 5.06l-154.82.08h-3.06q-162.24.09-324.5.13h-7.2l-151.24.05-75.96.02h-11.46q-88.27 0-176.53.07h-3.83l-61.23.03-176.29.08H723.7l-31.99.02h-3.54q-56.46 0-112.94.05-56.85.05-113.7.04h-18.8q-24.42 0-48.83.03-23.97.04-47.95 0-14.07 0-28.15.03-9.33.03-18.66 0h-10.6q-5.67.02-11.35-.01l-3.35.04c-2.7-.03-5.2-.1-7.84-.66-2.07-2.36-2.07-2.36-3-5a523 523 0 0 0-4.44-5.81c-3.44-4.53-6.42-8.91-8.56-14.2l-1.09-2.64c-3.15-8.13-4.07-15.67-4.02-24.35v-2.32l.02-7.61.01-5.5.03-11.77.04-18.62q.03-26.46.1-52.92.04-14.64.05-29.26l.05-18.52.01-11.5.02-5.34.01-7.27.02-2.15c-.02-3.64-.17-5.1-2.25-8.22 5.42-2.12 10.74-2.7 16.48-3.3l6.4-.7 3.4-.37c18.76-2.04 37.46-4.34 56.14-7.13a753 753 0 0 1 43.41-5.12c14.9-1.37 14.9-1.37 27.17-9.38 4.05-4.9 4.26-11.01 3.85-17.14-1.05-5.84-4.5-9.95-8.85-13.86-13.23-8.43-44.58.4-58.99 2.47a710 710 0 0 1-25.14 3.09c-8.3.89-16.54 1.94-24.78 3.3a550 550 0 0 1-19.78 2.83l-3.05.4c-5.47.68-10.75 1.05-16.26.9l1-2q.14-2.08.15-4.18l.05-5.58.03-3.08.08-10.1.07-6.98.15-18.42.16-18.78.31-36.87c9.9.54 19.63 1.5 29.45 2.93l4.02.57q4.23.59 8.44 1.2 10.94 1.56 21.87 3.08l2.16.3a1335 1335 0 0 0 42.32 5.17 383 383 0 0 1 17.51 2.33c7.7 1 15.67 1.89 22.58-2.25 4.96-4 7.6-9.07 8.65-15.33 0-5.88-.68-11.01-4-16-2.4-2.15-2.4-2.15-5-4l-2-2.12c-4.02-3.77-8.68-4.25-14-4.88q-7.16-.85-14.25-2c-4.9-.77-9.8-1.33-14.74-1.81-14.72-1.51-29.39-3.5-44.06-5.4q-6.1-.77-12.19-1.56l-4-.51a930 930 0 0 0-21.7-2.57l-3.8-.4q-3.56-.37-7.12-.71l-3.17-.33-2.78-.27C247 1340 247 1340 245 1338c-.25-1.86-.25-1.86-.25-4.17l-.02-2.67.02-2.95v-3.14q-.02-5.27 0-10.52v-90.04l.02-41v-12.9l.02-97.1q.03-43.12.02-86.23v-24.81l.01-72.05v-12.9l.01-35.85.01-46.23.01-24.44.01-18.26v-7.38c-.02-33.58-.02-33.58 3-38.22C250 705 250 705 253 705c3.3-1.1 3.83-1.78 5.87-4.44 2.5-3.01 4.3-4.45 8.13-5.56l2-1.2c2.64-1.06 4.3-.55 7 .2v3l-5.18 2.15c-2.09.92-2.09.92-4.82 2.85 16.13 2.05 32.1 2.28 48.34 2.24h28.73l23.74-.01 42.38-.02 41-.02h5.1l46.87-.02h16.5l20.13-.02h10.24c13.7 0 27.31-.08 40.97-1.15v-4q-1.09.3-2.19.63c-3.26.43-4.9-.21-7.8-1.63.55-1.87.55-1.87 2-4l3.42-.62c3.7-.96 3.7-.96 4.7-3.72A87 87 0 0 0 592 682c2.4 2.4 2.34 3.27 2.63 6.57l.25 2.72.24 2.84q.14 1.4.26 2.86.33 3.5.62 7h2l.05-21.71.02-10.1.02-11.64.02-3.6c0-5.06-.06-10.04-.59-15.07-.85-8.4-.88-16.85-1.05-25.3l-.06-2.86a5734 5734 0 0 1-.95-70.62l-.16-17.05L595 493l-2.86-.87c-3.66-1.31-5-2.73-7.46-5.7-2.99-3.5-6.02-6.83-9.3-10.05a171 171 0 0 1-9.44-10.15c-2.43-2.8-4.94-5.51-7.44-8.23a559 559 0 0 1-15.32-17.32l-3.12-3.68-1.56-1.84c-3.53-4.12-7.2-8-11.18-11.7C526 422 526 422 526 420l-1.88-.75C522 418 522 418 521.06 416c-1.48-2.78-3.15-2.9-6.06-4q-3.68-1.85-7.3-3.78c-6.19-2.8-11.83-3.58-18.52-3.53l-2.4.02c-12.06.25-20.6 4.44-29.53 12.48-14.47 15.5-16.1 44.75-20.4 64.85-3.06 14.26-6.13 28.5-9.92 42.59-2.93 10.93-5.12 21.95-7.28 33.06-3.17 16.1-6.65 32.03-11.33 47.77-1.5 5.03-2.68 10.1-3.78 15.24C404 623 404 623 403 625q-.72 4.47-1.3 8.96c-1.1 4.75-2.64 7.33-6.7 10.04q-2.92.75-5.86 1.45c-3.32.86-6.47 2.16-9.64 3.43a135 135 0 0 1-18.2 5.52c-12.7 3.05-24.93 7.73-36.67 13.38a46 46 0 0 1-11.98 3.63 46 46 0 0 0-8.17 2.8l-3.19 1.37L298 677l-3.17 1.36q-4.77 2.06-9.52 4.14l-3.22 1.4a137 137 0 0 0-16.36 8.3l-1.73.8-2-1a166 166 0 0 1 42-20.15 10.3 10.3 0 0 0 5-3.85c.72-2.6.72-2.6 1.06-5.44.74-5.18.74-5.18 1.93-7.48 1.41-2.92 1.62-5.74 2.01-8.95.56-4.66 1.5-8.7 3-13.13q.56-3.24 1-6.5a49 49 0 0 1 2-9.5c1.41-4.25 1.85-8.54 2.43-12.97.52-2.81 1.31-4.52 2.57-7.03q.59-3.17 1-6.37a64 64 0 0 1 3-12.63q.55-2.96 1-5.94c.7-4.5 1.75-8.7 3-13.06q.52-3.03 1-6.06a72 72 0 0 1 3-11.94q.79-4.53 1.43-9.1c.57-2.9.57-2.9 1.57-5.37 1.18-3 1.58-5.78 2-8.97a64 64 0 0 1 3-12.56c.56-3.02 1-6.05 1.43-9.1.57-2.9.57-2.9 1.57-5.4 1.13-2.84 1.56-5.47 2-8.5.43-3.01.85-5.64 2-8.46 1.58-4.03 1.88-8.21 2.43-12.48.52-2.83 1.3-4.53 2.57-7.06q.59-3.2 1-6.44c.41-3.21.78-6.03 2-9.03 1.25-3.16 1.6-6.15 2-9.53a43 43 0 0 1 3-12q.57-3 1-6c.57-4 1.5-7.27 3-11q.57-3 1-6c.57-4 1.5-7.27 3-11q.57-2.96 1-5.94c.45-3.15.98-6 2-9.03 1.4-4.23 1.85-8.5 2.43-12.91.57-3.12.57-3.12 1.57-5.61 1.6-4.01 1.88-8.2 2.43-12.45.57-3.06.57-3.06 1.57-5.03 1.43-2.91 1.61-5.75 2-8.97a44 44 0 0 1 3-12.06q.57-3.45 1-6.94c.43-3.52.88-6.71 2.01-10.08 1.08-3.27 1.45-6.3 1.8-9.73 1.96-14.64 11.55-27 22.67-36.34 10.13-7.37 19.28-10.67 31.68-11m231.26 988.44A67 67 0 0 0 671 1238l-1.2 2.23c-5.2 10.63-6.25 21.99-6.2 33.66q0 2-.03 4-.03 5.4 0 10.77l-.02 9.04v21.36q.01 10.95-.03 21.9-.03 9.48-.02 18.94 0 5.63-.02 11.25c-.1 25.58 1.72 45.86 19.52 65.85l1.9 2.15c12.12 12.92 29.6 20.67 47.21 21.26 22.52.29 40.12-7.08 56.57-22.53 11.76-12.18 19.4-29.5 19.46-46.53l.02-3.33.01-3.62.02-3.85.04-12.6.02-4.36.04-20.52q.01-11.78.07-23.55.06-9.15.05-18.3 0-5.42.04-10.87c.17-25.2-.97-49.32-19.38-68.4q-2.01-1.99-4.07-3.95-1.04-1.03-2.13-2.08c-13.95-12.94-31.26-17.47-49.94-17.17-22.13 1.4-38.64 10.45-53.5 26.6m745.58.64c-15.46 19.84-15.48 43.45-15.4 67.38v10.66q-.02 8.94 0 17.89.03 10.27 0 20.55a5275 5275 0 0 0 0 28.35c-.56 24.9-.56 24.9 6.96 48.3l1.04 1.98c8.66 16.02 21.62 29.38 39.2 35.25 19.3 5.63 38.72 5.98 57.2-2.36l3.28-1.46c16.36-8.47 27.64-23.74 33.4-40.92 2.7-8.57 3.05-16.68 3.02-25.6l.05-4.78q.06-6.23.05-12.47.02-6.22.08-12.43.1-13.08.11-26.18l.02-6.2c.03-14.54.04-29.08-.22-43.62l-.07-5.37c-.18-23.36-5.77-41.26-22.72-57.97-12.74-12.47-27.7-16.71-45-18l-2.98-.22c-23.49-.82-42.97 9.83-58.02 27.22m-400.5 192.92c-6 8.33-8.25 18.72-7.06 28.88 1.63 8.1 3.56 14.36 9.56 20.2q2.13 3.13 4.18 6.3c3.93 5.83 7.9 9.93 13.82 13.7l3.34 2.17c9.72 6.16 20.05 11.45 31.06 14.9 2.6.93 2.6.93 3.6 2.93h2c-1.25 15.95-7.1 27.98-19 39a89 89 0 0 1-4.83 2.08c-2.75 1.17-5.34 2.58-7.99 3.98-14.02 6.98-29.67 6.67-44.4 2.08A51 51 0 0 1 995 1548l-2.45-.88c-3.03-1.33-4.48-2.87-6.62-5.37l-2.1-2.44c-1.83-2.31-1.83-2.31-3.77-5.5-3.47-4.72-8.52-7.96-14.06-9.81-6.19-.62-10.8.75-16 4-5.42 4.64-8.78 9.95-10 17-.37 10.93 6.65 21.13 13.81 28.88a107 107 0 0 0 19.62 16.37c2.57 1.75 2.57 1.75 3.96 3.73 1.84 2.32 3.16 2.99 5.9 4.06l2.57 1 2.76 1.02 2.87 1.07c26.43 9.44 56.93 8.92 82.51-3.13 7.1-3.5 13.95-6.93 18.77-13.4 2.7-3.51 6.23-6.02 10.04-8.22 2.5-1.25 2.5-1.25 3.2-4.38 2.65-.33 2.65-.33 6 0a48 48 0 0 1 5.42 5.38A80.6 80.6 0 0 0 1148 1598l3.43 1.46c23.41 9.7 51.2 11.15 75 1.89 3.93-1.63 7.75-3.45 11.57-5.35l2.81-1.38a39 39 0 0 0 11.2-8.62q1.96-1.73 4-3.44a71 71 0 0 0 9-9.56l2.42-2.31c5.92-6.07 5.92-6.07 8.57-13.7h2c3.04-5.32 2.76-10.74 1.38-16.62-2.75-7.97-7.6-12.24-14.82-16.31-6.95-2.07-12.14-1.8-18.57 1.58-3.52 2.4-5.63 5.69-7.99 9.17l-3.16 4.33-1.5 2.06c-8.13 10.92-22.25 15.05-35.29 17.2a56.5 56.5 0 0 1-40.95-10.82l-4.1-3.58-2.5-.87c-4.89-2.2-7.7-6.61-10.13-11.25q-.72-1.94-1.37-3.88l-1.07-3.08c-3.76-11.46-3.76-11.46-2.93-16.92 2.43-3.32 5.62-4.07 9.43-5.31 12.18-4.2 22.42-9.53 31.57-18.7q2.7-2.44 5.43-4.86c10.78-9.8 18.18-20.28 19-35.38-.4-10.07-3.53-21.24-10.43-28.75a42 42 0 0 0-5.29-3.73c-1.7-1.27-1.7-1.27-3.58-3.74-2.4-2.86-4.19-3.8-7.63-5.15q-1.4-.59-2.85-1.17L1167 1400l-2.26-.76c-10.02-2.94-19.96-2.7-30.29-2.67l-5.97-.02h-12.44q-7.92.02-15.84-.03a1681 1681 0 0 0-12.3-.01l-5.83-.02c-22.3-.13-42.69 4.38-57.57 22.43"/><path fill="#ffdead" d="m678.85 425.87 3.49-.01h3.8l4.07-.01 11.15-.02 12.04-.02 29.07-.04 13.7-.02 45.58-.04h14.79q23.78-.02 47.55-.07 24.43-.05 48.87-.05a8354 8354 0 0 0 27.42-.04q11.68-.03 23.36-.02l11.9-.02c30.29-.14 30.29-.14 43.36 4.49l2.36.72c19.16 6.26 30.63 22.56 41.64 38.28l3.17 4.48 5.95 8.44c12.55 20.53 12.55 20.53 31.79 32.63 5.22.7 10.46.59 15.7.57h3.54l9.68-.01 10.46-.01 18.16-.02 26.46-.02 43.2-.04h2.6l23.47-.02 15.42-.02h2.55l66.77-.05q29.47-.05 58.9.06 3.34 0 6.65.03 13.28.05 26.57.2l8.25.06q5.66.03 11.33.12h3.33c8.33.16 15.53 1.89 22.73 6.2 2.5 1.52 4.03 1.84 6.93 2.02l2.67.18 2.84.15 2.93.19q4.63.3 9.27.55l6.29.39q7.7.48 15.39.92l-2.35 1.85a61 61 0 0 0-7.4 7.34l-2.36 2.67q-.92 1.06-1.9 2.14l-1 1c-.34 4.5.34 7.33 2.39 11.32 4.2 8.24 4.94 16.18 4.8 25.3l-.01 2.9c-.27 22.59-.27 22.59-3.17 25.48-2.57.32-2.57.32-5.86.4l-3.73.13-4.06.09-4.22.1a1587 1587 0 0 1-42.53.44l-11.18.02-19.24.02a15454 15454 0 0 0-40.93.08h-2.64l-29.56.06h-2.72l-43.85.07q-22.6.02-45.2.08-13.9.04-27.8.04-9.5 0-19 .04h-10.95q-5.94 0-11.88.04l-3.47-.01c-11.8.09-22.1 3.17-31.08 11.08-8.08 8.56-13.07 20.14-18.2 30.59-2.1 4.18-4.4 8.23-6.71 12.3a326 326 0 0 0-11.56 22.85c-8.82 18.78-8.82 18.78-12.63 22.58q-3.99.15-7.98.13h-2.57l-8.66-.01h-41.94l-32.11-.01-33.68-.01h-12.74l-75.3-.02-73.17-.02h-2.27l-22.64-.01h-48.26L603 707c-1.5-4.3-2.22-7.61-2.12-12.17q.01-1.89.05-3.84l.04-2.1c.26-16.27-.2-32.51-.77-48.8a3818 3818 0 0 1-1.91-86.93l-.12-9.41q-.11-7.5-.18-15l-.07-5.52c-.42-28.37 3.62-53.43 23.08-75.23a87 87 0 0 1 9-8l2.54-1.96c4.7-3.48 8.69-5.91 14.46-7.04v-2l1.57 1.07c5.38 2.07 10.97-.45 16.12-2.35 4.68-1.45 9.28-1.84 14.16-1.85"/><path fill="#ffa519" d="m1815 252 3 .46c18.04 3.33 30.81 14.76 41.25 29.28 5.78 9.1 7.19 20.04 8.32 30.54.44 3.83 1.12 7.53 1.93 11.3.58 2.8 1.04 5.6 1.5 8.42q1.12 6.75 2.5 13.43c.56 2.87 1.03 5.75 1.5 8.63q1.04 6.34 2.5 12.59c.59 2.79 1.05 5.59 1.5 8.41a99 99 0 0 0 2 9.94c1.14 4.28 1.8 8.62 2.5 12.99.59 3.53 1.29 7.04 2.01 10.55q.72 3.7 1.37 7.4c1.35 7.54 2.98 15.02 4.58 22.51l1.62 7.72.53 2.55.99 4.79q1.1 5.34 2.45 10.64c.85 3.44 1.46 6.79 1.95 10.29.55 3.72 1.14 7.39 2 11.06s1.45 7.34 2 11.06a106 106 0 0 0 2.5 12.35c.88 3.68 1.4 7.42 2 11.14a159 159 0 0 0 2 9.67 190 190 0 0 1 1.5 7.84c.56 3.17 1.18 6.27 2 9.38 1.13 4.32 1.79 8.7 2.5 13.11.55 3.26 1.25 6.45 2 9.66.57 2.63 1.04 5.27 1.5 7.91a83 83 0 0 0 2 8.82c1.18 4.21 1.82 8.41 2.5 12.72.47 2.96.47 2.96 1.5 6.22 1.29 4.69 1.84 9.39 2.44 14.22.46 3.37.46 3.37 1.56 6.34 1.18 3.61 1.61 7.17 2 10.94.69 6.24.69 6.24 2.06 12.37 1.08 4.33 1.36 8.48 1.6 12.92.35 2.93 1.21 5.11 2.34 7.83.49 2.56.87 5.12 1.24 7.7 1.5 4.57 6.17 6.15 10.2 8.3q5.36 2.85 10.56 6l-2 1a130 130 0 0 1-7.81-3.75l-2.16-1.09A154 154 0 0 1 1936 682l-1 2 1.94.88C1939 686 1939 686 1940 688l3 1c3 1 3 1 4 3q2.46 1.08 5 2v4c-12.2 2.92-22.02 4.66-34 0l-1-2 6-2c-.45-4.48-.45-4.48-3-8v-4l6-3a24 24 0 0 0-8.72-6.37l-2.79-1.23-2.99-1.28-3.1-1.33a184 184 0 0 0-22.25-7.67 141 141 0 0 1-17.83-6.51 111 111 0 0 0-13.71-4.94q-2.35-.72-4.72-1.37l-2.16-.65-1.89-.53c-4.05-2.47-5.62-6.29-6.78-10.73q-.33-2-.62-4l-.36-2.18-.72-4.59q-.93-5.98-1.93-11.96l-.38-2.34a299 299 0 0 0-4.44-21.77q-1.15-4.86-2.27-9.73c-3.6-15.63-3.6-15.63-7.46-31.2a527 527 0 0 1-8.72-42.2c-1.17-6.83-2.73-13.56-4.25-20.32a314 314 0 0 1-4.39-25.5c-1.89-13.02-7.09-26.12-17.52-34.6-11.17-8.16-22.21-8.97-35.56-7.25-15.35 2.61-25.62 14.09-36.19 24.81l-2.71 2.71a258 258 0 0 0-12.84 13.82c-3.7 4.17-7.76 8.01-11.74 11.91a207 207 0 0 0-11.26 12.04 341 341 0 0 1-8.51 9.34l-1.84 1.96c-4.3 4.59-8.71 9.05-13.19 13.47a157 157 0 0 0-7.32 8.13c-2.19 2.45-4.5 4.75-6.84 7.06-3.5 3.47-6.82 7-10.02 10.74-2.6 2.97-5.29 5.86-7.98 8.76-3.83 4.13-7.6 8.28-11.29 12.54q-3.13 3.56-6.33 7.08a217 217 0 0 0-7.32 8.44C1593 574 1593 574 1591 575a33 33 0 0 1-13.15-1.79l-3.51-1.16-3.72-1.24A288 288 0 0 0 1530 561l.19 3.81c.02 3.91.02 3.91-1.69 6.19l-1.5 1-1-4.75-.56-2.67C1525 562 1525 562 1525 558l-2.38-.94C1520 556 1520 556 1518 555l-1 7-2-4-1.29-2.59-1.33-2.79-1.36-2.77A16.6 16.6 0 0 1 1510 541c1.61-2.16 1.61-2.16 3.75-4.06 2.36-2.17 4.31-4.02 6.19-6.63 2.08-2.34 3.43-3.08 6.18-4.43 6.3-3.28 10.35-8.54 14.88-13.88a273 273 0 0 1 17.04-18c3.91-3.87 7.62-7.83 11.21-12 3.59-4.11 7.39-8.04 11.14-12q5.61-5.95 10.97-12.12 3.57-4.05 7.26-8l1.53-1.65 8.27-8.9a574 574 0 0 0 14.64-16.14c3.32-3.75 6.75-7.38 10.17-11.04q4.41-4.7 8.65-9.59c2.66-3.09 5.49-5.95 8.39-8.81 2.31-2.34 4.43-4.82 6.58-7.32 2.83-3.2 5.74-6.31 8.65-9.43 3.98-4.26 7.9-8.55 11.71-12.96 4.18-4.76 8.5-9.39 12.79-14.04l1.47-1.6 7.51-8.13 5.92-6.42q9.31-10.1 18.73-20.11 5.16-5.49 10.18-11.12c3.79-4.25 7.79-8.24 11.84-12.24 3.83-3.88 7.38-7.97 10.83-12.18 3.79-4.57 7.97-8.4 12.52-12.2l2.44-2.12c3.65-2.68 7.56-4.78 11.56-6.88l2.8-1.54a44 44 0 0 1 10.95-3.21l2.15-.39a42 42 0 0 1 16.1.14"/><path fill="#de7b19" d="M517.95 412.5A26 26 0 0 1 524 419q3.65 3.7 7.4 7.32c4.83 4.73 9.19 9.56 13.34 14.9 3.85 4.72 8.07 9.1 12.24 13.54a220 220 0 0 1 6.46 7.18A401 401 0 0 0 574 473.56l1.76 1.9c4 4.27 8.09 8.42 12.24 12.54l1.57 1.63c1.42 1.5 1.42 1.5 3.56 2.43C595 493 595 493 596 495q.18 4.22.19 8.43l.03 2.65.06 8.8.06 6.18.13 16.48a5778 5778 0 0 0 1.06 81.75c.17 8.41.39 16.74 1.26 25.11.43 5.37.33 10.76.3 16.14v3.8l-.02 9.84-.02 10.1L599 704h-4l-2-20-4 9c-4.2 1.94-4.2 1.94-8 3l-1 2 10 1 1 4c-13.63 3.83-29.54 2.15-43.55 2.14l-10.4.01-20.32.01-16.54.01-47.05.01h-5.11l-41 .03-42.22.02-23.65.01H321l-10.25.01c-16.03.03-31.82-.52-47.76-2.25 9-6 9-6 13-6v-3c-5.58.2-5.58.2-10 3l-1.94.41c-2.64.75-3.37 1.86-5 4.03-2.41 3-4.24 4.55-8.06 5.56-.71-1.74-.71-1.74-1-4 5.58-8.86 15.82-12.93 25-17l2.78-1.24q8.81-3.9 17.67-7.68l6.5-2.79c4.39-1.87 8.36-3.43 13.05-4.29 5.07-1.26 9.77-2.77 14.38-5.25 11.58-6.03 24.52-9.57 37.09-12.9a156 156 0 0 0 17.06-5.8 55 55 0 0 1 9.74-2.92c3.78-.78 3.78-.78 5.67-3.4a34 34 0 0 0 2.06-8.48 62 62 0 0 1 3.22-12.86c1.3-4.02 2.22-8.14 3.16-12.27a381 381 0 0 1 4.4-17.55c3.24-11.6 5.42-23.4 7.63-35.24 2.23-11.86 4.48-23.8 8.09-35.33 3.09-9.96 5.18-20.2 7.16-30.44a742 742 0 0 1 6.83-31.65l1-4.26c4.05-17.28 8.77-33.06 24.45-42.96 15.66-9.55 36.39-5.48 51 3.8M326 670l-1 1q-2.12.2-4.25.31c-4.43.43-6.4 1.7-9.75 4.7-3.31 1.24-3.31 1.24-6 2l1 3c2.97.48 2.97.48 6 1l-1 4c2.57.84 3.94 1 6.63.43L320 686l2 2c2.6-.32 2.6-.32 5-1l.19-2.38.8-2.62c2.57-1.3 2.57-1.3 5-2l-1-9q-2.97-.58-6-1m1433.29-253.12c12.98-.4 22.34 4.04 31.97 12.68 10.38 11.19 12.5 24.93 14.75 39.44l1.44 8.94.35 2.18c1.16 7 2.76 13.89 4.38 20.79a302 302 0 0 1 3.6 18.12c1.24 7.25 2.7 14.45 4.17 21.66l.73 3.63c1.22 5.94 2.6 11.76 4.3 17.57a293 293 0 0 1 5.53 23.17q.44 2.19.92 4.38a865 865 0 0 1 7.38 38.44l.4 2.36.68 4.35c.67 4.1 1.35 7.27 4.12 10.4 2.92 1.49 5.95 2.43 9.07 3.39l5.48 1.8 2.78.9c3.9 1.34 7.72 2.88 11.55 4.42a256 256 0 0 0 20.12 6.94 199 199 0 0 1 23.28 8.63A29 29 0 0 1 1927 679c-4.75 3-4.75 3-7 3a50 50 0 0 0 3.19 7.06c.8 1.94.8 1.94.75 4.07-1.34 2.68-3.2 2.88-5.94 3.87 9.68 3.04 17.14 3.9 26.98 1.45a24 24 0 0 1 7.02-.45v-4l-6-2v-2l-3.25-.75c-3.74-1.25-5.27-2.27-7.75-5.25l1-3 1.86 1.2a84 84 0 0 0 7.94 3.97c20.72 9.18 20.72 9.18 24.2 16.83-.44 2.13-.44 2.13-1 4l-2.31-.27c-16.01-1.88-31.52-3.6-47.63-2.23a266 266 0 0 1-19.76.69l-3.62.03-11.71.05-4.06.02-16.88.05q-12.04.03-24.08.1-8.5.07-17.01.07-5.06 0-10.13.05-5.64.04-11.27.02l-3.38.05c-7.51-.06-7.51-.06-10.78-2.95-1.64-3.18-3.1-6.36-4.44-9.68a79 79 0 0 0-5.94-12q-2.35-4.35-4.62-8.75c-3.81-7.28-3.81-7.28-7.68-14.54a420 420 0 0 1-13.07-26.4c-3.55-7.7-7.5-14.58-14.88-19.12l-2.58-1.65c-8.2-4-15.83-4.97-24.88-4.86h-3.41q-5.56.01-11.11.06l-7.8.02-18.44.08q-17.41.1-34.82.14-5.66 0-11.33.06a637 637 0 0 1-37.84-.81c-5.97-.32-11.93-.38-17.91-.35h-3.37c-9.77.05-19.52.42-29.27.9-4.01.19-7.98.35-12 .22-1-1-1-1-1.07-4.6q0-2.4.06-4.82l.03-5.24.09-8.28.06-7.98.04-2.48c.02-4.64-.52-8.21-2.2-12.6-.12-2.87-.12-2.87 0-5 3.38 1.19 5.77 2.16 8 5 .48 2.45.48 2.45.63 5.13-.06 3.24-.06 3.24 1.37 5.87.78-3.4 1.1-6.51 1-10 3.4-1.13 4.64-.84 8.07-.07l3.12.7 3.38.8 3.47.8a321 321 0 0 1 28.24 8.23c6.19 2.02 11.22 2.93 17.72 2.54l.88-1.87c1.39-2.65 3.15-4.31 5.3-6.38A190 190 0 0 0 1611 553l2.89-3.37 6.15-7.16 1.47-1.73 3.02-3.55a145 145 0 0 1 9.47-10.2l5.06-5c4.86-4.82 9.62-9.64 14.04-14.87 2.68-3 5.55-5.8 8.4-8.62 4-3.96 7.87-7.94 11.52-12.23a446 446 0 0 1 24.46-25.71c2.73-2.68 5.3-5.44 7.82-8.34 4.15-4.8 8.59-9.3 13.08-13.78l2.42-2.46c11.85-11.88 21.58-18.2 38.48-19.1"/><path fill="#313a4a" d="M1083.13 1397.87h24c13.16-.02 26.3-.01 39.45.54l2.58.1c13.43.66 28.09 4.74 37.84 14.49 9.02 12.09 12.53 23.83 10.64 38.87-2.63 13.39-11.04 23.93-21.64 32.13l-2.3 1.82c-8.4 6.27-18.14 11.23-28 14.78l-2.07.75c-1.9.68-3.8 1.3-5.71 1.94-3.23 1.5-3.23 1.5-4.37 5.1-1.47 9.68 2.85 18.33 8.2 26.18 10.23 13.5 25.37 22.99 42.25 25.43 15.58 1.36 30.19-2.8 42.83-12.07a64 64 0 0 0 11.3-12.68c4.34-6.22 8.67-9.91 16.25-11.31 6.34-.35 11.78 1.79 16.7 5.73 5.42 5.54 7.98 12.1 7.89 19.87-1.95 13.86-13.71 24.93-23.97 33.46l-2.17 1.94c-20.61 17.7-48.04 21.82-74.35 19.88a98.7 98.7 0 0 1-64.26-33.08c-2.07-1.98-2.07-1.98-4.7-1.82-3.33 1.43-5.07 3.4-7.52 6.08-19.01 19.27-44.44 29.74-71.67 30.17a122 122 0 0 1-18.58-1.8l-3.3-.53c-23.9-4.16-45.61-17.01-60.2-36.65-5.03-7.58-9.57-15.55-7.95-24.87 2.13-7.02 6.69-12.24 12.7-16.32 5.19-2.38 10.04-3.08 15.49-1.1 6.35 2.94 9.83 6.29 13.86 12.02 10.2 14.1 23.67 20.19 40.65 23.08 16.96 1.27 32.1-4.04 45-15 7.64-7.3 15.4-18 16.2-28.83.06-4.01.07-7.35-1.2-11.17-1.77-1.03-1.77-1.03-3.98-1.76l-2.51-.94c-1.33-.5-1.33-.5-2.7-.98-13.23-5.07-24.54-11.66-35.81-20.32l-3.2-2.25c-10.5-10.27-15.46-22.46-15.83-36.91.08-11 3.68-19.25 11.03-27.46 14.75-13.71 33.79-16.54 53.13-16.51m-350.84-199.03c12.44-.3 24.6 1.16 35.7 7.16l2.76 1.35c17.07 9.01 27.95 23.98 34.24 41.97 2.56 9.32 3.3 18.23 3.3 27.88l.02 3.86.03 10.38v6.52q.03 11.4.03 22.81 0 10.58.05 21.13.04 9.14.04 18.26l.02 10.85c.2 34.62.2 34.62-8.17 50.36l-1.03 2c-3.26 6.03-7.32 10.9-12.28 15.63l-2.41 2.4c-8.6 8.2-18.3 13.13-29.6 16.6l-2.2.68c-18.42 4.66-38.01 1.1-54.21-8.35-12.04-7.53-21.4-18.64-27.9-31.15l-.98-1.86c-5.17-10.5-6.15-21.68-6.1-33.2l-.02-4.02q-.03-5.38-.01-10.76l-.01-9.04q-.03-10.68-.01-21.37.02-10.95-.02-21.9-.04-9.46-.03-18.93l-.01-11.25c-.12-27.42 2.57-47.65 22.5-67.85l1.78-2.03c9.47-10.59 25.09-16.7 39-17.88zM1515 1206l2.98 1.46c15.98 8.48 26.92 22.91 32.82 39.85 3.01 10.32 2.77 20.78 2.89 31.44l.1 6.34q.13 9.46.21 18.91l.03 2.66q.14 15.72.01 31.45l-.06 13.11q-.03 8.91-.12 17.82-.04 4.9-.06 9.83c-.06 24.39-3.23 43.03-20.8 61.13l-1.71 1.93c-10.05 11.01-26.31 17.67-41.07 18.55-22.11.62-42.2-4.52-58.76-19.83-15.44-16.32-21.78-35.52-21.73-57.58l-.02-3.77-.01-10.14-.01-8.52-.01-20.13q.01-10.32-.02-20.64-.03-8.92-.02-17.84l-.02-10.6c-.1-27.52 1.81-51.88 21.94-72.62 21.23-20.99 56.69-26.65 83.44-12.81m566.31 125.5c4.74 4.41 6.9 9.89 8.75 16a24 24 0 0 1-5.8 15.59c-8.93 8.46-20.78 8.86-32.45 10.29l-5.07.64-10.53 1.32q-7.4.93-14.79 1.92l-2.35.31-4.67.62a4696 4696 0 0 1-31.3 4.06c-16.95 2.13-33.86 4.4-50.75 7.02q-12.59 1.95-25.25 3.56-9.04 1.16-18.07 2.39c-29.18 4.01-29.18 4.01-39.34 5.09l-2.12.23c-14.99 1.51-14.99 1.51-21.57-3.54-4.28-4.64-6.8-9.39-7.1-15.74.36-7.95 2.57-13.73 8.3-19.45 6.63-4.28 14.14-5.35 21.86-6.19l10-1.16q10.25-1.22 20.51-2.52l7.73-.96q17.6-2.21 35.2-4.54c43.6-5.77 43.6-5.77 58.65-7.28l2.01-.21q4.72-.47 9.45-.91c6.84-.65 6.84-.65 13.55-2.04 4.72-1.23 9.38-1.81 14.21-2.38l3.07-.36 6.76-.8q5.16-.63 10.31-1.31 4.55-.6 9.11-1.17l4.46-.59c9.7-1.32 18.13-2.01 27.23 2.11M1852 1475.17l3.19.37 10.25 1.21 7.09.83 28.06 3.31c14.09 1.64 28.13 3.45 42.14 5.6a901 901 0 0 0 31.86 4.11c6.92.81 13.78 1.75 20.64 2.94 4.4.73 8.84 1.25 13.27 1.77a1777 1777 0 0 1 36.5 4.9l4.4.6 2.17.31q5.45.78 10.92 1.41 1.09.14 2.2.26l5.97.68c6.87 1.1 11.92 4.1 16.34 9.53 2.68 4.9 4.06 9.45 3 15-2.87 8.03-6.57 12.7-14.14 16.63-4.27 1.78-8.06 1.6-12.61 1.24q-1.24-.07-2.53-.17a199 199 0 0 1-18.67-2.4c-9.4-1.59-18.85-2.7-28.31-3.86a1320 1320 0 0 1-31.4-4.12 1628 1628 0 0 0-43.6-5.63l-15.41-1.85-3.9-.47q-12.6-1.5-25.2-3.06l-3.26-.4q-7.8-.95-15.57-1.92a800 800 0 0 0-24.9-2.82l-3.67-.36q-3.15-.3-6.3-.52c-7.67-.74-13.5-3.68-18.5-9.64-3.64-7.6-4.63-15-1.84-23.09 8.96-12.66 17.84-12.06 31.8-10.39m-1474.29-.37c4.82-.16 8.3-.25 12.74 1.76 6.49 6.17 10.3 10.7 10.66 19.9-.21 5.6-1.65 9.22-5.04 13.65-6.1 5.58-11.73 7.68-19.87 8.51l-2.91.35q-4.64.55-9.28 1.03l-12.12 1.31-3.33.36c-10.86 1.2-21.67 2.7-32.48 4.2a1854 1854 0 0 1-53.04 6.57l-2.7.3-4.95.54q-6.7.75-13.38 1.72l-3.62.44q-5.2.65-10.41 1.43a821 821 0 0 1-42.82 5.05c-8.72.8-17.38 1.82-26.02 3.25-6.63 1.02-13.45 1.44-19.71-1.3-5.6-4.48-8.75-8.56-9.86-15.73-.4-6.64.66-11 4.73-16.3 5.87-6.3 12.73-8.05 21-9.02l2.42-.3 5.14-.64 13.37-1.65 2.63-.33q9.12-1.13 18.22-2.46c9.42-1.38 18.85-2.64 28.28-3.89q13.3-1.76 26.59-3.6 17.16-2.39 34.33-4.6l8.1-1.06q12.98-1.73 25.96-3.3l2.2-.26 10.77-1.29c6.25-.74 12.48-1.54 18.7-2.52 8.55-1.35 17.06-1.65 25.7-2.12m-209.01-144.42 6.36.82 3.09.41q5.67.77 11.36 1.46 1.86.21 3.78.47l7.76.95A927 927 0 0 1 220 1337c15.95 2.33 31.98 4.1 47.98 6.04 22.89 2.77 45.78 5.54 68.66 8.42l4.27.54 2.04.25q7.48.94 14.98 1.8c6.06.72 12.1 1.43 18.14 2.34l2.3.3c7.28 1.1 13.87 3.46 18.57 9.38 4.2 5.87 4.48 11.41 3.83 18.42-1.1 6.41-3.71 10.25-8.97 14.15-3.46 1.7-6.41 1.86-10.17 1.8l-2.34-.02c-10.95-.28-21.8-2-32.63-3.5-7.92-1.1-15.86-2.07-23.8-3.04a3106 3106 0 0 1-78.7-10.81 913 913 0 0 0-29.97-3.96c-9.02-1.05-18.01-2.28-27-3.54q-9.69-1.37-19.41-2.6l-6.11-.78-5.77-.7c-14.85-1.9-14.85-1.9-19.92-6.2q-.67-.87-1.35-1.79-.7-.86-1.4-1.78c-3.42-4.79-4.56-8.9-4.05-14.73 1.29-6.63 5.05-11.93 10.45-15.91 9.02-4.04 19.59-1.98 29.06-.7"/><path fill="#ffa519" d="M326 670q3.01.43 6 1l1 9-2.44.69L328 682c-.89 2.55-.89 2.55-1 5-2.38.62-2.38.62-5 1l-2-2c-1.99-.02-1.99-.02-4.12.38L312 687l-1-2 1-3-7-2v-2l1.9-.8 2.48-1.08 2.46-1.05c2.3-.99 2.3-.99 4.16-3.07 2.13-.38 2.13-.38 4.56-.56 3.02-.02 3.02-.02 5.44-1.44"/><path fill="#de7b19" d="m1073.02 1396.7 2.62-.01 8.52-.03 5.98-.02 12.52-.01q7.96 0 15.92-.06l12.36-.03 5.86-.02c15.06-.11 30.22.77 43.2 9.48l2 3a96 96 0 0 1-6.92-2.92c-9.28-4.4-18.24-6.23-28.45-6.65l-2.85-.12c-12.79-.5-25.59-.53-38.39-.55l-10.88-.06q-4.27-.03-8.56-.02l-5.9-.05c-20.93.06-38.48 6.18-54.05 20.37 3.78-8.7 13.34-13.67 21.73-17.12 8.5-3.2 16.22-5.18 25.3-5.17M396 1365c4.27 3.7 6.08 6.4 7 12 .09 6.57-.98 12.67-5 18-6.57 6.08-11.57 7.22-20.41 7.14-5.62-.22-11.1-1.03-16.65-1.89-11.9-1.74-23.8-3.2-35.75-4.5l-2.46-.27L309 1394v-2c8.77.4 17.41 1.24 26.11 2.41l2.99.4q6.14.82 12.29 1.68c10.19 1.42 20.36 2.78 30.65 3.01l2.15.09c5.54.01 8.86-1.97 12.81-5.59 3.96-5.14 4.02-10.69 4-17a32 32 0 0 0-4-12m691 223 2 1a97 97 0 0 1-32 15l-3.29.91c-24.71 5.97-51.98 2.25-74.71-8.91l-2-3c8.2 2.64 8.2 2.64 11.61 4.17 7.51 3.29 14.88 4.83 22.95 6.14l3.15.52a92 92 0 0 0 32.29-.58l2.91-.56c11.43-2.25 28.47-6.07 37.09-14.69m890-249c-3.27 1.89-6.13 2.45-9.87 2.9l-3.6.44-3.9.46-4.08.51-10.8 1.3-16.96 2.06-6.29.77q-10.48 1.26-20.93 2.74l-2.04.3q-4.79.68-9.57 1.4l-3.41.49-2.97.44c-2.49.18-4.22-.04-6.58-.81a135 135 0 0 1 17.35-3.37l2.68-.36 8.59-1.15 5.95-.79 11.88-1.59q7.34-.98 14.66-1.99l4.06-.55 7.25-.99a271 271 0 0 1 19.9-1.95c7.34-.71 7.34-.71 8.68-.26m0 44-1 2c-3.15.52-6.26.91-9.44 1.25a1308 1308 0 0 0-35.87 4.75l-5.3.75-5.19.75-2.56.37a626 626 0 0 0-15.45 2.41q-2.4.39-4.78.81c-4.87.8-9.48 1.03-14.41.91 2.47-2.47 3.66-2.44 7.09-2.89l3.26-.45 3.59-.47 7.65-1.05 4.12-.56q10.02-1.37 20.03-2.82l6.77-.96c6.29-.9 12.57-1.8 18.84-2.78l2.76-.44q2.38-.37 4.77-.77a85 85 0 0 1 15.12-.81m-155-17 1 2q-.96 2.01-2 4c-1.8 7.6-.79 14.36 2.62 21.31 3.94 4.46 8.29 6.54 14.22 6.97q2.05-.14 4.1-.34l2.27-.18c8.12-.67 16.21-1.7 24.29-2.74 4.86-.63 9.58-1.22 14.5-1.02l-1 2c-2.35.47-4.6.8-6.97 1.07l-2.17.26-4.58.53-6.84.82c-27.15 3.22-27.15 3.22-34.63-1.18-5.46-4.47-8.75-9.35-9.81-16.38-.31-5.35.86-10.22 3-15.12zm-1521-20c8.65.69 17.22 1.78 25.81 2.94a537 537 0 0 0 31.24 3.38c3.84.3 7.47.73 11.2 1.71a42 42 0 0 0 9.25 1.35c5.38.41 8.91 1.81 13.5 4.62l1 2-1.99-.91c-3.65-1.32-7.32-1.97-11.13-2.59l-4.26-.72-2.28-.38q-2.3-.39-4.58-.85c-10.08-2-20.31-2.93-30.51-4.05l-11.55-1.28-2.79-.31A843 843 0 0 1 301 1348zm692 202a65 65 0 0 1 8.44 3.88 61.7 61.7 0 0 0 44.7 4.19 96 96 0 0 0 12.36-5.86c2.5-1.21 2.5-1.21 5.5-1.21-8.94 6.88-19.66 11.43-31 12l-2.14.19c-10.7.56-26.08-2.58-34.51-9.55-1.41-1.39-1.41-1.39-3.35-3.64m253 41 2 1c-20.23 13.49-41.1 17.66-65 17v-2l3.96-.08c20.49-.58 38.51-4.32 56.39-14.63zm-95-45a64 64 0 0 1 9 5.38c5.76 3.69 11.44 5.79 18 7.62l2.12.75c11.37 3.53 25.01-.13 35.47-4.82l2.41-.93 2 1c-13.46 7.69-27.95 10.34-43.06 6.38-9.8-3.1-18.55-7.15-25.94-14.38zm-908-161c9.86.61 19.61 1.75 29.39 3.05l7.42.96c9.83 1.28 19.5 2.9 29.19 4.99v1c-11.86-.65-23.56-2.35-35.31-4l-8.91-1.23-5.5-.77-2.54-.35-2.41-.34q-2.34-.31-4.69-.55a106 106 0 0 1-5.64-.76zm926 105 2 1c-9.18 7.26-19.44 11.65-30.37 15.58-3.61 1.13-3.61 1.13-5.63 3.42-1.14 8.54 2.79 17.23 6 25-6.27-4.93-8.19-13.22-9.21-20.8.33-3.47 1.18-5.32 3.21-8.2 3.02-1.76 6.21-2.86 9.5-4l5.43-2.04 2.65-1c5.84-2.32 11.2-5.48 16.42-8.96m-925-149c12.97.91 25.89 2.12 38.78 3.74l4.19.51 5.9.75 3.44.44c2.69.56 2.69.56 4.69 2.56a135 135 0 0 1-20.12-1.24l-3.12-.39-6.46-.82-9.94-1.24-6.3-.8-3.01-.37-2.76-.36-2.45-.31-1.84-.47zm943 74c7.14 4.49 9.69 12.26 11.81 20.06 2.47 11.17 1.22 21.65-4.41 31.84a91 91 0 0 1-4.4 6.1c0-3.41.76-4.68 2.38-7.62 5.84-11.45 5.74-22.94 2.68-35.29-1.35-3.92-3.26-6.99-5.76-10.29-1.3-1.8-1.3-1.8-2.3-4.8m81.7 113.45A26 26 0 0 1 1280 1543c.93 8.6.93 8.6-1.53 12.3l-1.47 1.7.36-1.73c1.22-7.7-.09-14.2-3.36-21.27-3.63-4.82-9.1-7.89-15-9-5.29-.06-10.08 1.1-15 3 6.71-7.78 16.61-6.02 24.7-1.55M1035 1479a47 47 0 0 1 8.25 5.06c10.66 7.5 21.72 13.39 34.07 17.56 2.21.77 2.21.77 5.68 2.38a15 15 0 0 1 1 4l-1.61-1.36c-2.81-1.93-5.45-2.79-8.7-3.83-12.78-4.44-31.05-12.2-38.69-23.81m841-127v1l-12 1.88-3.59.56c-5.85.91-11.67 1.73-17.56 2.3-6.81.67-11.55 1.89-16.85 6.26l-3 2c1.4-3.41 2.83-4.84 6-6.69l2.12-1.26c3.99-2.23 7.7-2.54 12.19-2.99a267 267 0 0 0 16.69-2.18 78 78 0 0 1 16-.88m-740 239c4.4 1.41 8.62 3.08 12.88 4.88 10.97 4.5 22.47 6.99 34.12 9.12v1c-11.31-.74-21.1-2.53-31.75-6.38l-2.47-.88c-4.73-1.76-8.75-3.69-12.78-6.74zm-25.63-21.94c3.52 1.26 5.16 3.2 7.7 5.94 5.47 5.78 11.43 10.4 17.93 15-5.56 0-9.84-4.6-14-8a194 194 0 0 1-7.6-8.1c-2.99-2.38-4.68-2.29-8.4-1.9l-2 4h-3c5.37-7.05 5.37-7.05 9.37-6.94M1025 1419c0 3.79-1.37 6.1-3.03 9.45-2.18 5.72-2.1 11.52-1.72 17.55l.08 2.04c.22 3.59.78 6.53 2.28 9.77 1.39 3.19 1.39 3.19.39 6.19-5.91-10.84-7.05-21.91-4.07-33.84 1.46-4.3 3.38-7.52 6.07-11.16"/></svg>